<?xml version="1.0" encoding="UTF-8"?>
<svg width="55px" height="134px" viewBox="0 0 55 134" version="1.1" xmlns="http://www.w3.org/2000/svg" xmlns:xlink="http://www.w3.org/1999/xlink">
    <title>rr_logo_sprite</title>
    <g id="HOME" stroke="none" stroke-width="1" fill="none" fill-rule="evenodd">
        <g id="rr_logo_sprite">
            <g id="Group-8" transform="translate(0.000000, 67.000000)" fill="#B72C09">
                <path d="M54.9979436,40.0249987 C54.7037429,15.817413 41.763229,14.1096149 41.763229,14.1096149 C42.498411,21.8321693 39.1162221,23.3915685 39.1162221,23.3915685 C37.0574568,-0.519057958 21.6168764,0.000903259706 21.6168764,0.000903259706 C22.8667497,1.560141 23.4551511,7.3522183 21.6168764,9.80265664 C19.7786017,12.253095 14.9994392,14.9262124 11.3232095,21.2380894 C7.64666004,27.5499665 12.2788821,34.1588027 12.2788821,34.1588027 C5.88209538,33.7131217 6.69098743,25.3964873 6.69098743,25.3964873 C0.441141165,29.2577645 0,40.0249987 0,40.0249987 C0,52.9067956 8.68499666,63.7384598 20.4637376,66.877443 C22.3322318,67.3754432 24.2755554,66.2851394 24.8182278,64.4118257 C25.0679786,63.5498527 25.0879651,62.6362066 24.9806777,61.4436868 C24.7488348,58.8705247 23.307731,57.7267715 22.6384244,57.284966 C21.9694376,56.8429989 18.2057472,55.2558254 16.255868,51.3328633 C14.3170214,48.0613061 14.1456176,45.510751 14.3000729,43.0415812 C14.4543684,40.5724113 15.6126238,37.2713035 16.7707193,34.1003474 C17.9288148,30.9293914 17.8258445,28.9018656 17.8258445,28.9018656 C17.6713891,28.3560678 17.8515871,28.2000795 18.392021,28.0962487 C18.9324549,27.9922564 23.0245628,27.5504509 25.855605,27.5244528 C26.3012232,27.5204159 26.8646815,27.5200929 27.4999312,27.5239684 C28.1353407,27.5200929 28.698799,27.5204159 29.1444172,27.5244528 C31.9754594,27.5504509 36.0674074,27.9922564 36.6078413,28.0962487 C37.1484351,28.2000795 37.3284732,28.3560678 37.1741777,28.9018656 C37.1741777,28.9018656 37.0712074,30.9293914 38.2293029,34.1003474 C39.3873984,37.2713035 40.5456538,40.5724113 40.6999493,43.0415812 C40.8544046,45.510751 40.6999493,47.5639519 38.7441542,51.3328633 C36.7880393,55.1016133 33.0305846,56.8429989 32.3614379,57.284966 C31.6922912,57.7267715 30.2511874,58.8705247 30.0193445,61.4436868 C29.9118973,62.6373369 29.9322035,63.5514675 30.1825939,64.4144094 C30.7255861,66.2862697 32.6660316,67.3759276 34.534206,66.8806726 C46.3570771,63.7455648 55.1544776,52.9103482 54.9979436,40.0249987" id="Fill-1"></path>
                <path d="M16.0012842,46 C16.0009632,46.0280561 16,46.0559596 16,46.0841682 C16,51.5604349 21.1486212,56 27.5000803,56 C33.8512183,56 39,51.5604349 39,46.0841682 C39,46.0559596 38.9990368,46.0280561 38.9987158,46 L16.0012842,46 Z" id="Fill-4"></path>
            </g>
            <g id="Group-8" fill="#E83A0E">
                <path d="M54.9979436,40.0249987 C54.7037429,15.817413 41.763229,14.1096149 41.763229,14.1096149 C42.498411,21.8321693 39.1162221,23.3915685 39.1162221,23.3915685 C37.0574568,-0.519057958 21.6168764,0.000903259706 21.6168764,0.000903259706 C22.8667497,1.560141 23.4551511,7.3522183 21.6168764,9.80265664 C19.7786017,12.253095 14.9994392,14.9262124 11.3232095,21.2380894 C7.64666004,27.5499665 12.2788821,34.1588027 12.2788821,34.1588027 C5.88209538,33.7131217 6.69098743,25.3964873 6.69098743,25.3964873 C0.441141165,29.2577645 0,40.0249987 0,40.0249987 C0,52.9067956 8.68499666,63.7384598 20.4637376,66.877443 C22.3322318,67.3754432 24.2755554,66.2851394 24.8182278,64.4118257 C25.0679786,63.5498527 25.0879651,62.6362066 24.9806777,61.4436868 C24.7488348,58.8705247 23.307731,57.7267715 22.6384244,57.284966 C21.9694376,56.8429989 18.2057472,55.2558254 16.255868,51.3328633 C14.3170214,48.0613061 14.1456176,45.510751 14.3000729,43.0415812 C14.4543684,40.5724113 15.6126238,37.2713035 16.7707193,34.1003474 C17.9288148,30.9293914 17.8258445,28.9018656 17.8258445,28.9018656 C17.6713891,28.3560678 17.8515871,28.2000795 18.392021,28.0962487 C18.9324549,27.9922564 23.0245628,27.5504509 25.855605,27.5244528 C26.3012232,27.5204159 26.8646815,27.5200929 27.4999312,27.5239684 C28.1353407,27.5200929 28.698799,27.5204159 29.1444172,27.5244528 C31.9754594,27.5504509 36.0674074,27.9922564 36.6078413,28.0962487 C37.1484351,28.2000795 37.3284732,28.3560678 37.1741777,28.9018656 C37.1741777,28.9018656 37.0712074,30.9293914 38.2293029,34.1003474 C39.3873984,37.2713035 40.5456538,40.5724113 40.6999493,43.0415812 C40.8544046,45.510751 40.6999493,47.5639519 38.7441542,51.3328633 C36.7880393,55.1016133 33.0305846,56.8429989 32.3614379,57.284966 C31.6922912,57.7267715 30.2511874,58.8705247 30.0193445,61.4436868 C29.9118973,62.6373369 29.9322035,63.5514675 30.1825939,64.4144094 C30.7255861,66.2862697 32.6660316,67.3759276 34.534206,66.8806726 C46.3570771,63.7455648 55.1544776,52.9103482 54.9979436,40.0249987" id="Fill-1"></path>
                <path d="M16.0012842,46 C16.0009632,46.0280561 16,46.0559596 16,46.0841682 C16,51.5604349 21.1486212,56 27.5000803,56 C33.8512183,56 39,51.5604349 39,46.0841682 C39,46.0559596 38.9990368,46.0280561 38.9987158,46 L16.0012842,46 Z" id="Fill-4"></path>
            </g>
        </g>
    </g>
</svg>