<?xml version="1.0" encoding="utf-8"?>
<!-- Generator: Adobe Illustrator 25.2.0, SVG Export Plug-In . SVG Version: 6.00 Build 0)  -->
<svg version="1.1" id="Layer_1" xmlns="http://www.w3.org/2000/svg" xmlns:xlink="http://www.w3.org/1999/xlink" x="0px" y="0px"
	 viewBox="0 0 55 67" style="enable-background:new 0 0 55 67;" xml:space="preserve">
<style type="text/css">
	.st0{fill-rule:evenodd;clip-rule:evenodd;fill:#FFFFFF;}
</style>
<g id="HOME">
	<g id="NEW-Copy" transform="translate(-100.000000, -20.000000)">
		<g id="Group" transform="translate(100.000000, 20.000000)">
			<g id="Group-8">
				<path id="Fill-1" class="st0" d="M55,40c-0.3-24.2-13.2-25.9-13.2-25.9c0.7,7.7-2.6,9.3-2.6,9.3C37.1-0.5,21.6,0,21.6,0
					c1.2,1.6,1.8,7.4,0,9.8S15,14.9,11.3,21.2c-3.7,6.3,1,12.9,1,12.9c-6.4-0.4-5.6-8.8-5.6-8.8C0.4,29.3,0,40,0,40
					c0,12.9,8.7,23.7,20.5,26.9c1.9,0.5,3.8-0.6,4.4-2.5c0.2-0.9,0.3-1.8,0.2-3c-0.2-2.6-1.7-3.7-2.3-4.2c-0.7-0.4-4.4-2-6.4-6
					c-1.9-3.3-2.1-5.8-2-8.3c0.2-2.5,1.3-5.8,2.5-8.9c1.2-3.2,1.1-5.2,1.1-5.2c-0.2-0.5,0-0.7,0.6-0.8c0.5-0.1,4.6-0.5,7.5-0.6
					c0.4,0,1,0,1.6,0c0.6,0,1.2,0,1.6,0c2.8,0,6.9,0.5,7.5,0.6c0.5,0.1,0.7,0.3,0.6,0.8c0,0-0.1,2,1.1,5.2c1.2,3.2,2.3,6.5,2.5,8.9
					c0.2,2.5,0,4.5-2,8.3c-2,3.8-5.7,5.5-6.4,6c-0.7,0.4-2.1,1.6-2.3,4.2c-0.1,1.2-0.1,2.1,0.2,3c0.5,1.9,2.5,3,4.4,2.5
					C46.4,63.7,55.2,52.9,55,40"/>
				<path id="Fill-4" class="st0" d="M16,46C16,46,16,46.1,16,46c0,5.6,5.1,10,11.5,10c6.4,0,11.5-4.4,11.5-9.9c0,0,0-0.1,0-0.1H16z
					"/>
			</g>
		</g>
	</g>
</g>
</svg>
