<?xml version="1.0" encoding="UTF-8"?>
<svg width="700px" height="332px" viewBox="0 0 700 332" version="1.1" xmlns="http://www.w3.org/2000/svg" xmlns:xlink="http://www.w3.org/1999/xlink">
    <title>AdscendMedia</title>
    <defs>
        <polygon id="path-1" points="0 0.44353125 75.2251111 0.44353125 75.2251111 76.5182187 0 76.5182187"></polygon>
        <polygon id="path-3" points="4.8357037 4.16711875 51.6579259 4.16711875 51.6579259 62.25 4.8357037 62.25"></polygon>
        <polygon id="path-5" points="0 325.452856 697.044444 325.452856 697.044444 -0.00051875 0 -0.00051875"></polygon>
    </defs>
    <g id="ADSCEND-001" stroke="none" stroke-width="1" fill="none" fill-rule="evenodd">
        <g id="Website-New" transform="translate(-370.000000, -466.000000)">
            <g id="AdscendMedia" transform="translate(370.000000, 466.000000)">
                <path d="M422.994444,159.278038 L417.866296,146.32485 C458.829259,107.475663 435.158889,29.5386625 372.661852,32.1739125 L369.789259,24.9114125 C444.896667,18.1521 487.088519,103.066288 422.994444,159.278038 L422.994444,159.278038 Z M474.032222,54.1585375 C440.898889,1.645475 371.635185,2.4599125 319.306296,19.075475 C253.770741,39.8825375 176.485556,105.250225 207.721111,182.30535 L201.431481,193.359912 C161.536667,93.443475 270.430741,14.9514125 360.824074,2.267975 C406.666296,-4.7299625 462.21,3.139475 489.987037,44.805475 C525.785556,98.485725 487.788519,168.94235 439.078889,199.890975 L433.21963,185.096225 C472.15,154.827162 503.084815,100.1976 474.032222,54.1585375 L474.032222,54.1585375 Z M406.827037,118.442038 C423.652963,95.082725 410.057407,56.8716 380.657407,52.358475 L389.710741,75.2197875 C394.698889,78.2389125 397.918889,85.0967875 396.866296,93.2930375 L406.827037,118.442038 Z" id="Fill-1" fill="#109CCF"></path>
                <path d="M315.700519,138.413913 L325.645704,106.059475 C326.293852,103.9326 326.936815,101.603413 327.584963,99.0822875 C328.233111,96.5196625 328.881259,94.003725 329.482741,91.4826 C330.089407,88.919975 330.613111,86.5907875 331.100519,84.4950375 C331.582741,82.404475 331.987185,80.702975 332.230889,79.416475 L332.676815,77.4400375 L333.159037,77.4400375 L333.610148,79.416475 C333.884963,80.702975 334.253111,82.404475 334.735333,84.4950375 L336.353111,91.4826 C336.959778,94.003725 337.607926,96.5196625 338.250889,99.0822875 C338.899037,101.603413 339.547185,103.9326 340.195333,106.059475 L349.89163,138.413913 L315.700519,138.413913 Z M355.227185,39.5090375 L310.608667,39.5090375 L251.689407,205.8981 L295.333111,205.8981 L305.760519,170.991412 L359.83163,170.991412 L370.502741,205.8981 L414.146444,205.8981 L355.227185,39.5090375 Z" id="Fill-3" fill="#003549"></path>
                <path d="M399.825481,302.534481 C399.208444,304.277481 398.368444,305.693669 397.300296,306.793419 C396.232148,307.903544 395.03437,308.733544 393.670667,309.252294 C392.322519,309.791794 390.917333,310.040794 389.439556,310.040794 C387.178815,310.025231 385.21363,309.470169 383.512889,308.339294 C381.801778,307.223981 380.495111,305.641794 379.541037,303.597919 C378.586963,301.548856 378.120296,299.141856 378.099556,296.361356 C378.120296,293.518606 378.659556,291.111606 379.691407,289.135169 C380.718074,287.163919 382.107704,285.675106 383.808444,284.647981 C385.509185,283.620856 387.401778,283.102106 389.439556,283.102106 C391.347704,283.117669 393.017333,283.496356 394.432889,284.232981 C395.858815,284.969606 397.035852,285.960419 397.97437,287.215794 C398.907704,288.471169 399.618074,289.887356 400.089926,291.474731 C400.556593,293.036169 400.779556,294.670231 400.779556,296.361356 C400.764,298.747606 400.442519,300.807044 399.825481,302.534481 L399.825481,302.534481 Z M400.219556,248.081294 L400.219556,269.308544 C400.219556,270.029606 400.240296,270.620981 400.271407,271.072294 L400.33363,271.788169 L400.105481,271.788169 C400.126222,271.772606 399.882519,271.533981 399.379556,271.103419 C398.892148,270.657294 398.067704,270.154106 396.906222,269.578294 C395.765481,269.007669 394.19437,268.499294 392.249926,268.053169 C390.284741,267.622606 387.847704,267.389169 384.949185,267.368419 C381.096593,267.389169 377.560296,268.068731 374.340296,269.438231 C371.120296,270.781794 368.351407,272.737481 365.992148,275.268981 C363.638074,277.821231 361.818074,280.855919 360.526963,284.414544 C359.235852,287.967981 358.582519,291.957169 358.561778,296.361356 C358.582519,300.687731 359.199556,304.619856 360.418074,308.173294 C361.652148,311.726731 363.409926,314.802919 365.691407,317.370731 C367.972889,319.938544 370.726222,321.930544 373.904741,323.336356 C377.109185,324.731794 380.666222,325.437294 384.612148,325.452856 C386.986963,325.437294 389.086963,325.146794 390.917333,324.607294 C392.752889,324.067794 394.324,323.403794 395.651407,322.615294 C396.963259,321.806044 398.046963,321.017544 398.892148,320.208294 C399.732148,319.419794 400.349185,318.750606 400.743259,318.211106 C401.152889,317.676794 401.339556,317.386294 401.339556,317.370731 L401.567704,317.370731 L401.510667,318.288919 C401.469185,318.880294 401.45363,319.611731 401.45363,320.493606 L401.45363,324.155981 L419.643259,324.155981 L419.643259,248.081294 L400.219556,248.081294 Z" id="Fill-5" fill="#003549"></path>
                <path d="M258.319185,289.353044 C258.656222,287.967981 259.195481,286.676294 259.947333,285.457231 C260.694,284.253731 261.68437,283.283669 262.959926,282.526294 C264.214741,281.789669 265.785852,281.395419 267.636963,281.374669 C269.192519,281.395419 270.519926,281.774106 271.660667,282.510731 C272.801407,283.247356 273.682889,284.217419 274.315481,285.420919 C274.953259,286.624419 275.274741,287.936856 275.274741,289.353044 L258.319185,289.353044 Z M293.028815,283.517106 C291.851778,280.248981 290.130296,277.411419 287.848815,275.004419 C285.562148,272.597419 282.777704,270.724731 279.46437,269.396731 C276.151037,268.068731 272.355481,267.389169 268.088074,267.368419 C263.426593,267.389169 259.236963,268.141356 255.529556,269.614606 C251.827333,271.087856 248.66437,273.136919 246.061407,275.756606 C243.442889,278.397044 241.456963,281.452481 240.072519,284.969606 C238.708815,288.471169 238.014,292.263231 237.998444,296.361356 C237.998444,299.318231 238.44437,302.228419 239.325852,305.050419 C240.202148,307.867231 241.493259,310.512856 243.235481,312.971731 C244.956963,315.430606 247.108815,317.604169 249.654741,319.456106 C252.216222,321.323606 255.176963,322.796856 258.542148,323.834356 C261.891778,324.897794 265.635481,325.437294 269.768074,325.452856 C272.858444,325.437294 275.68437,325.146794 278.245852,324.607294 C280.812519,324.067794 283.114741,323.403794 285.116222,322.615294 C287.117704,321.806044 288.818444,321.017544 290.202889,320.208294 C291.592519,319.419794 292.660667,318.750606 293.386593,318.211106 C294.096963,317.676794 294.475481,317.386294 294.475481,317.370731 L287.28363,304.334544 C287.268074,304.370856 286.816963,304.656169 285.961407,305.211231 C285.100667,305.771481 283.918444,306.399169 282.440667,307.135794 C280.942148,307.867231 279.241407,308.500106 277.333259,309.055169 C275.440667,309.610231 273.439185,309.900731 271.34437,309.937044 C269.265111,309.937044 267.28437,309.594669 265.428074,308.873606 C263.576963,308.157731 261.969556,307.078731 260.636963,305.605481 C259.309556,304.132231 258.376222,302.285481 257.868074,300.023731 L294.361407,300.023731 C294.361407,300.002981 294.382148,299.790294 294.434,299.375294 L294.58437,297.793106 C294.641407,297.165419 294.698444,296.537731 294.734741,295.889294 C294.791778,295.246044 294.812519,294.670231 294.812519,294.203356 C294.812519,290.323106 294.211037,286.764481 293.028815,283.517106 L293.028815,283.517106 Z" id="Fill-7" fill="#003549"></path>
                <path d="M112.030074,302.534481 C111.413037,304.277481 110.573037,305.693669 109.504889,306.793419 C108.441926,307.903544 107.244148,308.733544 105.875259,309.252294 C104.527111,309.791794 103.127111,310.040794 101.649333,310.040794 C99.3834074,310.025231 97.4182222,309.470169 95.7174815,308.339294 C94.0115556,307.223981 92.6997037,305.641794 91.7456296,303.597919 C90.7915556,301.548856 90.3248889,299.141856 90.3093333,296.361356 C90.3248889,293.518606 90.8693333,291.111606 91.896,289.135169 C92.9226667,287.163919 94.3122963,285.675106 96.013037,284.647981 C97.7137778,283.620856 99.6063704,283.102106 101.649333,283.102106 C103.557481,283.117669 105.221926,283.496356 106.642667,284.232981 C108.063407,284.969606 109.24563,285.960419 110.178963,287.215794 C111.117481,288.471169 111.822667,289.887356 112.294519,291.474731 C112.761185,293.036169 112.989333,294.670231 112.989333,296.361356 C112.968593,298.747606 112.652296,300.807044 112.030074,302.534481 L112.030074,302.534481 Z M112.424148,248.081294 L112.424148,269.308544 C112.424148,270.029606 112.444889,270.620981 112.481185,271.072294 L112.538222,271.788169 L112.315259,271.788169 C112.330815,271.772606 112.087111,271.533981 111.584148,271.103419 C111.096741,270.657294 110.272296,270.154106 109.116,269.578294 C107.970074,269.007669 106.398963,268.499294 104.454519,268.053169 C102.489333,267.622606 100.052296,267.389169 97.1537778,267.368419 C93.3011852,267.389169 89.7648889,268.068731 86.5448889,269.438231 C83.3248889,270.781794 80.556,272.737481 78.1967407,275.268981 C75.8426667,277.821231 74.0278519,280.855919 72.7315556,284.414544 C71.4404444,287.967981 70.7871111,291.957169 70.7663704,296.361356 C70.7871111,300.687731 71.4093333,304.619856 72.6226667,308.173294 C73.8567407,311.726731 75.6197037,314.802919 77.9011852,317.370731 C80.1826667,319.938544 82.936,321.930544 86.1145185,323.336356 C89.3137778,324.731794 92.8708148,325.437294 96.8167407,325.452856 C99.1915556,325.437294 101.291556,325.146794 103.127111,324.607294 C104.957481,324.067794 106.528593,323.403794 107.861185,322.615294 C109.167852,321.806044 110.256741,321.017544 111.096741,320.208294 C111.936741,319.419794 112.558963,318.750606 112.947852,318.211106 C113.362667,317.676794 113.544148,317.386294 113.544148,317.370731 L113.772296,317.370731 L113.715259,318.288919 C113.678963,318.880294 113.658222,319.611731 113.658222,320.493606 L113.658222,324.155981 L131.847852,324.155981 L131.847852,248.081294 L112.424148,248.081294 Z" id="Fill-9" fill="#003549"></path>
                <g id="Group-13" transform="translate(0.000000, 247.640356)">
                    <mask id="mask-2" fill="white">
                        <use xlink:href="#path-1"></use>
                    </mask>
                    <g id="Clip-12"></g>
                    <path d="M29.6421481,45.2687187 L34.2465926,30.2872187 C34.5473333,29.3015937 34.8428889,28.2225937 35.1436296,27.0554062 C35.4443704,25.8726562 35.7451111,24.7054687 36.0199259,23.5382812 C36.3051111,22.3555312 36.5488148,21.2765312 36.7717778,20.3064687 C36.9947407,19.3312187 37.1814074,18.5427187 37.2954815,17.9513437 L37.5028889,17.0383437 L37.7258519,17.0383437 L37.9332593,17.9513437 C38.0628889,18.5427187 38.2288148,19.3312187 38.456963,20.3064687 L39.2036296,23.5382812 C39.4836296,24.7054687 39.7843704,25.8726562 40.0851111,27.0554062 C40.3806667,28.2225937 40.6814074,29.3015937 40.9821481,30.2872187 L45.4725185,45.2687187 L29.6421481,45.2687187 Z M48.2621481,0.44353125 L26.9458519,0.44353125 L-0.00155555556,76.5182187 L20.2102963,76.5182187 L25.0377037,60.3539687 L50.076963,60.3539687 L55.0184444,76.5182187 L75.2251111,76.5182187 L48.2621481,0.44353125 Z" id="Fill-11" fill="#003549" mask="url(#mask-2)"></path>
                </g>
                <path d="M354.313556,278.324419 C355.381704,281.001169 355.905407,284.269294 355.920963,288.165106 L355.920963,324.155981 L336.497259,324.155981 L336.497259,291.614794 C336.497259,289.046981 335.973556,287.179481 334.905407,286.012294 C333.842444,284.845106 332.229852,284.269294 330.098741,284.284856 C328.076519,284.284856 326.318741,284.627231 324.804667,285.291231 C323.306148,285.960419 322.030593,286.894169 321.024667,288.076919 C319.992815,289.280419 319.204667,290.665481 318.649852,292.263231 C318.250593,293.342231 317.970593,294.488669 317.789111,295.728481 C317.618,296.952731 317.524667,298.244419 317.524667,299.587981 L317.524667,324.155981 L298.100963,324.155981 L298.100963,268.660106 L316.736519,268.660106 L316.736519,273.510419 C316.720963,274.464919 316.679481,275.253419 316.622444,275.917419 L316.513556,276.960106 L316.736519,276.960106 C317.410593,275.865544 318.271333,274.750231 319.318741,273.634919 C320.371333,272.524794 321.641704,271.502856 323.119481,270.548356 C324.612815,269.599044 326.355037,268.841669 328.340963,268.271044 C330.342444,267.674481 332.60837,267.389169 335.154296,267.368419 C338.089111,267.347669 340.821704,267.710794 343.326148,268.426669 C345.835778,269.132169 348.029111,270.299356 349.916519,271.912669 C351.803926,273.510419 353.266148,275.647669 354.313556,278.324419" id="Fill-14" fill="#003549"></path>
                <path d="M230.400593,270.333075 C228.565037,269.508263 226.413185,268.80795 223.924296,268.252888 C221.456148,267.677075 218.650963,267.386575 215.503556,267.371013 C211.350222,267.386575 207.575407,267.910513 204.184296,268.948013 C200.77763,269.995888 197.780593,271.4432 195.182815,273.295138 C192.600593,275.147075 190.412444,277.284325 188.654667,279.727638 C186.876148,282.17095 185.548741,284.811388 184.646519,287.6282 C183.733926,290.445013 183.282815,293.3552 183.282815,296.358763 C183.282815,299.424575 183.749481,302.407388 184.646519,305.2657 C185.564296,308.124013 186.891704,310.759263 188.670222,313.202575 C190.448741,315.645888 192.636889,317.783138 195.239852,319.614325 C197.842815,321.4507 200.834667,322.866888 204.220593,323.888825 C207.606519,324.910763 211.370963,325.4347 215.503556,325.450263 C218.744296,325.4347 221.663556,325.113075 224.302815,324.50095 C226.921333,323.888825 229.223556,323.136638 231.225037,322.21845 C233.226519,321.321013 234.890963,320.423575 236.239111,319.505388 C237.587259,318.613138 238.59837,317.855763 239.288,317.243638 C239.982815,316.6367 240.319852,316.309888 240.319852,316.294325 L233.247259,303.25295 C233.226519,303.2737 232.946519,303.507138 232.365778,303.953263 C231.805778,304.383825 231.01763,304.944075 230.006519,305.608075 C228.995407,306.272075 227.81837,306.915325 226.470222,307.584513 C225.142815,308.248513 223.701333,308.803575 222.166519,309.234138 C220.631704,309.680263 219.045037,309.918888 217.416889,309.93445 C214.979852,309.918888 212.848741,309.503888 211.033926,308.694638 C209.219111,307.906138 207.705037,306.847888 206.507259,305.499138 C205.309481,304.171138 204.407259,302.697888 203.826519,301.063825 C203.230222,299.445325 202.929481,297.811263 202.929481,296.140888 C202.929481,294.470513 203.209481,292.872763 203.790222,291.295763 C204.370963,289.729138 205.231704,288.31295 206.372444,287.052388 C207.533926,285.78145 208.975407,284.775075 210.696889,284.03845 C212.41837,283.281075 214.440593,282.907575 216.742815,282.886825 C218.744296,282.907575 220.574667,283.192888 222.223556,283.732388 C223.893185,284.251138 225.313926,284.878825 226.527259,285.579138 C227.725037,286.284638 228.663556,286.891575 229.316889,287.431075 C229.990963,287.970575 230.328,288.240325 230.328,288.276638 L238.520593,275.774763 C238.520593,275.7592 238.225037,275.453138 237.644296,274.892888 C237.042815,274.337825 236.145778,273.637513 234.948,272.8127 C233.750222,271.9827 232.236148,271.163075 230.400593,270.333075" id="Fill-16" fill="#003549"></path>
                <g id="Group-20" transform="translate(129.629630, 263.202856)">
                    <mask id="mask-4" fill="white">
                        <use xlink:href="#path-3"></use>
                    </mask>
                    <g id="Clip-19"></g>
                    <path d="M41.0075556,29.5443687 C42.9157037,30.5299937 44.6942222,31.7023687 46.2860741,33.0822438 C47.8934815,34.4673062 49.1845926,36.1169313 50.1594074,38.0207438 C51.1342222,39.9089938 51.6371852,42.1344312 51.6579259,44.6814938 C51.6579259,47.0729312 51.1134815,49.3191188 50.0453333,51.4356187 C48.9979259,53.5365562 47.4475556,55.4092437 45.4045926,57.0225562 C43.3823704,58.6410562 40.8986667,59.9171812 37.9794074,60.8301812 C35.0394074,61.7639312 31.7105185,62.2308062 27.9668148,62.2515562 C25.0631111,62.2308062 22.4082963,61.9454937 19.992,61.4059937 C17.5808889,60.8509312 15.4445926,60.1661813 13.5727407,59.3569312 C11.6853333,58.5476812 10.1142222,57.7436187 8.80237037,56.9343687 C7.51125926,56.1406812 6.52088889,55.4611187 5.84681481,54.9060562 C5.17274074,54.3665562 4.8357037,54.0760562 4.8357037,54.0604937 L13.1423704,41.5586187 C13.1631111,41.5949313 13.5416296,41.8802437 14.2675556,42.4404937 C15.0142222,42.9955562 16.0460741,43.6232438 17.3942222,44.3598687 C18.7216296,45.0964938 20.272,45.7293687 22.0505185,46.2844312 C23.829037,46.8394937 25.7579259,47.1248062 27.8527407,47.1611187 C28.8431111,47.1611187 29.7608889,47.0729312 30.6423704,46.8965563 C31.5031111,46.7149937 32.2134815,46.4452437 32.7371852,46.0717437 C33.2816296,45.6723062 33.5616296,45.1846812 33.5771852,44.5777437 C33.5616296,43.8929937 33.0534815,43.2704937 32.0838519,42.6946812 C31.109037,42.1344312 29.8179259,41.5586187 28.2105185,40.9672438 C26.6186667,40.3758687 24.8608889,39.7274312 22.932,38.9908062 C21.0031111,38.2749312 19.094963,37.4138062 17.1660741,36.4074313 C15.2579259,35.4010562 13.4794074,34.2131187 11.8927407,32.8124937 C10.2801481,31.4118687 8.98903704,29.7622437 8.01940741,27.8376812 C7.04459259,25.9183062 6.54162963,23.6513687 6.52088889,21.0835562 C6.54162963,18.4638688 7.15866667,16.1087437 8.35644444,14.0285562 C9.56977778,11.9431812 11.254963,10.1690563 13.4068148,8.71136875 C15.5794074,7.23811875 18.0838519,6.12280625 20.9668148,5.33430625 C23.8497778,4.56136875 26.9712593,4.16711875 30.3208889,4.16711875 C33.0171852,4.18268125 35.449037,4.40055625 37.6060741,4.83111875 C39.7734815,5.24611875 41.6608889,5.78043125 43.289037,6.41330625 C44.9171852,7.02024375 46.2860741,7.64793125 47.374963,8.28080625 C48.4586667,8.90849375 49.2779259,9.44799375 49.8223704,9.86299375 C50.3668148,10.2883687 50.6468148,10.5062437 50.6468148,10.5218062 L44.0253333,23.7810562 C44.0253333,23.7603062 43.6831111,23.5113062 43.0142222,23.0807437 C42.3557037,22.6294312 41.4223704,22.1106812 40.2038519,21.5141187 C38.9853333,20.9227437 37.549037,20.4039937 35.8794074,19.9526812 C34.1994074,19.5013687 32.3638519,19.2731187 30.3208889,19.2523687 C29.3357037,19.2523687 28.4127407,19.3457437 27.5364444,19.5221187 C26.6757037,19.7036812 25.9860741,19.9889937 25.4416296,20.3832437 C24.8971852,20.7826812 24.6171852,21.3014312 24.5964444,21.9498687 C24.6171852,22.5412437 25.1253333,23.0807437 26.094963,23.5839312 C27.0697778,24.1026812 28.3608889,24.6214312 29.9682963,25.1609313 C31.5601481,25.7004312 33.3386667,26.3281187 35.2468148,27.0284312 C37.1705185,27.7287437 39.0786667,28.5743062 41.0075556,29.5443687" id="Fill-18" fill="#003549" mask="url(#mask-4)"></path>
                </g>
                <path d="M686.263926,299.581238 C686.263926,301.625113 685.911333,303.674175 685.195778,305.702488 C684.485407,307.7308 683.453556,309.603488 682.146889,311.289425 C680.819481,312.98055 679.22763,314.324113 677.355778,315.351238 C675.504667,316.373175 673.409852,316.912675 671.10763,316.928238 C668.74837,316.912675 666.783185,316.482113 665.196519,315.652113 C663.620222,314.8273 662.422444,313.7483 661.634296,312.4203 C660.830593,311.107863 660.441704,309.691675 660.441704,308.202863 C660.457259,306.241988 661.001704,304.644238 662.049111,303.35255 C663.096519,302.076425 664.460222,301.07005 666.181704,300.312675 C667.88763,299.581238 669.775037,299.026175 671.818,298.66305 C673.855778,298.320675 675.898741,298.087238 677.920963,297.983488 C679.938,297.890113 681.794296,297.838238 683.453556,297.8538 L686.263926,297.8538 L686.263926,299.581238 Z M694.425407,277.902675 C692.683185,274.722738 690.137259,272.315738 686.803185,270.681675 C683.453556,269.047613 679.393556,268.2228 674.586889,268.2228 C671.983926,268.238363 669.572815,268.456238 667.379481,268.8868 C665.175778,269.317363 663.226148,269.856863 661.489111,270.5053 C659.76763,271.132988 658.284667,271.776238 657.092074,272.403925 C655.873556,273.052363 654.955778,273.571113 654.318,274.001675 C653.685407,274.437425 653.369111,274.665675 653.369111,274.686425 L657.854296,282.337988 C657.875037,282.301675 658.284667,282.031925 659.093556,281.513175 C659.912815,280.994425 661.038,280.377113 662.479481,279.69755 C663.936519,279.017988 665.606148,278.405863 667.514296,277.881925 C669.422444,277.363175 671.475778,277.077863 673.689852,277.057113 C676.106148,277.04155 678.258,277.41505 680.109111,278.172425 C681.975778,278.9298 683.453556,280.185175 684.526889,281.943738 C685.589852,283.7023 686.134296,286.057425 686.149852,289.019488 L686.149852,289.98955 L683.681704,289.98955 C682.053556,289.9688 680.109111,290.025863 677.822444,290.1348 C675.561704,290.23855 673.124667,290.471988 670.563185,290.850675 C668.001704,291.229363 665.476519,291.820738 662.982444,292.609238 C660.493556,293.418488 658.232815,294.497488 656.189852,295.88255 C654.152074,297.262425 652.523926,299.005425 651.305407,301.106363 C650.092074,303.2073 649.475037,305.754363 649.433556,308.737175 C649.454296,311.470988 650.014296,313.857238 651.082444,315.921863 C652.150593,317.991675 653.60763,319.729488 655.422444,321.11455 C657.258,322.515175 659.316519,323.557863 661.618741,324.273738 C663.900222,324.97405 666.280222,325.331988 668.74837,325.331988 C671.460222,325.300863 673.840222,324.942925 675.857259,324.221863 C677.879481,323.5008 679.600963,322.603363 681.021704,321.545113 C682.426889,320.486863 683.58837,319.407863 684.449111,318.349613 C685.330593,317.286175 685.942444,316.388738 686.357259,315.672863 C686.751333,314.9518 686.938,314.593863 686.938,314.55755 L687.160963,314.55755 L687.046889,315.7818 C686.995037,316.5703 686.953556,317.612988 686.938,318.868363 L686.938,324.154425 L697.043926,324.154425 L697.043926,289.558988 C697.023185,284.962863 696.162444,281.061863 694.425407,277.902675 L694.425407,277.902675 Z" id="Fill-21" fill="#003549"></path>
                <path d="M613.400667,305.596663 C612.50363,308.076288 611.269556,310.12535 609.734741,311.6816 C608.179185,313.263788 606.442148,314.430975 604.492519,315.1676 C602.548074,315.924975 600.510296,316.282913 598.379185,316.282913 C595.211037,316.26735 592.426593,315.4581 590.031037,313.855163 C587.614741,312.257413 585.742889,310.011225 584.379185,307.106225 C583.031037,304.19085 582.341407,300.74635 582.320667,296.777913 C582.341407,293.6706 582.766593,290.921225 583.611778,288.498663 C584.472519,286.091663 585.649556,284.0426 587.148074,282.372225 C588.646593,280.70185 590.38363,279.446475 592.36437,278.58535 C594.334741,277.703475 596.445111,277.272913 598.711037,277.272913 C601.407333,277.288475 603.766593,277.848725 605.768074,278.943288 C607.785111,280.022288 609.454741,281.495538 610.782148,283.326725 C612.109556,285.173475 613.120667,287.2381 613.774,289.54135 C614.432519,291.839413 614.769556,294.225663 614.769556,296.668975 C614.748815,300.134225 614.297704,303.117038 613.400667,305.596663 L613.400667,305.596663 Z M614.432519,248.077663 L614.432519,273.174788 C614.453259,274.222663 614.48437,275.09935 614.541407,275.778913 L614.655481,276.84235 L614.432519,276.84235 C614.432519,276.826788 614.245852,276.520725 613.867333,275.944913 C613.499185,275.3691 612.876963,274.648038 612.052519,273.807663 C611.212519,272.9621 610.128815,272.100975 608.759926,271.255413 C607.396222,270.40985 605.747333,269.693975 603.782148,269.118163 C601.822148,268.54235 599.535481,268.241475 596.916963,268.220725 C593.136963,268.241475 589.694,268.905475 586.546593,270.249038 C583.425111,271.577038 580.708074,273.5016 578.426593,275.996788 C576.12437,278.491975 574.366593,281.495538 573.111778,284.9971 C571.856963,288.498663 571.22437,292.430788 571.20363,296.777913 C571.22437,301.0161 571.805111,304.89635 572.961407,308.38235 C574.102148,311.863163 575.771778,314.866725 577.959926,317.393038 C580.127333,319.929725 582.766593,321.885413 585.836222,323.249725 C588.926593,324.619225 592.390296,325.31435 596.242889,325.3351 C599.048074,325.298788 601.485111,324.956413 603.574741,324.27685 C605.654,323.607663 607.416963,322.767288 608.874,321.760913 C610.315481,320.7701 611.471778,319.763725 612.374,318.7781 C613.250296,317.771725 613.888074,316.93135 614.297704,316.26735 C614.696963,315.5826 614.878444,315.240225 614.878444,315.203913 L615.106593,315.203913 L615.049556,316.22585 C615.013259,316.895038 614.992519,317.771725 614.992519,318.871475 L614.992519,324.15235 L625.321407,324.15235 L625.321407,248.077663 L614.432519,248.077663 Z" id="Fill-23" fill="#003549"></path>
                <path d="M524.811778,290.538387 C525.356222,287.555575 526.40363,285.024075 527.974741,282.95945 C529.530296,280.894825 531.474741,279.333388 533.776963,278.254388 C536.094741,277.175387 538.640667,276.635887 541.430296,276.635887 C543.898444,276.635887 546.128074,277.139075 548.145111,278.161012 C550.167333,279.172575 551.795481,280.713262 553.050296,282.762325 C554.305111,284.82695 554.994741,287.410325 555.129556,290.538387 L524.811778,290.538387 Z M564.654741,283.929512 C563.602148,280.858512 562.051778,278.14545 559.977704,275.811075 C557.898444,273.4767 555.331778,271.661075 552.267333,270.348637 C549.218444,269.025825 545.676963,268.356637 541.658444,268.341075 C537.593259,268.356637 533.834,269.025825 530.391037,270.369387 C526.948074,271.697387 523.951037,273.616762 521.389556,276.117138 C518.822889,278.612325 516.842148,281.6107 515.416222,285.11745 C514.000667,288.619012 513.26437,292.551137 513.248815,296.898262 C513.26437,300.954887 514.000667,304.7262 515.436963,308.175887 C516.878444,311.641138 518.936963,314.655075 521.591778,317.228075 C524.272519,319.81145 527.435481,321.8242 531.101407,323.261138 C534.788074,324.698075 538.868815,325.4347 543.338444,325.450263 C546.071037,325.4347 548.559926,325.16495 550.846593,324.6462 C553.122889,324.122263 555.165852,323.494575 556.965111,322.721638 C558.738444,321.9487 560.273259,321.196513 561.512519,320.423575 C562.762148,319.650638 563.716222,319.02295 564.354,318.5042 C565.007333,317.980262 565.34437,317.710512 565.34437,317.69495 L560.854,310.043387 C560.854,310.05895 560.574,310.276825 560.050296,310.707387 C559.505852,311.122388 558.738444,311.661888 557.748074,312.289575 C556.736963,312.917262 555.559926,313.529387 554.154741,314.157075 C552.770296,314.784762 551.214741,315.324263 549.514,315.734075 C547.813259,316.164638 545.977704,316.382513 544.012519,316.398075 C541.466593,316.398075 539.055481,316.024575 536.768815,315.2672 C534.487333,314.515013 532.470296,313.384138 530.671037,311.890138 C528.871778,310.385762 527.435481,308.513075 526.346593,306.251325 C525.262889,304.010325 524.625111,301.38545 524.479926,298.407825 L565.909556,298.407825 L566.002889,297.541513 C566.059926,297.0072 566.091037,296.374325 566.153259,295.674013 C566.205111,294.9737 566.246593,294.382325 566.246593,293.879138 C566.246593,290.320513 565.722889,287.016075 564.654741,283.929512 L564.654741,283.929512 Z" id="Fill-25" fill="#003549"></path>
                <mask id="mask-6" fill="white">
                    <use xlink:href="#path-5"></use>
                </mask>
                <g id="Clip-28"></g>
                <polygon id="Fill-27" fill="#003549" mask="url(#mask-6)" points="634.231111 324.150794 645.125185 324.150794 645.125185 269.510856 634.231111 269.510856"></polygon>
                <polygon id="Fill-29" fill="#003549" mask="url(#mask-6)" points="634.122222 258.632669 645.125185 258.632669 645.125185 248.102044 634.122222 248.102044"></polygon>
                <path d="M502.088741,248.080775 L508.487259,324.16065 L497.484296,324.16065 L493.553926,276.2074 C493.481333,275.019462 493.429481,273.77965 493.408741,272.503525 C493.367259,271.211838 493.367259,269.992775 493.367259,268.8619 C493.388,267.731025 493.408741,266.812838 493.408741,266.096963 L493.445037,264.997212 L493.222074,264.997212 C493.222074,265.017963 493.087259,265.412213 492.828,266.1644 C492.563556,266.901025 492.231704,267.855525 491.796148,269.022713 C491.386519,270.1899 490.919852,271.41415 490.432444,272.685088 C489.924296,273.961212 489.442074,275.1284 488.949481,276.2074 L473.124296,310.476025 L463.241333,310.476025 L447.525037,276.2074 C447.073926,275.14915 446.586519,273.981963 446.099111,272.685088 C445.611704,271.41415 445.145037,270.153587 444.714667,268.950087 C444.284296,267.76215 443.947259,266.776525 443.667259,265.988025 C443.408,265.215087 443.273185,264.800088 443.25763,264.784525 L443.029481,264.784525 C443.029481,264.800088 443.029481,265.178775 443.050222,265.9154 L443.050222,268.752962 C443.050222,269.92015 443.008741,271.159963 442.993185,272.4724 C442.956889,273.77965 442.884296,275.019462 442.806519,276.2074 L438.990222,324.16065 L427.873185,324.16065 L434.271704,248.080775 L445.948741,248.080775 L464.13837,289.243587 C464.589481,290.322587 465.056148,291.4379 465.507259,292.62065 C465.973926,293.787837 466.383556,294.90315 466.77763,295.945837 C467.171704,296.983338 467.472444,297.8289 467.716148,298.477337 C467.939111,299.120587 468.068741,299.462963 468.068741,299.483712 L468.291704,299.483712 C468.291704,299.462963 468.421333,299.120587 468.649481,298.477337 C468.893185,297.8289 469.193926,296.983338 469.582815,295.945837 C469.976889,294.90315 470.391704,293.787837 470.85837,292.62065 C471.304296,291.4379 471.776148,290.322587 472.222074,289.243587 L490.411704,248.080775 L502.088741,248.080775 Z" id="Fill-30" fill="#003549" mask="url(#mask-6)"></path>
            </g>
        </g>
    </g>
</svg>