<?xml version="1.0" encoding="utf-8"?>
<!-- Generator: Adobe Illustrator 25.2.0, SVG Export Plug-In . SVG Version: 6.00 Build 0)  -->
<svg version="1.1" id="Layer_1" xmlns="http://www.w3.org/2000/svg" xmlns:xlink="http://www.w3.org/1999/xlink" x="0px" y="0px"
	 viewBox="0 0 700 332" style="enable-background:new 0 0 700 332;" xml:space="preserve">
<style type="text/css">
	.st0{fill-rule:evenodd;clip-rule:evenodd;fill:#FFFFFF;}
	.st1{filter:url(#Adobe_OpacityMaskFilter);}
	.st2{mask:url(#mask-2_1_);fill-rule:evenodd;clip-rule:evenodd;fill:#FFFFFF;}
	.st3{filter:url(#Adobe_OpacityMaskFilter_1_);}
	.st4{mask:url(#mask-4_1_);fill-rule:evenodd;clip-rule:evenodd;fill:#FFFFFF;}
	.st5{filter:url(#Adobe_OpacityMaskFilter_2_);}
	.st6{mask:url(#mask-6_1_);fill-rule:evenodd;clip-rule:evenodd;fill:#FFFFFF;}
	.st7{filter:url(#Adobe_OpacityMaskFilter_3_);}
	.st8{mask:url(#mask-6_2_);fill-rule:evenodd;clip-rule:evenodd;fill:#FFFFFF;}
	.st9{filter:url(#Adobe_OpacityMaskFilter_4_);}
	.st10{mask:url(#mask-6_3_);fill-rule:evenodd;clip-rule:evenodd;fill:#FFFFFF;}
</style>
<g id="ADSCEND-001">
	<g id="Website-New" transform="translate(-370.000000, -466.000000)">
		<g id="AdscendMedia" transform="translate(370.000000, 466.000000)">
			<path id="Fill-1" class="st0" d="M423,159.3l-5.1-13c41-38.8,17.3-116.8-45.2-114.2l-2.9-7.3C444.9,18.2,487.1,103.1,423,159.3
				L423,159.3z M474,54.2C440.9,1.6,371.6,2.5,319.3,19.1c-65.5,20.8-142.8,86.2-111.6,163.2l-6.3,11.1
				C161.5,93.4,270.4,15,360.8,2.3c45.8-7,101.4,0.9,129.2,42.5c35.8,53.7-2.2,124.1-50.9,155.1l-5.9-14.8
				C472.1,154.8,503.1,100.2,474,54.2L474,54.2z M406.8,118.4c16.8-23.4,3.2-61.6-26.2-66.1l9.1,22.9c5,3,8.2,9.9,7.2,18.1
				L406.8,118.4z"/>
			<path id="Fill-3" class="st0" d="M315.7,138.4l9.9-32.4c0.6-2.1,1.3-4.5,1.9-7c0.6-2.6,1.3-5.1,1.9-7.6c0.6-2.6,1.1-4.9,1.6-7
				c0.5-2.1,0.9-3.8,1.1-5.1l0.4-2h0.5l0.5,2c0.3,1.3,0.6,3,1.1,5.1l1.6,7c0.6,2.5,1.3,5,1.9,7.6c0.6,2.5,1.3,4.9,1.9,7l9.7,32.4
				H315.7z M355.2,39.5h-44.6l-58.9,166.4h43.6l10.4-34.9h54.1l10.7,34.9h43.6L355.2,39.5z"/>
			<path id="Fill-5" class="st0" d="M399.8,302.5c-0.6,1.7-1.5,3.2-2.5,4.3c-1.1,1.1-2.3,1.9-3.6,2.5c-1.3,0.5-2.8,0.8-4.2,0.8
				c-2.3,0-4.2-0.6-5.9-1.7c-1.7-1.1-3-2.7-4-4.7c-1-2-1.4-4.5-1.4-7.2c0-2.8,0.6-5.2,1.6-7.2c1-2,2.4-3.5,4.1-4.5s3.6-1.5,5.6-1.5
				c1.9,0,3.6,0.4,5,1.1c1.4,0.7,2.6,1.7,3.5,3c0.9,1.3,1.6,2.7,2.1,4.3c0.5,1.6,0.7,3.2,0.7,4.9
				C400.8,298.7,400.4,300.8,399.8,302.5L399.8,302.5z M400.2,248.1v21.2c0,0.7,0,1.3,0.1,1.8l0.1,0.7h-0.2c0,0-0.2-0.3-0.7-0.7
				c-0.5-0.4-1.3-0.9-2.5-1.5c-1.1-0.6-2.7-1.1-4.7-1.5c-2-0.4-4.4-0.7-7.3-0.7c-3.9,0-7.4,0.7-10.6,2.1c-3.2,1.3-6,3.3-8.3,5.8
				c-2.4,2.6-4.2,5.6-5.5,9.1c-1.3,3.6-1.9,7.5-2,11.9c0,4.3,0.6,8.3,1.9,11.8c1.2,3.6,3,6.6,5.3,9.2s5,4.6,8.2,6
				c3.2,1.4,6.8,2.1,10.7,2.1c2.4,0,4.5-0.3,6.3-0.8c1.8-0.5,3.4-1.2,4.7-2c1.3-0.8,2.4-1.6,3.2-2.4c0.8-0.8,1.5-1.5,1.9-2
				c0.4-0.5,0.6-0.8,0.6-0.8h0.2l-0.1,0.9c0,0.6-0.1,1.3-0.1,2.2v3.7h18.2v-76.1H400.2z"/>
			<path id="Fill-7" class="st0" d="M258.3,289.4c0.3-1.4,0.9-2.7,1.6-3.9c0.7-1.2,1.7-2.2,3-2.9c1.3-0.7,2.8-1.1,4.7-1.2
				c1.6,0,2.9,0.4,4,1.1c1.1,0.7,2,1.7,2.7,2.9c0.6,1.2,1,2.5,1,3.9H258.3z M293,283.5c-1.2-3.3-2.9-6.1-5.2-8.5
				c-2.3-2.4-5.1-4.3-8.4-5.6c-3.3-1.3-7.1-2-11.4-2c-4.7,0-8.9,0.8-12.6,2.2c-3.7,1.5-6.9,3.5-9.5,6.1c-2.6,2.6-4.6,5.7-6,9.2
				c-1.4,3.5-2.1,7.3-2.1,11.4c0,3,0.4,5.9,1.3,8.7c0.9,2.8,2.2,5.5,3.9,7.9c1.7,2.5,3.9,4.6,6.4,6.5c2.6,1.9,5.5,3.3,8.9,4.4
				c3.3,1.1,7.1,1.6,11.2,1.6c3.1,0,5.9-0.3,8.5-0.8c2.6-0.5,4.9-1.2,6.9-2c2-0.8,3.7-1.6,5.1-2.4c1.4-0.8,2.5-1.5,3.2-2
				c0.7-0.5,1.1-0.8,1.1-0.8l-7.2-13c0,0-0.5,0.3-1.3,0.9c-0.9,0.6-2,1.2-3.5,1.9c-1.5,0.7-3.2,1.4-5.1,1.9c-1.9,0.6-3.9,0.8-6,0.9
				c-2.1,0-4.1-0.3-5.9-1.1c-1.9-0.7-3.5-1.8-4.8-3.3c-1.3-1.5-2.3-3.3-2.8-5.6h36.5c0,0,0-0.2,0.1-0.6l0.2-1.6
				c0.1-0.6,0.1-1.3,0.2-1.9c0.1-0.6,0.1-1.2,0.1-1.7C294.8,290.3,294.2,286.8,293,283.5L293,283.5z"/>
			<path id="Fill-9" class="st0" d="M112,302.5c-0.6,1.7-1.5,3.2-2.5,4.3c-1.1,1.1-2.3,1.9-3.6,2.5c-1.3,0.5-2.7,0.8-4.2,0.8
				c-2.3,0-4.2-0.6-5.9-1.7c-1.7-1.1-3-2.7-4-4.7c-1-2-1.4-4.5-1.4-7.2c0-2.8,0.6-5.2,1.6-7.2c1-2,2.4-3.5,4.1-4.5
				c1.7-1,3.6-1.5,5.6-1.5c1.9,0,3.6,0.4,5,1.1c1.4,0.7,2.6,1.7,3.5,3c0.9,1.3,1.6,2.7,2.1,4.3c0.5,1.6,0.7,3.2,0.7,4.9
				C113,298.7,112.7,300.8,112,302.5L112,302.5z M112.4,248.1v21.2c0,0.7,0,1.3,0.1,1.8l0.1,0.7h-0.2c0,0-0.2-0.3-0.7-0.7
				c-0.5-0.4-1.3-0.9-2.5-1.5c-1.1-0.6-2.7-1.1-4.7-1.5c-2-0.4-4.4-0.7-7.3-0.7c-3.9,0-7.4,0.7-10.6,2.1c-3.2,1.3-6,3.3-8.3,5.8
				c-2.4,2.6-4.2,5.6-5.5,9.1c-1.3,3.6-1.9,7.5-2,11.9c0,4.3,0.6,8.3,1.9,11.8c1.2,3.6,3,6.6,5.3,9.2s5,4.6,8.2,6
				c3.2,1.4,6.8,2.1,10.7,2.1c2.4,0,4.5-0.3,6.3-0.8c1.8-0.5,3.4-1.2,4.7-2c1.3-0.8,2.4-1.6,3.2-2.4c0.8-0.8,1.5-1.5,1.9-2
				c0.4-0.5,0.6-0.8,0.6-0.8h0.2l-0.1,0.9c0,0.6-0.1,1.3-0.1,2.2v3.7h18.2v-76.1H112.4z"/>
			<g id="Group-13" transform="translate(0.000000, 247.640356)">
				<g id="Clip-12">
				</g>
				<defs>
					<filter id="Adobe_OpacityMaskFilter" filterUnits="userSpaceOnUse" x="0" y="0.4" width="75.2" height="76.1">
						<feColorMatrix  type="matrix" values="1 0 0 0 0  0 1 0 0 0  0 0 1 0 0  0 0 0 1 0"/>
					</filter>
				</defs>
				<mask maskUnits="userSpaceOnUse" x="0" y="0.4" width="75.2" height="76.1" id="mask-2_1_">
					<g class="st1">
						<polygon id="path-1_1_" class="st0" points="0,0.4 75.2,0.4 75.2,76.5 0,76.5 						"/>
					</g>
				</mask>
				<path id="Fill-11" class="st2" d="M29.6,45.3l4.6-15c0.3-1,0.6-2.1,0.9-3.2c0.3-1.2,0.6-2.3,0.9-3.5c0.3-1.2,0.5-2.3,0.8-3.2
					c0.2-1,0.4-1.8,0.5-2.4l0.2-0.9h0.2l0.2,0.9c0.1,0.6,0.3,1.4,0.5,2.4l0.7,3.2c0.3,1.2,0.6,2.3,0.9,3.5c0.3,1.2,0.6,2.2,0.9,3.2
					l4.5,15H29.6z M48.3,0.4H26.9L0,76.5h20.2L25,60.4h25L55,76.5h20.2L48.3,0.4z"/>
			</g>
			<path id="Fill-14" class="st0" d="M354.3,278.3c1.1,2.7,1.6,5.9,1.6,9.8v36h-19.4v-32.5c0-2.6-0.5-4.4-1.6-5.6
				c-1.1-1.2-2.7-1.7-4.8-1.7c-2,0-3.8,0.3-5.3,1c-1.5,0.7-2.8,1.6-3.8,2.8c-1,1.2-1.8,2.6-2.4,4.2c-0.4,1.1-0.7,2.2-0.9,3.5
				c-0.2,1.2-0.3,2.5-0.3,3.9v24.6h-19.4v-55.5h18.6v4.9c0,1-0.1,1.7-0.1,2.4l-0.1,1h0.2c0.7-1.1,1.5-2.2,2.6-3.3
				c1.1-1.1,2.3-2.1,3.8-3.1c1.5-0.9,3.2-1.7,5.2-2.3c2-0.6,4.3-0.9,6.8-0.9c2.9,0,5.7,0.3,8.2,1.1c2.5,0.7,4.7,1.9,6.6,3.5
				C351.8,273.5,353.3,275.6,354.3,278.3"/>
			<path id="Fill-16" class="st0" d="M230.4,270.3c-1.8-0.8-4-1.5-6.5-2.1c-2.5-0.6-5.3-0.9-8.4-0.9c-4.2,0-7.9,0.5-11.3,1.6
				c-3.4,1-6.4,2.5-9,4.3c-2.6,1.9-4.8,4-6.5,6.4c-1.8,2.4-3.1,5.1-4,7.9c-0.9,2.8-1.4,5.7-1.4,8.7c0,3.1,0.5,6,1.4,8.9
				c0.9,2.9,2.2,5.5,4,7.9s4,4.6,6.6,6.4c2.6,1.8,5.6,3.3,9,4.3s7.2,1.5,11.3,1.6c3.2,0,6.2-0.3,8.8-0.9c2.6-0.6,4.9-1.4,6.9-2.3
				c2-0.9,3.7-1.8,5-2.7c1.3-0.9,2.4-1.6,3-2.3c0.7-0.6,1-0.9,1-0.9l-7.1-13c0,0-0.3,0.3-0.9,0.7c-0.6,0.4-1.3,1-2.4,1.7
				s-2.2,1.3-3.5,2c-1.3,0.7-2.8,1.2-4.3,1.6c-1.5,0.4-3.1,0.7-4.7,0.7c-2.4,0-4.6-0.4-6.4-1.2c-1.8-0.8-3.3-1.8-4.5-3.2
				c-1.2-1.3-2.1-2.8-2.7-4.4c-0.6-1.6-0.9-3.3-0.9-4.9c0-1.7,0.3-3.3,0.9-4.8c0.6-1.6,1.4-3,2.6-4.2c1.2-1.3,2.6-2.3,4.3-3
				c1.7-0.8,3.7-1.1,6-1.2c2,0,3.8,0.3,5.5,0.8c1.7,0.5,3.1,1.1,4.3,1.8c1.2,0.7,2.1,1.3,2.8,1.9c0.7,0.5,1,0.8,1,0.8l8.2-12.5
				c0,0-0.3-0.3-0.9-0.9c-0.6-0.6-1.5-1.3-2.7-2.1C233.8,272,232.2,271.2,230.4,270.3"/>
			<g id="Group-20" transform="translate(129.629630, 263.202856)">
				<g id="Clip-19">
				</g>
				<defs>
					<filter id="Adobe_OpacityMaskFilter_1_" filterUnits="userSpaceOnUse" x="4.8" y="4.2" width="46.8" height="58.1">
						<feColorMatrix  type="matrix" values="1 0 0 0 0  0 1 0 0 0  0 0 1 0 0  0 0 0 1 0"/>
					</filter>
				</defs>
				<mask maskUnits="userSpaceOnUse" x="4.8" y="4.2" width="46.8" height="58.1" id="mask-4_1_">
					<g class="st3">
						<polygon id="path-3_1_" class="st0" points="4.8,4.2 51.7,4.2 51.7,62.2 4.8,62.2 						"/>
					</g>
				</mask>
				<path id="Fill-18" class="st4" d="M41,29.5c1.9,1,3.7,2.2,5.3,3.5c1.6,1.4,2.9,3,3.9,4.9c1,1.9,1.5,4.1,1.5,6.7
					c0,2.4-0.5,4.6-1.6,6.8c-1,2.1-2.6,4-4.6,5.6c-2,1.6-4.5,2.9-7.4,3.8c-2.9,0.9-6.3,1.4-10,1.4c-2.9,0-5.6-0.3-8-0.8
					c-2.4-0.6-4.5-1.2-6.4-2c-1.9-0.8-3.5-1.6-4.8-2.4c-1.3-0.8-2.3-1.5-3-2c-0.7-0.5-1-0.8-1-0.8l8.3-12.5c0,0,0.4,0.3,1.1,0.9
					c0.7,0.6,1.8,1.2,3.1,1.9c1.3,0.7,2.9,1.4,4.7,1.9s3.7,0.8,5.8,0.9c1,0,1.9-0.1,2.8-0.3c0.9-0.2,1.6-0.5,2.1-0.8
					c0.5-0.4,0.8-0.9,0.8-1.5c0-0.7-0.5-1.3-1.5-1.9c-1-0.6-2.3-1.1-3.9-1.7c-1.6-0.6-3.3-1.2-5.3-2c-1.9-0.7-3.8-1.6-5.8-2.6
					c-1.9-1-3.7-2.2-5.3-3.6c-1.6-1.4-2.9-3.1-3.9-5c-1-1.9-1.5-4.2-1.5-6.8c0-2.6,0.6-5,1.8-7.1c1.2-2.1,2.9-3.9,5.1-5.3
					c2.2-1.5,4.7-2.6,7.6-3.4c2.9-0.8,6-1.2,9.4-1.2c2.7,0,5.1,0.2,7.3,0.7c2.2,0.4,4.1,0.9,5.7,1.6c1.6,0.6,3,1.2,4.1,1.9
					c1.1,0.6,1.9,1.2,2.4,1.6c0.5,0.4,0.8,0.6,0.8,0.7L44,23.8c0,0-0.3-0.3-1-0.7c-0.7-0.5-1.6-1-2.8-1.6c-1.2-0.6-2.7-1.1-4.3-1.6
					c-1.7-0.5-3.5-0.7-5.6-0.7c-1,0-1.9,0.1-2.8,0.3c-0.9,0.2-1.6,0.5-2.1,0.9c-0.5,0.4-0.8,0.9-0.8,1.6c0,0.6,0.5,1.1,1.5,1.6
					c1,0.5,2.3,1,3.9,1.6c1.6,0.5,3.4,1.2,5.3,1.9C37.2,27.7,39.1,28.6,41,29.5"/>
			</g>
			<path id="Fill-21" class="st0" d="M686.3,299.6c0,2-0.4,4.1-1.1,6.1c-0.7,2-1.7,3.9-3,5.6c-1.3,1.7-2.9,3-4.8,4.1
				c-1.9,1-3.9,1.6-6.2,1.6c-2.4,0-4.3-0.4-5.9-1.3c-1.6-0.8-2.8-1.9-3.6-3.2c-0.8-1.3-1.2-2.7-1.2-4.2c0-2,0.6-3.6,1.6-4.9
				c1-1.3,2.4-2.3,4.1-3c1.7-0.7,3.6-1.3,5.6-1.6c2-0.3,4.1-0.6,6.1-0.7c2-0.1,3.9-0.1,5.5-0.1h2.8V299.6z M694.4,277.9
				c-1.7-3.2-4.3-5.6-7.6-7.2c-3.3-1.6-7.4-2.5-12.2-2.5c-2.6,0-5,0.2-7.2,0.7c-2.2,0.4-4.2,1-5.9,1.6c-1.7,0.6-3.2,1.3-4.4,1.9
				c-1.2,0.6-2.1,1.2-2.8,1.6c-0.6,0.4-0.9,0.7-0.9,0.7l4.5,7.7c0,0,0.4-0.3,1.2-0.8c0.8-0.5,1.9-1.1,3.4-1.8c1.5-0.7,3.1-1.3,5-1.8
				c1.9-0.5,4-0.8,6.2-0.8c2.4,0,4.6,0.4,6.4,1.1c1.9,0.8,3.3,2,4.4,3.8c1.1,1.8,1.6,4.1,1.6,7.1v1h-2.5c-1.6,0-3.6,0-5.9,0.1
				c-2.3,0.1-4.7,0.3-7.3,0.7c-2.6,0.4-5.1,1-7.6,1.8c-2.5,0.8-4.7,1.9-6.8,3.3c-2,1.4-3.7,3.1-4.9,5.2c-1.2,2.1-1.8,4.6-1.9,7.6
				c0,2.7,0.6,5.1,1.6,7.2c1.1,2.1,2.5,3.8,4.3,5.2c1.8,1.4,3.9,2.4,6.2,3.2c2.3,0.7,4.7,1.1,7.1,1.1c2.7,0,5.1-0.4,7.1-1.1
				c2-0.7,3.7-1.6,5.2-2.7c1.4-1.1,2.6-2.1,3.4-3.2c0.9-1.1,1.5-2,1.9-2.7c0.4-0.7,0.6-1.1,0.6-1.1h0.2l-0.1,1.2
				c-0.1,0.8-0.1,1.8-0.1,3.1v5.3H697v-34.6C697,285,696.2,281.1,694.4,277.9L694.4,277.9z"/>
			<path id="Fill-23" class="st0" d="M613.4,305.6c-0.9,2.5-2.1,4.5-3.7,6.1c-1.6,1.6-3.3,2.7-5.2,3.5c-1.9,0.8-4,1.1-6.1,1.1
				c-3.2,0-6-0.8-8.3-2.4c-2.4-1.6-4.3-3.8-5.7-6.7c-1.3-2.9-2-6.4-2.1-10.3c0-3.1,0.4-5.9,1.3-8.3c0.9-2.4,2-4.5,3.5-6.1
				s3.2-2.9,5.2-3.8c2-0.9,4.1-1.3,6.3-1.3c2.7,0,5.1,0.6,7.1,1.7c2,1.1,3.7,2.6,5,4.4c1.3,1.8,2.3,3.9,3,6.2c0.7,2.3,1,4.7,1,7.1
				C614.7,300.1,614.3,303.1,613.4,305.6L613.4,305.6z M614.4,248.1v25.1c0,1,0.1,1.9,0.1,2.6l0.1,1.1h-0.2c0,0-0.2-0.3-0.6-0.9
				c-0.4-0.6-1-1.3-1.8-2.1c-0.8-0.8-1.9-1.7-3.3-2.6c-1.4-0.8-3-1.6-5-2.1c-2-0.6-4.2-0.9-6.9-0.9c-3.8,0-7.2,0.7-10.4,2
				c-3.1,1.3-5.8,3.3-8.1,5.7c-2.3,2.5-4.1,5.5-5.3,9s-1.9,7.4-1.9,11.8c0,4.2,0.6,8.1,1.8,11.6c1.1,3.5,2.8,6.5,5,9
				c2.2,2.5,4.8,4.5,7.9,5.9c3.1,1.4,6.6,2.1,10.4,2.1c2.8,0,5.2-0.4,7.3-1.1c2.1-0.7,3.8-1.5,5.3-2.5c1.4-1,2.6-2,3.5-3
				c0.9-1,1.5-1.8,1.9-2.5c0.4-0.7,0.6-1,0.6-1.1h0.2l-0.1,1c0,0.7-0.1,1.5-0.1,2.6v5.3h10.3v-76.1H614.4z"/>
			<path id="Fill-25" class="st0" d="M524.8,290.5c0.5-3,1.6-5.5,3.2-7.6c1.6-2.1,3.5-3.6,5.8-4.7c2.3-1.1,4.9-1.6,7.7-1.6
				c2.5,0,4.7,0.5,6.7,1.5c2,1,3.7,2.6,4.9,4.6c1.3,2.1,1.9,4.6,2.1,7.8H524.8z M564.7,283.9c-1.1-3.1-2.6-5.8-4.7-8.1
				c-2.1-2.3-4.6-4.1-7.7-5.5c-3-1.3-6.6-2-10.6-2c-4.1,0-7.8,0.7-11.3,2c-3.4,1.3-6.4,3.2-9,5.7c-2.6,2.5-4.5,5.5-6,9
				c-1.4,3.5-2.2,7.4-2.2,11.8c0,4.1,0.8,7.8,2.2,11.3c1.4,3.5,3.5,6.5,6.2,9.1c2.7,2.6,5.8,4.6,9.5,6c3.7,1.4,7.8,2.2,12.2,2.2
				c2.7,0,5.2-0.3,7.5-0.8c2.3-0.5,4.3-1.2,6.1-1.9c1.8-0.8,3.3-1.5,4.5-2.3c1.2-0.8,2.2-1.4,2.8-1.9c0.7-0.5,1-0.8,1-0.8l-4.5-7.7
				c0,0-0.3,0.2-0.8,0.7c-0.5,0.4-1.3,1-2.3,1.6c-1,0.6-2.2,1.2-3.6,1.9c-1.4,0.6-2.9,1.2-4.6,1.6c-1.7,0.4-3.5,0.6-5.5,0.7
				c-2.5,0-5-0.4-7.2-1.1c-2.3-0.8-4.3-1.9-6.1-3.4c-1.8-1.5-3.2-3.4-4.3-5.6c-1.1-2.2-1.7-4.9-1.9-7.8h41.4l0.1-0.9
				c0.1-0.5,0.1-1.2,0.2-1.9c0.1-0.7,0.1-1.3,0.1-1.8C566.2,290.3,565.7,287,564.7,283.9L564.7,283.9z"/>
			<g id="Clip-28">
			</g>
			<defs>
				<filter id="Adobe_OpacityMaskFilter_2_" filterUnits="userSpaceOnUse" x="634.2" y="269.5" width="10.9" height="54.6">
					<feColorMatrix  type="matrix" values="1 0 0 0 0  0 1 0 0 0  0 0 1 0 0  0 0 0 1 0"/>
				</filter>
			</defs>
			<mask maskUnits="userSpaceOnUse" x="634.2" y="269.5" width="10.9" height="54.6" id="mask-6_1_">
				<g class="st5">
					<polygon id="path-5_1_" class="st0" points="0,325.5 697,325.5 697,0 0,0 					"/>
				</g>
			</mask>
			<polygon id="Fill-27" class="st6" points="634.2,324.2 645.1,324.2 645.1,269.5 634.2,269.5 			"/>
			<defs>
				<filter id="Adobe_OpacityMaskFilter_3_" filterUnits="userSpaceOnUse" x="634.1" y="248.1" width="11" height="10.5">
					<feColorMatrix  type="matrix" values="1 0 0 0 0  0 1 0 0 0  0 0 1 0 0  0 0 0 1 0"/>
				</filter>
			</defs>
			<mask maskUnits="userSpaceOnUse" x="634.1" y="248.1" width="11" height="10.5" id="mask-6_2_">
				<g class="st7">
					<polygon id="path-5_2_" class="st0" points="0,325.5 697,325.5 697,0 0,0 					"/>
				</g>
			</mask>
			<polygon id="Fill-29" class="st8" points="634.1,258.6 645.1,258.6 645.1,248.1 634.1,248.1 			"/>
			<defs>
				<filter id="Adobe_OpacityMaskFilter_4_" filterUnits="userSpaceOnUse" x="427.9" y="248.1" width="80.6" height="76.1">
					<feColorMatrix  type="matrix" values="1 0 0 0 0  0 1 0 0 0  0 0 1 0 0  0 0 0 1 0"/>
				</filter>
			</defs>
			<mask maskUnits="userSpaceOnUse" x="427.9" y="248.1" width="80.6" height="76.1" id="mask-6_3_">
				<g class="st9">
					<polygon id="path-5_3_" class="st0" points="0,325.5 697,325.5 697,0 0,0 					"/>
				</g>
			</mask>
			<path id="Fill-30" class="st10" d="M502.1,248.1l6.4,76.1h-11l-3.9-48c-0.1-1.2-0.1-2.4-0.1-3.7c0-1.3,0-2.5,0-3.6
				c0-1.1,0-2,0-2.8l0-1.1h-0.2c0,0-0.1,0.4-0.4,1.2c-0.3,0.7-0.6,1.7-1,2.9c-0.4,1.2-0.9,2.4-1.4,3.7c-0.5,1.3-1,2.4-1.5,3.5
				l-15.8,34.3h-9.9l-15.7-34.3c-0.5-1.1-0.9-2.2-1.4-3.5c-0.5-1.3-1-2.5-1.4-3.7c-0.4-1.2-0.8-2.2-1-3c-0.3-0.8-0.4-1.2-0.4-1.2
				H443c0,0,0,0.4,0,1.1v2.8c0,1.2,0,2.4-0.1,3.7c0,1.3-0.1,2.5-0.2,3.7l-3.8,48h-11.1l6.4-76.1h11.7l18.2,41.2
				c0.5,1.1,0.9,2.2,1.4,3.4c0.5,1.2,0.9,2.3,1.3,3.3c0.4,1,0.7,1.9,0.9,2.5c0.2,0.6,0.4,1,0.4,1h0.2c0,0,0.1-0.4,0.4-1
				c0.2-0.6,0.5-1.5,0.9-2.5c0.4-1,0.8-2.2,1.3-3.3c0.4-1.2,0.9-2.3,1.4-3.4l18.2-41.2H502.1z"/>
		</g>
	</g>
</g>
</svg>
