<svg width="236" height="307" viewBox="0 0 236 307" fill="none" xmlns="http://www.w3.org/2000/svg">
<g clip-path="url(#clip0_2371_94)">
<path d="M149.44 284.81C149.44 284.81 146.44 291.48 140.77 293.48C125.91 298.72 118.44 293.15 118.44 293.15C118.44 293.15 112.44 301.48 103.77 302.82C95.1 304.16 83.1 301.82 78.77 298.82C74.44 295.82 75.44 295.49 74.44 295.82C73.44 296.15 61.77 300.82 50.44 292.49C39.11 284.16 35.11 274.49 36.11 263.16C37.11 251.83 39.78 239.49 39.78 239.49C39.78 239.49 21.78 237.82 15.45 228.16C9.12 218.5 12.45 205.49 13.45 202.83C14.45 200.17 14.78 199.5 14.78 199.5C14.78 199.5 1.11 175.5 4.11 140.17C7.11 104.84 29.11 55.81 44.11 36.48C59.11 17.15 92.11 6.81004 105.44 3.81004C118.77 0.810045 160.11 8.14004 181.77 26.81C203.43 45.48 221.77 79.81 226.77 108.48C231.77 137.15 233.77 167.81 231.44 185.15C229.11 202.49 225.77 217.82 214.11 228.48C202.45 239.14 180.44 244.81 180.44 244.81C180.44 244.81 185.44 254.48 181.77 264.14C178.1 273.8 181.77 279.47 170.1 281.81C158.43 284.15 149.43 284.81 149.43 284.81H149.44Z" fill="#F9F9F9"/>
<path d="M203.11 181.48C203.11 181.48 209.94 183.31 213.61 194.81C217.28 206.31 216.28 218.48 215.44 224.31C214.6 230.14 204.61 238.98 193.44 241.64C182.27 244.3 180.94 246.81 180.44 244.81C179.94 242.81 172.44 230.64 172.44 230.64C172.44 230.64 189.77 229.97 196.11 221.81C202.45 213.65 203.44 197.81 203.11 190.48C202.78 183.15 203.11 181.48 203.11 181.48Z" fill="#8590A2"/>
<path d="M131.89 248.7C131.89 248.7 127.89 251.48 129.33 262.59C130.77 273.7 136.11 282.37 137.66 283.81C139.21 285.25 135.55 291.48 130.1 292.03C124.65 292.58 137.21 295.59 142.1 292.92C146.99 290.25 148.99 286.25 148.99 286.25C148.99 286.25 139.66 272.69 137.43 265.25C135.2 257.81 131.87 248.69 131.87 248.69L131.89 248.7Z" fill="#8590A2"/>
<path d="M103.44 247.7C103.44 247.7 97.66 247.48 95.88 257.26C94.1 267.04 95.88 285.04 98.99 288.7C102.1 292.36 91.32 298.7 84.88 298.48C78.44 298.26 92.1 304.37 100.1 303.26C108.1 302.15 112.43 301.04 114.43 297.59C116.43 294.14 117.32 292.37 116.65 292.15C115.98 291.93 105.98 286.48 104.43 277.04C102.88 267.6 103.65 252.15 103.65 251.48C103.65 250.81 103.43 247.7 103.43 247.7H103.44Z" fill="#8590A2"/>
<path d="M71.89 244.93C71.89 244.93 67.78 243.15 64.89 251.49C62 259.83 58.78 269.27 59.56 277.82C60.34 286.37 54.89 288.71 47 285.49C39.11 282.27 49.22 295.27 59.11 295.82C69 296.37 71.55 293.38 71.55 293.38C71.55 293.38 68.55 282.6 69.33 266.16C70.11 249.72 71.89 244.94 71.89 244.94V244.93Z" fill="#8590A2"/>
<path d="M44.11 227.26C44.11 227.26 38.44 225.15 33.67 228.48C28.9 231.81 29.56 235.81 29.56 235.81C29.56 235.81 37.12 239.25 37.45 239.14C37.78 239.03 42.01 233.14 42.12 232.58C42.23 232.02 44.12 227.25 44.12 227.25L44.11 227.26Z" fill="#8590A2"/>
<path d="M84.86 223.9C84.86 223.9 85.61 227.4 91.61 226.73C97.61 226.06 100.03 220.31 103.94 219.31C107.85 218.31 108.86 218.14 112.94 220.23C117.02 222.32 112.44 211.56 106.27 208.23C100.1 204.9 99.44 209.31 93.77 215.98C88.1 222.65 84.85 223.9 84.85 223.9H84.86Z" fill="#8590A2"/>
<path d="M120.72 197.78C120.72 197.78 132.75 205.8 140.91 206.85C149.07 207.9 174.3 195.81 182.33 174.84L190.36 153.87C190.36 153.87 188.51 173.68 183.67 185.14C178.83 196.6 171.81 205.28 157.71 211.11C149.25 214.61 125.53 209.87 120.72 197.77V197.78Z" fill="#8590A2"/>
<path d="M91.67 194.26C91.67 194.26 78.89 209.04 66 209.82C53.11 210.6 36.78 196.82 31.56 189.15C31.56 189.15 34.67 209.48 53.45 213.93C72.23 218.38 83.34 212.71 91.67 194.26Z" fill="#8590A2"/>
<path d="M105.94 197.15C105.94 197.15 117.77 210.98 120.27 214.65C122.77 218.32 124.6 220.32 123.27 221.98C121.94 223.64 115.77 222.48 111.94 219.65C108.11 216.82 104.61 214.65 102.27 215.48C99.93 216.31 92.77 224.31 89.44 224.98C86.11 225.65 83.27 225.48 86.27 219.65C89.27 213.82 95.27 199.98 96.77 197.48C98.27 194.98 103.27 192.65 105.94 197.15Z" fill="#231F20"/>
<path d="M65.56 298.94C59.14 298.94 52.71 297.05 47.19 293.45C39.6 288.49 34.5 280.96 32.82 272.25C30.07 257.98 37.46 236.77 40.43 229.08C41.04 227.49 42.84 226.74 44.41 227.4C45.9 228.03 46.62 229.73 46.04 231.25C43.27 238.47 36.29 258.51 38.72 271.12C40.09 278.23 44.27 284.38 50.48 288.44C56.69 292.5 64.3 293.91 71.35 292.31L72.68 298.16C70.34 298.69 67.95 298.95 65.57 298.95L65.56 298.94Z" fill="#231F20"/>
<path d="M97.13 306.31C96.01 306.31 94.85 306.26 93.63 306.17C70.16 304.27 66.54 290.77 66 279.21C65.56 269.72 67.61 254.05 68.56 247.49C68.8 245.83 70.34 244.7 72 244.96C73.62 245.22 74.74 246.72 74.5 248.35C73.59 254.73 71.58 270.05 71.99 278.94C72.53 290.67 76.5 298.78 94.11 300.2C111.6 301.61 115.01 290.65 115.15 290.19L120.93 291.8C120.89 291.95 116.72 306.33 97.12 306.33L97.13 306.31Z" fill="#231F20"/>
<path d="M129.93 297.99C126.13 297.99 121.93 297.28 117.36 295.5C107.38 291.63 101.44 281.91 100.17 267.38C99.57 260.46 100.16 254.06 100.65 250.4C100.88 248.68 102.51 247.51 104.22 247.85C105.77 248.16 106.82 249.61 106.61 251.18C105.52 259.45 103.74 283.79 119.53 289.91C138.62 297.3 149.33 282.71 149.78 282.08L154.68 285.54C154.57 285.69 145.69 297.99 129.94 297.99H129.93Z" fill="#231F20"/>
<path d="M157.67 289.11C151.48 289.11 146.1 286.31 142.98 281.14C136.44 270.29 132.45 257.52 130.87 251.8C130.41 250.16 131.42 248.47 133.08 248.08C134.65 247.71 136.23 248.64 136.66 250.19C138.17 255.6 142.01 267.9 148.12 278.04C151.53 283.7 158.17 283.86 163.24 282.13C171.6 279.27 179.89 270.12 178.34 256.77C176.08 237.34 168.67 231.66 165.06 230.04C163.88 229.51 163.18 228.29 163.31 227.01C163.52 224.98 165.66 223.75 167.51 224.6C172.75 227 181.75 234.26 184.29 256.08C186.23 272.73 175.74 284.2 165.17 287.81C162.6 288.69 160.07 289.11 157.66 289.11H157.67Z" fill="#231F20"/>
<path d="M171.9 233.7H171.8L171.78 227.7H171.83C173.15 227.7 185.3 227.5 193.21 218.22C199.49 210.86 201.66 199.68 199.69 184.96C199.47 183.35 200.57 181.86 202.17 181.6C203.84 181.32 205.42 182.49 205.64 184.17C207.84 200.65 205.2 213.4 197.78 222.11C188.43 233.08 174.81 233.69 171.9 233.69V233.7Z" fill="#231F20"/>
<path d="M180.49 247.81L180.4 241.81C180.49 241.81 190.82 241.51 201.77 234.13C216.48 224.21 225.35 206.83 228.13 182.47C231.54 152.6 227.69 118.19 217.56 88.0601C206.91 56.3801 190.73 33.2001 171.99 22.7701C149.95 10.5101 127.68 4.81005 107.59 6.31005C83.96 8.07005 63.62 19.5201 47.14 40.3501C12.98 83.5001 -8.83 153.63 18.02 198.61L19.14 200.48L17.71 202.12C12.65 207.92 14.28 217.64 14.29 217.73C16.62 233.62 39.58 237.48 39.81 237.51L38.87 243.44C38.59 243.4 32.01 242.33 25.01 238.89C15.36 234.15 9.6 227.16 8.36 218.69C8.29 218.3 6.48 207.81 11.84 199.91C-0.23 178.49 -3.14 150.68 3.43 119.32C9.57 90.0101 23.42 60.6401 42.43 36.6101C74.83 -4.32994 123.12 -11.2899 174.9 17.5301C194.95 28.6901 212.12 53.0601 223.24 86.1501C233.64 117.09 237.59 152.44 234.08 183.15C232.01 201.27 225.25 225.72 204.8 239.31C192.42 247.54 180.96 247.8 180.48 247.81H180.49Z" fill="#231F20"/>
</g>
<defs>
<clipPath id="clip0_2371_94">
<rect width="235.34" height="306.31" fill="white"/>
</clipPath>
</defs>
</svg>
