<svg width="592" height="520" viewBox="0 0 592 520" fill="none" xmlns="http://www.w3.org/2000/svg">
<g clip-path="url(#clip0_2154_16982)">
<path d="M497.796 140.167H431.145C410.159 95.876 367.456 64.7611 318.96 58.4952L300.205 0.0419922L281.15 58.5381C232.782 64.8898 190.165 95.9619 169.222 140.209H102.571L157.033 180.037C155.917 187.333 155.274 194.757 155.274 202.182C155.274 241.752 171.668 279.819 200.251 307.071L178.749 373.121L235.357 331.792C255.571 341.92 277.33 347.07 300.162 347.07C322.994 347.07 344.538 341.834 364.323 332.049L419.643 372.134L399.043 308.016C428.27 280.677 445.05 242.224 445.05 202.139C445.05 194.671 444.407 187.247 443.291 179.951L497.753 140.209L497.796 140.167ZM372.091 223.898L347.285 146.604H477.968L372.091 223.898ZM328.916 152.355C322.136 152.355 316.599 157.891 316.599 164.672V207.375H311.792V146.647H340.461L366.555 227.932L311.792 267.931V228.705H325.44C334.152 228.705 341.234 221.623 341.234 212.911V164.672C341.234 157.891 335.697 152.355 328.916 152.355ZM423.892 140.167H345.182L321.148 65.3619C365.181 72.0999 403.85 100.254 423.892 140.167ZM338.401 140.167H311.792V121.669C311.792 114.888 306.256 109.352 299.475 109.352C292.694 109.352 287.158 114.888 287.158 121.669V140.167H261.365L300.119 21.0714L338.358 140.167H338.401ZM271.45 165.488C264.669 165.488 259.133 171.024 259.133 177.805V224.456C259.133 233.168 266.214 240.249 274.927 240.249H287.201V267.158L232.997 227.503L259.305 146.647H287.201V218.92H283.768V177.762C283.768 170.981 278.231 165.445 271.45 165.445V165.488ZM278.918 65.4048L254.584 140.167H176.432C196.431 100.339 234.971 72.2287 278.918 65.4048ZM252.481 146.647L227.46 223.512L122.399 146.647H252.481ZM161.754 202.139C161.754 196.173 162.269 190.251 162.999 184.371L225.357 229.992L202.525 300.162C176.56 274.283 161.754 238.876 161.754 202.139ZM230.851 233.984L287.201 275.184V285.87L191.152 355.997L230.851 233.984ZM300.162 340.547C279.519 340.547 259.734 336.083 241.323 327.371L293.639 289.175V233.769H274.927C269.777 233.769 265.614 229.606 265.614 224.456V177.805C265.614 174.586 268.232 171.968 271.45 171.968C274.669 171.968 277.287 174.586 277.287 177.805V225.4H293.639V121.669C293.639 118.45 296.256 115.833 299.475 115.833C302.694 115.833 305.312 118.45 305.312 121.669V213.855H323.08V164.672C323.08 161.453 325.698 158.836 328.916 158.836C332.135 158.836 334.753 161.453 334.753 164.672V212.911C334.753 218.061 330.59 222.224 325.44 222.224H305.355V289.175L358.401 327.672C340.29 336.083 320.29 340.547 300.162 340.547ZM311.792 285.913V275.956L368.658 234.456L407.412 355.139L311.792 285.913ZM438.613 202.139C438.613 239.391 423.42 275.184 396.897 301.149L374.194 230.421L437.368 184.285C438.141 190.165 438.613 196.131 438.613 202.139Z" fill="#BEAF31"/>
<path d="M42.6597 454.066C42.6597 448.186 42.6597 442.264 42.6597 436.384C52.5735 436.041 62.4874 435.74 72.4013 435.44C72.4013 431.277 72.4013 427.114 72.4013 422.951C62.4874 423.166 52.5735 423.38 42.6597 423.638C42.6597 418.445 42.6597 413.252 42.6597 408.059C55.2344 407.93 67.8091 407.758 80.3409 407.63C80.3409 403.209 80.3409 398.789 80.3409 394.411H0L27.9391 407.372V468.615C45.621 467.542 63.2599 466.555 80.9418 465.654C80.9418 461.233 80.9418 456.813 80.9418 452.435C68.1525 452.95 55.4061 453.508 42.6168 454.152L42.6597 454.066Z" fill="#BEAF31"/>
<path d="M128.58 422.561C119.267 419.771 110.898 417.883 110.898 412.304C110.898 408.098 115.233 404.965 122.014 404.922C128.58 404.922 135.018 408.398 136.735 415.265C141.455 413.978 146.176 412.733 150.94 411.488C147.764 400.802 136.778 392.948 122.872 392.948C107.208 392.948 95.7487 402.261 95.7487 413.291C95.7487 425.608 106.735 429.685 115.534 432.432C126.005 435.651 136.048 437.067 136.048 444.063C136.048 448.698 131.928 452.431 123.988 452.732C114.761 453.075 108.838 447.41 107.251 441.144C102.53 442.475 97.8087 443.848 93.0449 445.221C97.0791 457.925 107.766 465.736 123.302 465.049C140.254 464.32 151.67 455.264 151.713 443.076C151.713 430.887 139.353 425.823 128.537 422.561H128.58Z" fill="#BEAF31"/>
<path d="M198.791 461.232C198.791 443.078 198.791 424.881 198.791 406.727C206.559 406.727 214.327 406.641 222.096 406.641C222.096 402.521 222.096 398.401 222.096 394.281C201.71 394.281 181.367 394.281 160.981 394.281C160.981 398.487 160.981 402.693 160.981 406.899C168.664 406.856 176.389 406.813 184.071 406.77C184.071 425.053 184.071 443.293 184.071 461.575C188.963 461.447 193.899 461.318 198.791 461.189V461.232Z" fill="#BEAF31"/>
<path d="M295.742 459.902C290.077 451.619 284.455 443.378 278.789 435.095C287.802 431.791 292.78 425.225 292.78 416.212C292.78 402.993 281.879 394.281 263.64 394.281C254.97 394.281 246.344 394.281 237.675 394.281C237.675 416.341 237.675 438.4 237.675 460.46C242.567 460.374 247.503 460.331 252.395 460.245C252.395 452.734 252.395 445.224 252.395 437.713C256.129 437.713 259.863 437.671 263.64 437.628C263.94 437.628 264.155 437.628 264.498 437.628C269.391 445.095 274.326 452.52 279.219 459.987C284.712 459.987 290.248 459.945 295.742 459.902ZM265.571 425.954C261.193 425.954 256.816 425.997 252.438 426.04C252.438 419.559 252.438 413.036 252.438 406.556C256.816 406.556 261.193 406.556 265.571 406.556C273.639 406.556 277.545 411.148 277.545 416.298C277.545 421.276 273.725 425.997 265.571 425.997V425.954Z" fill="#BEAF31"/>
<path d="M328.316 447.713C328.316 442.434 328.316 437.155 328.316 431.877C338.23 431.877 348.144 431.963 358.101 432.005C358.101 428.186 358.101 424.366 358.101 420.547C348.187 420.504 338.273 420.461 328.359 420.461C328.359 415.783 328.359 411.148 328.359 406.47C340.934 406.47 353.509 406.47 366.083 406.513C366.083 402.436 366.083 398.358 366.083 394.281C348.616 394.281 331.149 394.281 313.639 394.281C313.639 416.169 313.639 438.014 313.639 459.902C331.321 459.902 349.045 460.03 366.727 460.245C366.727 456.168 366.727 452.091 366.727 448.014C353.938 447.885 341.149 447.799 328.359 447.756L328.316 447.713Z" fill="#BEAF31"/>
<path d="M402.735 448.443C402.735 430.375 402.735 412.349 402.735 394.281C397.843 394.281 392.907 394.281 388.015 394.281C388.015 416.384 388.015 438.443 388.015 460.545C405.139 460.846 422.263 461.232 439.386 461.704C439.386 457.541 439.386 453.378 439.386 449.172C427.155 448.872 414.967 448.657 402.735 448.443Z" fill="#BEAF31"/>
<path d="M470.33 449.987C470.33 431.447 470.33 412.863 470.33 394.323C465.437 394.323 460.502 394.323 455.609 394.323C455.609 416.941 455.609 439.558 455.652 462.218C472.776 462.776 489.9 463.42 507.024 464.149C507.024 459.815 507.024 455.523 507.024 451.188C494.793 450.759 482.604 450.373 470.373 450.03L470.33 449.987Z" fill="#BEAF31"/>
<path d="M566.291 405.87L591.054 394.411H547.665C537.493 418.273 527.365 441.62 517.193 464.581C522.472 464.838 527.794 465.053 533.073 465.31C534.918 460.89 536.721 456.426 538.566 451.963C549.252 452.392 559.939 452.864 570.625 453.336C572.471 458.057 574.273 462.821 576.119 467.628C581.397 467.928 586.719 468.272 591.998 468.572C583.415 447.199 574.831 426.384 566.291 405.87ZM543.63 439.603C546.077 433.68 548.48 427.672 550.926 421.664C552.514 417.715 554.403 411.75 554.531 411.75H554.617C554.746 411.75 556.634 417.758 558.222 421.792C560.668 427.929 563.115 434.109 565.518 440.29C558.222 440.032 550.926 439.775 543.587 439.56L543.63 439.603Z" fill="#BEAF31"/>
<path d="M173.642 488.657H163.385V519.601H168.277V508.914H173.642C180.981 508.914 185.401 505.095 185.401 498.786C185.401 492.477 180.981 488.657 173.642 488.657ZM173.556 504.279H168.277V493.206H173.556C177.762 493.206 180.337 495.138 180.337 498.743C180.337 502.348 177.891 504.279 173.556 504.279Z" fill="#BEAF31"/>
<path d="M207.332 488.657L194.242 519.601H199.521L202.396 512.562H216.86L219.735 519.601H225.014L211.924 488.657H207.375H207.332ZM204.113 508.27L208.104 498.614C208.748 496.94 209.521 494.58 209.564 494.58C209.564 494.58 210.336 496.94 211.023 498.614L215.014 508.27H204.113Z" fill="#BEAF31"/>
<path d="M244.67 488.657H239.734V519.558H260.549V514.965H244.67V488.657Z" fill="#BEAF31"/>
<path d="M281.237 505.609H294.284V501.275H281.237V493.206H297.589V488.657H276.345V519.558H297.889V514.965H281.237V505.609Z" fill="#BEAF31"/>
<path d="M347.458 488.657L334.368 519.601H339.604L342.48 512.562H356.943L359.818 519.601H365.054L351.964 488.657H347.415H347.458ZM344.282 508.27L348.273 498.614C348.917 496.94 349.69 494.58 349.732 494.58H349.775C349.775 494.58 350.548 496.94 351.235 498.614L355.226 508.27H344.325H344.282Z" fill="#BEAF31"/>
<path d="M384.795 488.657H379.859V519.558H400.674V514.965H384.795V488.657Z" fill="#BEAF31"/>
<path d="M421.361 505.609H434.408V501.275H421.361V493.206H437.713V488.657H416.469V519.558H438.013V514.965H421.361V505.609Z" fill="#BEAF31"/>
</g>
<defs>
<clipPath id="clip0_2154_16982">
<rect width="591.999" height="519.555" fill="white"/>
</clipPath>
</defs>
</svg>
