<?xml version="1.0" encoding="UTF-8"?>
<svg width="25px" height="51px" viewBox="0 0 25 51" version="1.1" xmlns="http://www.w3.org/2000/svg" xmlns:xlink="http://www.w3.org/1999/xlink">
    <title>instasprite@3x</title>
    <g id="HOME" stroke="none" stroke-width="1" fill="none" fill-rule="evenodd">
        <g id="NEW-Copy" transform="translate(-1206.000000, -1782.000000)">
            <g id="Group-10" transform="translate(-3.000000, 1732.000000)">
                <g id="Group-6" transform="translate(720.000000, 50.000000)">
                    <g id="SOCIAL" transform="translate(489.000000, 0.000000)">
                        <g id="instasprite">
                            <g id="instagram" fill="#FFFFFF">
                                <g id="instagram_hover" transform="translate(-0.000025, 0.049300)">
                                    <path d="M12.5000248,0 C9.10520382,0 8.6795239,0.0143894602 7.3463156,0.0752221435 C6.01578673,0.13590597 5.10716675,0.347232559 4.31202502,0.656209002 C3.49003952,0.975655018 2.7929446,1.4030716 2.09803291,2.09798329 C1.40312122,2.7929446 0.975704637,3.49003952 0.656258621,4.31202502 C0.347232559,5.10711713 0.135955589,6.01578673 0.0752221435,7.34626598 C0.0143894602,8.6795239 0,9.10520382 0,12.5000248 C0,15.8947962 0.0143894602,16.3204761 0.0752221435,17.653734 C0.135955589,18.9842133 0.347232559,19.8928829 0.656258621,20.687975 C0.975704637,21.5099605 1.40312122,22.2070554 2.09803291,22.9020167 C2.7929446,23.5969284 3.49003952,24.024345 4.31202502,24.343791 C5.10716675,24.6527674 6.01578673,24.864094 7.3463156,24.9247779 C8.6795239,24.9856602 9.10520382,25 12.5000248,25 C15.8948458,25 16.3204761,24.9856602 17.653734,24.9247779 C18.9842629,24.864094 19.8928829,24.6527674 20.6880246,24.343791 C21.5100101,24.024345 22.207105,23.5969284 22.9020167,22.9020167 C23.5969284,22.2070554 24.024345,21.5099605 24.343791,20.687975 C24.6528171,19.8928829 24.864094,18.9842133 24.9248275,17.653734 C24.9856602,16.3204761 25,15.8947962 25,12.5000248 C25,9.10520382 24.9856602,8.6795239 24.9248275,7.34626598 C24.864094,6.01578673 24.6528171,5.10711713 24.343791,4.31202502 C24.024345,3.49003952 23.5969284,2.7929446 22.9020167,2.09798329 C22.207105,1.4030716 21.5100101,0.975655018 20.6880246,0.656209002 C19.8928829,0.347232559 18.9842629,0.13590597 17.653734,0.0752221435 C16.3204761,0.0143894602 15.8948458,0 12.5000248,0 M12.5000248,2.25224823 C15.8376849,2.25224823 16.2329981,2.26500027 17.5510727,2.32513829 C18.7698103,2.38071138 19.4316759,2.58434705 19.8721918,2.755532 C20.45561,2.98229005 20.8720608,3.25315923 21.3094508,3.69059882 C21.7468408,4.12798879 22.0177596,4.54439 22.244468,5.1278578 C22.415653,5.56832413 22.6192886,6.23018968 22.6749113,7.44892734 C22.7350494,8.76700189 22.7477518,9.16236471 22.7477518,12.5000248 C22.7477518,15.8376353 22.7350494,16.2329981 22.6749113,17.5510727 C22.6192886,18.7698103 22.415653,19.4316759 22.244468,19.8721422 C22.0177596,20.45561 21.7468408,20.8720112 21.3094508,21.3094012 C20.8720608,21.7468408 20.45561,22.01771 19.8721918,22.244468 C19.4316759,22.415653 18.7698103,22.6192886 17.5510727,22.6748617 C16.2331966,22.7349997 15.8378834,22.7477518 12.5000248,22.7477518 C9.16216624,22.7477518 8.76685303,22.7349997 7.44897696,22.6748617 C6.2302393,22.6192886 5.56832413,22.415653 5.1278578,22.244468 C4.54443961,22.01771 4.12798879,21.7468408 3.69059882,21.3094012 C3.25320885,20.8720112 2.98229005,20.45561 2.755532,19.8721422 C2.58439666,19.4316759 2.38076099,18.7698103 2.32513829,17.5510727 C2.26500027,16.2329981 2.25229785,15.8376353 2.25229785,12.5000248 C2.25229785,9.16236471 2.26500027,8.76700189 2.32513829,7.44892734 C2.38076099,6.23018968 2.58439666,5.56832413 2.755532,5.1278578 C2.98229005,4.54439 3.25320885,4.12798879 3.69059882,3.69059882 C4.12798879,3.25315923 4.54443961,2.98229005 5.1278578,2.755532 C5.56832413,2.58434705 6.2302393,2.38071138 7.44892734,2.32513829 C8.76705151,2.26500027 9.16236471,2.25224823 12.5000248,2.25224823" id="Fill-1"></path>
                                    <path d="M12.4960813,16.6617121 C10.1956349,16.6617121 8.33070437,14.7968311 8.33070437,12.4963847 C8.33070437,10.1958887 10.1956349,8.33100771 12.4960813,8.33100771 C14.7965278,8.33100771 16.6614087,10.1958887 16.6614087,12.4963847 C16.6614087,14.7968311 14.7965278,16.6617121 12.4960813,16.6617121 M12.4960813,6.07947001 C8.95213294,6.07947001 6.07916667,8.95238668 6.07916667,12.4963847 C6.07916667,16.0403331 8.95213294,18.9132498 12.4960813,18.9132498 C16.0400298,18.9132498 18.912996,16.0403331 18.912996,12.4963847 C18.912996,8.95238668 16.0400298,6.07947001 12.4960813,6.07947001" id="Fill-4"></path>
                                    <path d="M20.6660367,5.8259333 C20.6660367,6.65410791 19.9946577,7.32543727 19.1665327,7.32543727 C18.3383581,7.32543727 17.6669792,6.65410791 17.6669792,5.8259333 C17.6669792,4.9977587 18.3383581,4.32642933 19.1665327,4.32642933 C19.9946577,4.32642933 20.6660367,4.9977587 20.6660367,5.8259333" id="Fill-6"></path>
                                </g>
                            </g>
                            <g id="instagram-copy" transform="translate(0.000000, 25.000000)" fill="#E83A0E">
                                <g id="instagram_hover" transform="translate(-0.000025, 0.049300)">
                                    <path d="M12.5000248,0 C9.10520382,0 8.6795239,0.0143894602 7.3463156,0.0752221435 C6.01578673,0.13590597 5.10716675,0.347232559 4.31202502,0.656209002 C3.49003952,0.975655018 2.7929446,1.4030716 2.09803291,2.09798329 C1.40312122,2.7929446 0.975704637,3.49003952 0.656258621,4.31202502 C0.347232559,5.10711713 0.135955589,6.01578673 0.0752221435,7.34626598 C0.0143894602,8.6795239 0,9.10520382 0,12.5000248 C0,15.8947962 0.0143894602,16.3204761 0.0752221435,17.653734 C0.135955589,18.9842133 0.347232559,19.8928829 0.656258621,20.687975 C0.975704637,21.5099605 1.40312122,22.2070554 2.09803291,22.9020167 C2.7929446,23.5969284 3.49003952,24.024345 4.31202502,24.343791 C5.10716675,24.6527674 6.01578673,24.864094 7.3463156,24.9247779 C8.6795239,24.9856602 9.10520382,25 12.5000248,25 C15.8948458,25 16.3204761,24.9856602 17.653734,24.9247779 C18.9842629,24.864094 19.8928829,24.6527674 20.6880246,24.343791 C21.5100101,24.024345 22.207105,23.5969284 22.9020167,22.9020167 C23.5969284,22.2070554 24.024345,21.5099605 24.343791,20.687975 C24.6528171,19.8928829 24.864094,18.9842133 24.9248275,17.653734 C24.9856602,16.3204761 25,15.8947962 25,12.5000248 C25,9.10520382 24.9856602,8.6795239 24.9248275,7.34626598 C24.864094,6.01578673 24.6528171,5.10711713 24.343791,4.31202502 C24.024345,3.49003952 23.5969284,2.7929446 22.9020167,2.09798329 C22.207105,1.4030716 21.5100101,0.975655018 20.6880246,0.656209002 C19.8928829,0.347232559 18.9842629,0.13590597 17.653734,0.0752221435 C16.3204761,0.0143894602 15.8948458,0 12.5000248,0 M12.5000248,2.25224823 C15.8376849,2.25224823 16.2329981,2.26500027 17.5510727,2.32513829 C18.7698103,2.38071138 19.4316759,2.58434705 19.8721918,2.755532 C20.45561,2.98229005 20.8720608,3.25315923 21.3094508,3.69059882 C21.7468408,4.12798879 22.0177596,4.54439 22.244468,5.1278578 C22.415653,5.56832413 22.6192886,6.23018968 22.6749113,7.44892734 C22.7350494,8.76700189 22.7477518,9.16236471 22.7477518,12.5000248 C22.7477518,15.8376353 22.7350494,16.2329981 22.6749113,17.5510727 C22.6192886,18.7698103 22.415653,19.4316759 22.244468,19.8721422 C22.0177596,20.45561 21.7468408,20.8720112 21.3094508,21.3094012 C20.8720608,21.7468408 20.45561,22.01771 19.8721918,22.244468 C19.4316759,22.415653 18.7698103,22.6192886 17.5510727,22.6748617 C16.2331966,22.7349997 15.8378834,22.7477518 12.5000248,22.7477518 C9.16216624,22.7477518 8.76685303,22.7349997 7.44897696,22.6748617 C6.2302393,22.6192886 5.56832413,22.415653 5.1278578,22.244468 C4.54443961,22.01771 4.12798879,21.7468408 3.69059882,21.3094012 C3.25320885,20.8720112 2.98229005,20.45561 2.755532,19.8721422 C2.58439666,19.4316759 2.38076099,18.7698103 2.32513829,17.5510727 C2.26500027,16.2329981 2.25229785,15.8376353 2.25229785,12.5000248 C2.25229785,9.16236471 2.26500027,8.76700189 2.32513829,7.44892734 C2.38076099,6.23018968 2.58439666,5.56832413 2.755532,5.1278578 C2.98229005,4.54439 3.25320885,4.12798879 3.69059882,3.69059882 C4.12798879,3.25315923 4.54443961,2.98229005 5.1278578,2.755532 C5.56832413,2.58434705 6.2302393,2.38071138 7.44892734,2.32513829 C8.76705151,2.26500027 9.16236471,2.25224823 12.5000248,2.25224823" id="Fill-1"></path>
                                    <path d="M12.4960813,16.6617121 C10.1956349,16.6617121 8.33070437,14.7968311 8.33070437,12.4963847 C8.33070437,10.1958887 10.1956349,8.33100771 12.4960813,8.33100771 C14.7965278,8.33100771 16.6614087,10.1958887 16.6614087,12.4963847 C16.6614087,14.7968311 14.7965278,16.6617121 12.4960813,16.6617121 M12.4960813,6.07947001 C8.95213294,6.07947001 6.07916667,8.95238668 6.07916667,12.4963847 C6.07916667,16.0403331 8.95213294,18.9132498 12.4960813,18.9132498 C16.0400298,18.9132498 18.912996,16.0403331 18.912996,12.4963847 C18.912996,8.95238668 16.0400298,6.07947001 12.4960813,6.07947001" id="Fill-4"></path>
                                    <path d="M20.6660367,5.8259333 C20.6660367,6.65410791 19.9946577,7.32543727 19.1665327,7.32543727 C18.3383581,7.32543727 17.6669792,6.65410791 17.6669792,5.8259333 C17.6669792,4.9977587 18.3383581,4.32642933 19.1665327,4.32642933 C19.9946577,4.32642933 20.6660367,4.9977587 20.6660367,5.8259333" id="Fill-6"></path>
                                </g>
                            </g>
                        </g>
                    </g>
                </g>
            </g>
        </g>
    </g>
</svg>