<svg width="620" height="644" viewBox="0 0 620 644" fill="none" xmlns="http://www.w3.org/2000/svg">
<g clip-path="url(#clip0_2192_5664)">
<path d="M305.644 373.72C310.381 370.62 312.947 366.309 315.202 362.505L315.343 362.251C315.625 361.801 315.907 361.35 316.189 360.899C310.155 352.53 302.853 344.133 294.676 336.159C290.503 332.101 286.245 328.269 281.931 324.719C283.341 329.593 284.892 334.891 285.766 337.568C287.429 342.64 287.232 346.979 286.273 350.36C293.83 358.025 300.371 365.971 305.644 373.748V373.72Z" fill="#282420"/>
<path d="M353.718 300.317C347.966 296.062 336.546 286.764 330.118 280.508C325.211 275.718 320.756 270.815 316.753 265.912C313.454 269.913 311.142 273.886 309.168 277.578C308.717 278.423 308.266 279.268 307.843 280.114C311.283 284.115 314.976 288.088 318.952 291.948C327.298 300.092 340.973 311.109 350.052 317.252C349.883 315.167 349.657 313.307 349.432 311.785C348.84 308.038 349.714 304.572 351.885 302.036C352.421 301.416 353.041 300.852 353.718 300.345V300.317Z" fill="#282420"/>
<path d="M83.1499 303.952C83.1499 313.251 83.7702 322.38 84.9262 331.341L99.4471 314.603C99.2498 311.081 99.137 307.531 99.137 303.952C99.137 193.778 188.518 104.454 298.764 104.454C324.281 104.454 348.643 109.273 371.058 118.008C376.782 112.57 381.209 108.343 383.831 105.948C357.722 94.7331 328.99 88.5059 298.764 88.5059C179.693 88.5059 83.1499 184.986 83.1499 303.98V303.952Z" fill="#282420"/>
<path d="M105.678 354.729L105.086 355.405C101.816 359.181 99.9547 363.605 99.8701 367.888C99.8701 367.944 99.8701 367.972 99.8701 368.028C99.8701 368.592 99.8983 369.127 99.9547 369.635C100.011 370.057 100.067 370.48 100.152 370.874C100.321 371.607 100.547 372.311 100.857 372.931C100.97 373.157 101.054 373.382 101.167 373.579C101.28 373.777 101.421 373.974 101.534 374.171C101.844 374.594 102.154 374.988 102.549 375.326L118 388.739L118.282 388.993C113.122 378.032 108.921 366.507 105.791 354.56L105.622 354.757L105.678 354.729Z" fill="#282420"/>
<path d="M9.38937 326.973C11.4759 328.551 13.6751 329.34 16.0154 329.34C16.7485 329.34 21.57 329.538 30.4517 329.932L45.8185 330.608C48.2715 330.777 50.2453 330.327 51.7678 329.256C57.1814 325.48 59.2679 320.493 57.9709 314.322C56.8713 309.052 53.7415 305.784 48.5535 304.488C47.0591 304.15 44.2113 303.98 40.0101 303.98C38.9387 303.98 38.3466 304.544 38.2338 305.615C38.0646 307.418 37.98 309.137 37.98 310.799C37.98 311.617 38.121 312.18 38.4312 312.49C38.7131 312.772 39.277 312.969 40.0947 313.054C40.6304 313.11 41.3071 313.166 42.153 313.223C43.2527 313.279 43.9576 313.307 44.2113 313.307C45.6211 313.392 46.7772 313.899 47.6794 314.829C48.5817 315.759 48.9482 316.829 48.8355 318.013C48.7227 319.196 48.1024 320.154 47.0309 320.831C46.326 321.282 45.4801 321.563 44.5215 321.648C43.6192 321.732 42.6324 321.761 41.5609 321.704C35.5834 321.451 28.2806 321.112 19.7373 320.718C18.8068 320.69 18.0173 320.605 17.397 320.493C16.2974 320.352 15.3387 319.845 14.5492 319.027C13.7315 318.182 13.3368 317.224 13.365 316.153C13.4214 315.082 13.8725 314.153 14.7748 313.392C15.7335 312.546 16.9177 312.124 18.3275 312.124C20.7241 312.152 21.8802 312.18 21.8802 312.18C22.9516 312.124 23.5437 311.56 23.6565 310.49C23.7975 308.855 23.8821 307.249 23.8821 305.615C23.8821 304.685 23.7693 304.037 23.4873 303.699C23.1772 303.361 22.5851 303.135 21.711 303.079C20.6113 302.966 18.835 302.91 16.4102 302.853C14.0699 302.769 12.209 303.304 10.8274 304.403C7.7822 306.855 5.89308 309.024 5.18818 310.912C4.93442 311.588 4.79344 312.293 4.73705 312.997C4.68065 314.012 4.59607 315.646 4.53967 317.872C4.51148 318.689 4.65246 319.591 4.93442 320.577C5.7521 323.141 7.24648 325.255 9.38937 326.889V326.973Z" fill="#282420"/>
<path d="M20.4141 280.283C20.837 280.368 25.4047 281.382 34.0891 283.298L48.0179 286.341C50.3581 286.849 52.4164 286.849 54.1928 286.285C59.127 284.82 62.1722 281.495 63.3846 276.367C64.5689 271.323 63.1309 266.758 59.0425 262.729C58.4503 262.193 57.8864 261.771 57.3225 261.545C54.3619 260.333 52.501 259.657 51.7397 259.516C46.9746 258.474 38.826 256.67 27.2939 254.134C25.3483 253.712 23.1773 253.599 20.8088 253.796C19.0325 253.937 17.2279 254.67 15.4234 255.938C13.647 257.206 12.3782 258.671 11.6733 260.333C10.7147 262.56 10.1507 265.265 9.95337 268.42C9.89698 269.379 10.1225 270.365 10.5455 271.407C12.7166 276.479 16.0155 279.438 20.4141 280.283ZM19.1452 266.871C19.399 264.786 20.4704 263.658 22.3596 263.433C23.1491 263.377 24.0231 263.433 24.9818 263.63C29.1548 264.532 37.4726 266.364 49.9352 269.125C51.1476 269.379 52.0499 269.773 52.6984 270.224C54.0236 271.21 54.5029 272.563 54.1082 274.253C53.7416 275.944 52.7266 276.93 51.0912 277.184C50.4145 277.325 49.3149 277.212 47.8205 276.902L23.7694 271.633C22.6415 271.379 21.8802 271.182 21.4855 271.013C19.6528 270.308 18.8633 268.956 19.117 266.899L19.1452 266.871Z" fill="#282420"/>
<path d="M22.5568 228.21C22.8388 228.351 23.5719 228.661 24.7561 229.112L66.1477 245.483C68.0369 246.216 69.2211 246.498 69.7004 246.272C70.1515 246.047 70.7437 244.92 71.4768 242.919C72.2099 240.947 72.4636 239.707 72.2944 239.228C72.0689 238.749 71.0256 238.101 69.1083 237.368L57.1532 232.634C55.6588 232.042 54.6156 231.479 53.9953 230.944C53.2622 230.324 53.0366 229.619 53.2622 228.774C53.375 228.323 53.6569 227.449 54.1081 226.153C55.0949 223.307 55.5743 221.955 55.5179 222.096C55.828 221.081 55.4897 220.321 54.531 219.842C53.8825 219.532 52.8675 219.109 51.4859 218.545C49.7377 217.869 48.6381 217.615 48.2151 217.813C47.764 218.038 47.2001 219.053 46.5234 220.828C45.6211 223.166 45.0572 224.604 44.8316 225.111C44.2395 226.351 43.2526 226.801 41.8428 226.463C41.3353 226.351 40.574 226.097 39.5872 225.702C36.401 224.406 34.4837 223.617 33.807 223.336C32.4536 222.687 31.9743 221.589 32.3408 220.067C32.4254 219.644 32.6228 218.968 32.9611 218.038C33.2149 217.362 33.6096 216.291 34.1172 214.854C34.6247 213.445 35.0194 212.403 35.2732 211.67C35.5834 210.796 35.8089 210.12 35.8935 209.641C36.1473 208.711 35.8371 208.035 35.0194 207.612C33.9198 207.077 32.7356 206.57 31.4386 206.063C30.2825 205.668 29.5212 205.555 29.1265 205.725C28.7035 205.922 28.2806 206.57 27.8013 207.697C27.7167 207.866 27.4911 208.43 27.1246 209.388C25.3764 214.121 24.0794 217.672 23.2053 220.067C22.1621 222.969 21.5418 224.716 21.3444 225.252C21.0907 226.069 21.0625 226.689 21.2316 227.083C21.3726 227.478 21.8237 227.844 22.5568 228.21Z" fill="#282420"/>
<path d="M40.7711 183.859C41.0249 184.056 41.7016 184.451 42.8012 185.099L81.3732 207.726C83.1214 208.768 84.2492 209.191 84.7567 209.05C85.236 208.881 85.9973 207.895 87.0124 206.035C88.0274 204.203 88.4504 203.02 88.3376 202.513C88.1966 201.977 87.238 201.217 85.4616 200.174L74.3242 193.637C72.9426 192.82 71.984 192.087 71.4482 191.467C70.8279 190.763 70.687 190.002 71.0253 189.213C71.1945 188.79 71.6174 187.973 72.2377 186.762C73.6475 184.113 74.296 182.845 74.2114 182.958C74.6626 181.999 74.437 181.182 73.5629 180.562C72.9708 180.14 72.0404 179.576 70.7433 178.815C69.108 177.857 68.0647 177.463 67.6136 177.576C67.1343 177.745 66.4294 178.646 65.4989 180.281C64.2865 182.45 63.5252 183.775 63.215 184.254C62.4537 185.381 61.4105 185.691 60.0571 185.127C59.5778 184.93 58.8729 184.564 57.9424 184.028C54.9818 182.253 53.1773 181.182 52.557 180.788C51.3164 179.943 51.0062 178.787 51.5701 177.322C51.7111 176.899 52.0213 176.279 52.5006 175.406C52.8389 174.758 53.4029 173.772 54.1078 172.447C54.8127 171.151 55.3484 170.165 55.7149 169.489C56.1661 168.671 56.4762 168.023 56.6454 167.573C57.0119 166.671 56.8428 165.966 56.0815 165.431C55.0946 164.727 53.9668 164.022 52.7544 163.346C51.6829 162.782 50.9498 162.529 50.4987 162.641C50.0757 162.754 49.54 163.346 48.9197 164.388C48.8069 164.529 48.525 165.065 48.0174 165.966C45.6208 170.362 43.7881 173.687 42.6038 175.913C41.1376 178.618 40.2918 180.252 40.0098 180.76C39.6433 181.549 39.5023 182.14 39.6151 182.563C39.6996 182.958 40.0944 183.408 40.7429 183.887L40.7711 183.859Z" fill="#282420"/>
<path d="M66.3166 144.326C67.5009 145.284 73.3938 150.131 84.0519 158.866L100.828 172.616C101.928 173.518 102.633 174.082 102.971 174.307C103.676 174.786 104.268 174.983 104.719 174.899C105.171 174.842 105.706 174.476 106.298 173.8C106.468 173.602 106.721 173.293 107.06 172.87C112.304 165.995 115.688 161.542 117.21 159.57C117.69 158.922 118.084 158.33 118.366 157.795C118.846 156.95 118.761 156.217 118.113 155.541C116.816 154.216 115.321 153.005 113.686 151.906C112.953 151.399 112.248 151.511 111.571 152.216C111.233 152.554 110.725 153.202 109.992 154.104C106.778 158.274 105.255 160.246 105.368 160.105C104.578 161.092 103.874 161.627 103.225 161.712C102.577 161.796 101.787 161.486 100.8 160.753C98.9111 159.345 97.2758 157.992 95.9224 156.752C94.6817 155.625 94.0896 154.667 94.0896 153.906C94.0896 153.343 94.5689 152.469 95.443 151.314C96.8246 149.511 97.8397 148.13 98.5164 147.172C99.1367 146.242 99.0239 145.425 98.2344 144.692C97.0502 143.593 95.8096 142.551 94.5408 141.565C93.8077 141.029 93.2156 140.776 92.7644 140.804C92.3415 140.86 91.834 141.255 91.2418 141.931C90.8753 142.382 90.3114 143.086 89.5501 144.1C88.8452 145.03 88.2813 145.763 87.8865 146.242C87.1816 147.059 86.5049 147.51 85.9128 147.595C85.2925 147.679 84.5594 147.397 83.7417 146.749C81.7962 145.284 79.8225 143.706 77.877 141.987C76.9747 141.198 76.4954 140.437 76.4108 139.761C76.3544 139.085 76.6927 138.24 77.4258 137.197C77.2849 137.422 78.8356 135.394 82.0218 131.167C82.6985 130.237 83.1496 129.561 83.4034 129.166C83.9109 128.321 83.8545 127.588 83.1778 126.94C82.5575 126.32 81.7398 125.588 80.6966 124.771C79.3996 123.7 78.4973 123.221 78.018 123.305C77.5386 123.362 76.7773 124.094 75.7059 125.447C72.6043 129.476 69.2208 133.872 65.5836 138.719C64.4275 140.212 63.92 141.226 63.9764 141.734C64.0328 142.241 64.7941 143.086 66.2885 144.298L66.3166 144.326Z" fill="#282420"/>
<path d="M111.853 124.912L126.289 141.255C127.248 142.326 127.84 143.002 128.122 143.284C128.742 143.876 129.278 144.157 129.757 144.157C130.209 144.157 130.773 143.904 131.477 143.34C131.675 143.199 131.985 142.917 132.38 142.551C138.639 136.634 142.643 132.802 144.448 131.111C145.04 130.547 145.491 130.04 145.857 129.561C146.449 128.829 146.506 128.068 145.942 127.307C144.87 125.785 143.602 124.348 142.135 122.996C141.487 122.376 140.782 122.348 139.993 122.94C139.626 123.221 139.006 123.757 138.16 124.517C134.353 128.096 132.521 129.815 132.662 129.674C131.731 130.519 130.942 130.914 130.293 130.886C129.645 130.886 128.912 130.435 128.066 129.533C126.43 127.814 125.021 126.236 123.865 124.771C122.821 123.447 122.37 122.404 122.511 121.643C122.624 121.08 123.188 120.319 124.259 119.305C125.895 117.755 127.107 116.571 127.925 115.726C128.658 114.909 128.714 114.092 128.038 113.246C127.022 111.95 125.979 110.739 124.88 109.555C124.231 108.907 123.695 108.541 123.244 108.513C122.821 108.513 122.257 108.794 121.552 109.386C121.13 109.752 120.453 110.372 119.551 111.246C118.705 112.063 118.028 112.655 117.577 113.077C116.759 113.754 116.026 114.092 115.434 114.092C114.814 114.064 114.137 113.669 113.432 112.88C111.74 111.105 110.049 109.217 108.385 107.216C107.624 106.287 107.257 105.469 107.285 104.793C107.342 104.117 107.793 103.328 108.695 102.426C108.526 102.623 110.359 100.876 114.165 97.2415C114.983 96.4244 115.547 95.8608 115.829 95.4945C116.477 94.7619 116.505 94.0011 115.941 93.2685C115.434 92.5358 114.729 91.6905 113.827 90.7043C112.727 89.4363 111.909 88.8164 111.402 88.8164C110.923 88.8164 110.049 89.38 108.808 90.5634C105.142 94.0293 101.11 97.8332 96.7683 101.975C95.4149 103.272 94.7382 104.173 94.71 104.68C94.71 105.188 95.3303 106.146 96.5991 107.611C97.6141 108.766 102.689 114.514 111.853 124.884V124.912Z" fill="#282420"/>
<path d="M170.67 78.7846L180.2 98.9598C180.736 100.115 181.102 100.82 181.271 101.129C181.751 101.975 182.202 102.482 182.597 102.651C183.048 102.82 183.668 102.707 184.429 102.369C190.858 99.1852 194.918 97.1001 196.638 96.0575C199.627 94.2541 201.516 91.6618 202.334 88.2241C203.067 85.0964 202.757 82.1659 201.432 79.4609C200.642 77.8266 200.022 76.5304 199.599 75.5724C198.076 71.9938 195.708 69.486 192.493 68.1053C191.676 67.7672 191.14 67.3727 190.914 66.95C190.689 66.5273 190.661 65.8792 190.858 64.9776C191.619 61.089 190.689 57.0878 188.067 53.0302C185.924 49.7335 183.302 47.6483 180.2 46.7748C177.155 45.9295 174.11 46.3803 171.065 48.0992C169.937 48.6909 168.527 49.4235 166.807 50.297C164.269 51.5368 162.86 52.2695 162.521 52.4385C160.858 53.312 159.927 53.9883 159.758 54.4391C159.589 54.9181 159.899 56.0453 160.717 57.7641C161.393 59.2011 164.692 66.2174 170.642 78.7564L170.67 78.7846ZM182.428 76.8967C183.132 75.9387 184.232 75.516 185.755 75.6287C187.023 75.7132 188.095 76.1923 188.969 77.0658C191.281 79.3482 192.381 82.1096 192.24 85.3218C192.183 87.2661 191.084 88.7031 188.969 89.6894C187.757 90.2247 186.798 89.8866 186.121 88.7031C185.98 88.4777 185.275 87.0407 184.007 84.3356H183.95C182.794 81.9405 182.202 80.6443 182.117 80.5034C181.61 79.0664 181.694 77.8829 182.399 76.9249L182.428 76.8967ZM172.728 58.074C172.982 57.5387 173.574 57.116 174.476 56.7497C176.394 55.9889 178.001 56.3552 179.326 57.8768C179.411 57.9332 179.918 58.5812 180.849 59.7929C181.525 61.3708 181.835 62.9488 181.751 64.5549C181.751 65.4566 181.356 66.2456 180.651 66.9782C178.649 68.9788 176.958 68.8097 175.548 66.4146C174.223 64.1886 173.292 62.1598 172.756 60.3001C172.474 59.3702 172.474 58.6094 172.756 58.0459L172.728 58.074Z" fill="#282420"/>
<path d="M213.049 59.3698L219.731 82.0528C220.238 83.7435 220.69 84.7015 221.113 84.927C221.535 85.1524 222.551 85.0115 224.158 84.5325C226.329 83.8562 231.263 82.3064 238.961 79.855C239.75 79.6014 240.286 79.4041 240.624 79.2351C241.639 78.7842 242.034 78.0516 241.752 77.0372C241.301 75.262 240.793 73.4868 240.201 71.7398C239.863 70.6691 239.158 70.2746 238.115 70.5282C237.805 70.6127 236.479 71.0072 234.111 71.7116C231.009 72.6415 229.402 73.1205 229.261 73.1487C227.71 73.515 226.639 72.8669 225.962 71.2608C225.765 70.81 225.455 69.8519 225.032 68.3585C223.932 64.6672 222.297 59.0881 220.126 51.7055L215.22 35.0525C214.797 33.6155 214.487 32.6292 214.289 32.122C213.894 31.1358 213.161 30.7695 212.118 31.0231C211.441 31.164 210.398 31.474 208.988 31.9248C207.212 32.4884 206.197 32.9956 205.971 33.4464C205.746 33.9254 205.915 35.0807 206.451 36.9404C206.93 38.6029 209.129 46.07 213.049 59.3698Z" fill="#282420"/>
<path d="M258.951 74.7555C260.558 74.6146 262.532 74.3328 264.816 73.9101C265.831 73.7411 266.395 73.093 266.451 71.9941C266.621 68.2746 266.705 66.1049 266.649 65.5132C266.592 63.4844 266.874 62.2164 267.466 61.6529C267.918 61.2584 269.13 60.9203 271.104 60.6667C271.16 60.6667 271.357 60.6667 271.696 60.6103C272.993 60.4694 273.867 61.0048 274.29 62.2164C274.769 63.5971 275.051 64.4706 275.164 64.8369C275.333 65.4287 275.587 66.3304 275.897 67.5138C276.235 68.6973 276.461 69.599 276.63 70.1907C276.856 70.8951 277.138 71.3742 277.448 71.6278C277.786 71.8814 278.294 71.9941 279.027 71.9377C279.337 71.9377 280.437 71.7968 282.297 71.5432C284.187 71.2896 285.314 70.9797 285.653 70.557C286.132 69.9371 286.048 68.5282 285.343 66.3304C283.707 60.9203 281.423 53.3968 278.547 43.8164C275.305 33.1653 273.021 25.67 271.696 21.3025C271.527 20.6826 271.357 20.2036 271.188 19.8373C270.85 19.0201 270.512 18.4847 270.201 18.2875C269.863 18.0902 269.299 18.0057 268.51 18.0621C268.341 18.0621 267.156 18.2593 264.957 18.5693L261.714 18.9919C260.502 19.161 259.684 19.4709 259.318 19.8654C258.895 20.3163 258.697 21.1898 258.669 22.5423C258.669 23.2749 258.359 32.6017 257.795 50.5791C257.682 53.8477 257.485 60.6385 257.203 70.9515C257.203 72.0786 257.203 72.8112 257.203 73.1212C257.316 74.3046 257.908 74.8682 258.951 74.7555ZM267.156 43.1402C267.241 42.8584 267.438 42.633 267.748 42.5203C268.115 42.3794 268.453 42.5203 268.763 42.9147C269.045 43.281 269.215 43.6474 269.327 43.9855C269.356 44.0982 269.638 44.9717 270.117 46.5778C270.54 47.9022 270.85 48.8884 271.047 49.5647C271.245 50.2691 271.329 50.7199 271.301 50.889C271.301 51.4526 270.596 51.847 269.299 52.0161C267.833 52.2415 267.072 52.0725 266.987 51.4526C266.959 51.199 266.931 50.8608 266.874 50.4382C266.705 47.1414 266.79 44.7181 267.156 43.1402Z" fill="#282420"/>
<path d="M317.486 71.0075C322.561 69.7958 325.663 66.499 326.819 61.1171C327.129 59.5673 327.242 56.6087 327.157 52.2693C327.157 51.1422 326.593 50.5505 325.55 50.4659C323.802 50.3251 322.138 50.2405 320.531 50.2687C319.742 50.2687 319.206 50.4378 318.896 50.7477C318.614 51.0577 318.445 51.6212 318.36 52.4947C318.332 53.0583 318.276 53.7627 318.219 54.6362C318.191 55.7915 318.163 56.496 318.163 56.7777C318.106 58.2148 317.627 59.4264 316.753 60.4127C315.879 61.3425 314.836 61.7652 313.708 61.6525C312.552 61.5398 311.649 60.9199 310.945 59.8209C310.493 59.0883 310.211 58.243 310.127 57.2286C310.042 56.2705 309.986 55.2561 310.014 54.1572C310.183 47.9581 310.381 40.4065 310.634 31.5306C310.634 30.5725 310.719 29.7554 310.804 29.0791C310.945 27.9238 311.396 26.9376 312.185 26.0923C313.003 25.2188 313.905 24.7961 314.948 24.8243C315.992 24.8525 316.866 25.3315 317.627 26.2332C318.473 27.2194 318.868 28.4592 318.896 29.8963C318.896 32.3759 318.896 33.5875 318.896 33.5594C318.952 34.6583 319.516 35.25 320.531 35.3627C322.11 35.4754 323.661 35.5318 325.24 35.5318C326.142 35.5318 326.762 35.3909 327.101 35.081C327.439 34.771 327.608 34.1511 327.665 33.2212C327.749 32.066 327.806 30.2344 327.806 27.7266C327.834 25.3033 327.326 23.3872 326.227 21.9502C323.83 18.8225 321.715 16.9064 319.854 16.1738C319.206 15.9202 318.529 15.7793 317.824 15.7229C316.838 15.6666 315.259 15.6102 313.116 15.582C312.326 15.582 311.452 15.7229 310.522 16.0329C308.069 16.9346 306.067 18.5125 304.488 20.7385C302.993 22.9082 302.288 25.2188 302.317 27.6421C302.345 28.4029 302.232 33.3903 301.95 42.6044L301.527 58.5248C301.414 61.0607 301.865 63.1177 302.909 64.6675C306.631 70.2185 311.48 72.3036 317.43 70.8947L317.486 71.0075Z" fill="#282420"/>
<path d="M343.821 72.952C345.259 73.3183 346.697 73.6564 348.192 73.91C348.896 73.9946 349.432 73.91 349.771 73.6846C350.081 73.431 350.363 72.952 350.532 72.2194C350.645 71.7685 350.983 70.0779 351.547 67.1474C352.562 62.0191 353.069 59.4831 353.041 59.5958C353.323 58.2433 353.831 57.2852 354.536 56.7217C354.789 56.5244 355.1 56.4399 355.41 56.5244C355.72 56.5526 355.974 56.7217 356.115 56.9753C356.453 57.5106 356.735 58.3841 356.932 59.5958C357.073 60.4129 357.581 63.3152 358.427 68.359C358.934 71.3177 359.188 72.9238 359.216 73.2056C359.526 75.5161 360.711 76.7841 362.769 77.0659C363.305 77.1223 364.009 77.235 364.855 77.4322C365.983 77.6858 366.66 77.8549 366.885 77.8831C367.506 77.9958 368.07 78.0521 368.662 78.0521C368.972 78.0521 369.226 77.9394 369.451 77.714C369.677 77.4604 369.79 77.2068 369.761 76.8687C369.733 76.1642 369.649 75.4316 369.508 74.699C367.929 66.1048 366.491 58.2433 365.166 51.1707C364.799 49.1137 364.461 47.423 364.15 46.0423C363.868 44.7743 364.15 43.6191 364.968 42.6328C364.799 42.8019 365.222 42.2384 366.237 40.914C372.468 32.6298 375.795 28.2059 376.247 27.6142C376.81 26.8534 377.29 26.1771 377.656 25.6135C377.826 25.3599 377.882 25.1063 377.797 24.8527C377.713 24.5991 377.544 24.4301 377.29 24.3456C375.203 23.6693 372.778 23.1903 370.015 22.824C369.339 22.7394 368.718 22.993 368.211 23.6129C367.901 23.9792 367.449 24.5428 366.885 25.2754C366.406 25.8953 365.588 26.9942 364.404 28.544C363.361 29.9247 362.543 31.0237 361.923 31.8126C361.19 32.827 360.541 33.4751 360.062 33.7287C359.724 33.9259 359.385 33.9259 359.047 33.7287C358.709 33.5596 358.539 33.2779 358.539 32.8834C358.483 32.0662 358.539 31.2491 358.709 30.4601C358.821 29.6711 359.019 28.6849 359.244 27.4451L359.837 24.4019C360.006 23.472 360.118 22.7676 360.118 22.2886C360.175 21.3024 359.78 20.6825 358.906 20.4289C357.271 20.0062 355.635 19.6681 354 19.4145C353.069 19.2736 352.477 19.6681 352.195 20.6261C351.998 21.2742 351.801 22.1477 351.575 23.303C350.927 26.6561 349.489 34.1795 347.205 45.9296L342.975 67.9082C342.722 69.2607 342.552 70.1624 342.524 70.6132C342.44 71.3177 342.496 71.8249 342.665 72.163C342.863 72.5293 343.285 72.7829 343.878 72.9238L343.821 72.952Z" fill="#282420"/>
<path d="M303.191 540.025C301.95 539.856 300.54 539.715 298.961 539.602C297.805 539.517 297.044 539.602 296.678 539.799C296.311 540.025 296.001 540.673 295.691 541.715C295.437 542.645 295.127 543.829 294.76 545.266C294.225 547.379 293.943 548.562 293.858 548.844C293.294 551.014 292.815 552.761 292.42 554.113C292.279 554.677 291.941 554.959 291.405 554.959C290.926 554.959 290.644 554.677 290.503 554.057C290.334 553.381 290.249 552.845 290.249 552.451C290.193 551.408 290.108 549.943 290.023 548.083C289.911 546.055 289.826 544.618 289.798 543.744C289.798 543.603 289.713 542.504 289.544 540.475C289.459 539.377 288.896 538.757 287.824 538.616C285.738 538.39 283.933 538.221 282.467 538.137C281.48 538.08 280.86 538.531 280.606 539.461C280.239 540.757 279.591 543.209 278.689 546.844C278.576 547.154 278.35 548.112 277.956 549.774C277.645 550.958 277.392 551.944 277.194 552.676C277.081 553.071 276.884 553.381 276.602 553.634C276.32 553.86 276.066 553.916 275.869 553.832C275.39 553.663 275.136 553.212 275.08 552.507C275.023 551.69 274.967 550.591 274.882 549.239C274.798 547.576 274.741 546.505 274.713 545.97C274.572 543.603 274.403 541.264 274.234 538.954C274.149 537.996 273.613 537.432 272.655 537.291C272.514 537.291 271.583 537.179 269.835 537.038V536.925C269.158 536.869 268.764 536.812 268.735 536.812C267.326 536.671 266.423 536.728 266.057 537.038C265.578 537.432 265.38 538.39 265.521 539.912C265.69 542.222 266.564 555.043 268.172 578.431C268.228 579.248 268.369 581.051 268.623 583.869C268.735 584.912 269.328 585.503 270.427 585.672C271.273 585.785 272.232 585.898 273.247 586.011C274.967 586.18 276.038 586.095 276.489 585.785C276.94 585.503 277.363 584.602 277.758 583.024C278.294 580.995 279.253 577.304 280.634 571.922C280.888 570.879 281.17 570.231 281.508 569.921C281.762 569.696 282.016 569.611 282.241 569.639C282.58 569.696 282.749 569.865 282.833 570.146C283.087 571.02 283.256 572.288 283.285 573.922C283.313 574.965 283.454 576.853 283.679 579.614C283.877 582.009 283.961 583.925 283.961 585.334C283.961 586.292 284.441 586.828 285.484 586.997C287.119 587.25 288.726 587.419 290.277 587.504C291.095 587.532 291.687 587.419 291.997 587.194C292.335 586.94 292.617 586.405 292.843 585.616C292.871 585.532 292.899 585.391 292.928 585.222C292.984 585.024 293.012 584.883 293.04 584.827C295.268 576.571 296.678 571.302 297.326 569.019C297.524 568.259 297.834 567.132 298.285 565.582C298.708 564.088 299.046 562.961 299.272 562.172C299.807 560.2 301.189 555.128 303.388 546.9C304.121 544.167 304.544 542.589 304.629 542.138C304.798 541.49 304.77 541.011 304.544 540.701C304.319 540.363 303.868 540.165 303.163 540.081L303.191 540.025Z" fill="#282420"/>
<path d="M346.048 540.025C345.935 539.151 345.851 538.531 345.766 538.165C345.541 537.207 344.949 536.728 344.018 536.756C343.341 536.784 342.298 536.869 340.888 537.038C339.112 537.235 338.069 537.517 337.759 537.855C337.477 538.221 337.42 539.236 337.589 540.898C337.759 542.251 337.984 544.308 338.323 546.985C338.633 549.661 338.886 551.69 339.027 553.043C339.14 554.029 339.197 554.846 339.168 555.466C339.14 556.537 338.576 557.185 337.533 557.438C336.631 557.664 335.729 557.833 334.742 557.889C333.529 557.974 332.712 557.889 332.26 557.523C331.809 557.185 331.499 556.452 331.33 555.325C331.33 555.156 331.245 554.536 331.104 553.437L329.751 542.082C329.638 541.067 329.525 540.363 329.441 539.94C329.215 538.982 328.623 538.531 327.693 538.531C327.044 538.559 326.001 538.644 324.563 538.813C322.787 539.01 321.743 539.292 321.433 539.63C321.123 539.996 321.067 541.011 321.264 542.673C321.405 543.97 322.223 550.789 323.689 563.158L326.029 582.883C326.17 584.066 326.255 584.771 326.311 585.024C326.452 585.87 326.678 586.405 327.016 586.687C327.298 586.912 327.862 587.025 328.708 586.969C329.187 586.94 330.061 586.856 331.274 586.715C332.994 586.49 334.009 586.18 334.347 585.785C334.685 585.419 334.742 584.404 334.544 582.742C334.375 581.164 334.15 579.079 333.839 576.543C333.445 573.162 333.191 571.076 333.106 570.344C332.994 569.329 332.937 568.597 332.909 568.146C332.909 567.047 333.445 566.399 334.488 566.202C335.503 566.004 336.8 565.835 338.407 565.723C339.309 565.666 339.958 566.089 340.353 566.991C340.635 567.667 340.86 568.625 341.029 569.893L342.439 581.756C342.58 582.686 342.693 583.418 342.806 583.925C343.031 584.743 343.567 585.137 344.469 585.109C345.118 585.109 346.048 585.024 347.289 584.883C349.206 584.658 350.334 584.348 350.672 583.954C351.011 583.531 351.095 582.432 350.898 580.657C349.827 571.584 348.219 558.002 346.076 539.884L346.048 540.025Z" fill="#282420"/>
<path d="M375.964 554.283L370.635 534.84C370.325 533.741 370.1 532.952 369.93 532.501C369.592 531.6 368.915 531.205 367.957 531.374C367.308 531.487 366.293 531.74 364.94 532.079C363.192 532.529 362.205 532.952 361.979 533.318C361.725 533.713 361.81 534.727 362.261 536.362C364.686 545.181 368.295 558.397 373.145 576.008C373.399 576.937 373.624 577.642 373.821 578.093C374.188 578.994 374.865 579.361 375.795 579.22C376.528 579.107 377.543 578.882 378.84 578.544C380.532 578.121 381.519 577.698 381.773 577.304C381.998 576.909 381.885 575.867 381.434 574.204C381.04 572.739 379.207 566.089 375.964 554.254V554.283Z" fill="#282420"/>
<path d="M414.565 542.758C412.055 541.603 409.715 540.758 407.459 540.222C406.078 539.884 404.696 539.405 403.286 538.757C400.41 537.404 398.606 535.46 397.873 532.924C397.365 531.093 397.788 529.74 399.17 528.867C400.551 527.993 401.989 528.247 403.455 529.599C403.625 529.74 403.85 529.965 404.132 530.275C404.47 530.614 404.696 530.839 404.809 530.952C405.429 531.515 406.106 531.656 406.867 531.318C408.39 530.642 409.94 529.656 411.519 528.331C412.083 527.88 412.168 527.317 411.773 526.641C410.279 524.105 408.361 522.358 405.965 521.399C401.707 519.681 397.421 520.413 393.108 523.541C391.218 524.865 389.95 526.669 389.273 528.895C388.54 531.233 388.624 533.657 389.498 536.165C391.021 540.504 394.123 543.66 398.747 545.66C398.944 545.745 401.538 546.759 406.557 548.675C409.264 549.718 410.815 550.31 411.237 550.479C413.07 551.268 414.395 552.564 415.213 554.424C415.608 555.297 415.664 556.199 415.41 557.157C415.157 558.087 414.677 558.819 414.001 559.327C412.534 560.369 410.871 560.228 409.066 558.904C408.756 558.679 408.502 558.453 408.277 558.171C408.108 558.002 407.91 557.749 407.657 557.439C407.375 557.072 407.177 556.819 407.064 556.706C406.585 556.114 406.134 555.776 405.767 555.663C405.401 555.551 404.865 555.663 404.217 555.973C403.484 556.283 402.13 557.072 400.128 558.284C399.48 558.65 399.282 559.186 399.564 559.918C399.762 560.454 399.987 560.933 400.269 561.384C401.51 563.328 403.427 565.131 405.993 566.794C406.839 567.301 407.967 567.667 409.433 567.893C411.717 568.231 414.085 567.836 416.482 566.681C418.681 565.61 419.865 565.047 419.978 564.99C421.755 563.92 423.023 562.257 423.756 559.975C424.518 557.777 424.602 555.607 423.982 553.466C422.629 548.563 419.499 544.984 414.593 542.758H414.565Z" fill="#282420"/>
<path d="M469.547 533.319C462.892 528.979 456.83 525.034 451.332 521.484C449.753 520.441 448.428 519.596 447.328 518.948C446.313 518.328 445.749 517.455 445.665 516.299C445.665 516.525 445.58 515.877 445.411 514.411C444.227 505.197 443.606 500.266 443.522 499.618C443.409 498.773 443.296 498.04 443.155 497.448C443.099 497.167 442.986 496.998 442.76 496.885C442.535 496.772 442.337 496.8 442.084 496.885C440.251 497.815 438.277 499.083 436.191 500.661C435.683 501.055 435.429 501.591 435.486 502.323C435.486 502.774 435.57 503.394 435.655 504.239C435.74 504.944 435.881 506.155 436.106 507.874C436.304 509.424 436.445 510.636 436.557 511.509C436.727 512.636 436.698 513.425 436.557 513.904C436.445 514.242 436.219 514.468 435.881 514.58C435.542 514.693 435.232 514.637 434.978 514.383C434.414 513.904 433.935 513.369 433.512 512.777C433.089 512.214 432.554 511.481 431.933 510.551L430.354 508.297C429.875 507.592 429.48 507.113 429.17 506.775C428.578 506.099 427.901 505.986 427.14 506.409C425.787 507.198 424.433 508.043 423.164 508.973C422.459 509.48 422.318 510.128 422.741 510.917C423.023 511.453 423.446 512.129 424.067 513.003C425.815 515.51 429.734 521.146 435.824 529.909L447.244 546.337C447.948 547.351 448.428 547.999 448.71 548.309C449.105 548.816 449.471 549.098 449.809 549.183C450.176 549.267 450.627 549.183 451.106 548.873C452.319 548.168 453.503 547.436 454.659 546.618C455.195 546.224 455.505 545.829 455.59 545.463C455.646 545.097 455.505 544.618 455.138 544.054C454.913 543.716 454.067 542.42 452.516 540.222C449.866 536.362 448.569 534.474 448.625 534.558C447.948 533.544 447.667 532.614 447.751 531.797C447.808 531.487 447.949 531.262 448.202 531.093C448.456 530.923 448.71 530.867 448.964 530.923C449.556 531.036 450.289 531.403 451.219 532.022C451.84 532.445 454.067 533.938 457.93 536.503C460.186 538.024 461.426 538.841 461.624 539.01C463.315 540.25 464.951 540.278 466.53 539.095C466.924 538.785 467.488 538.419 468.165 537.968C469.095 537.404 469.659 537.066 469.829 536.953C470.308 536.615 470.731 536.277 471.126 535.911C471.323 535.714 471.436 535.488 471.436 535.178C471.436 534.897 471.323 534.643 471.097 534.446C470.618 534.023 470.082 533.629 469.518 533.262L469.547 533.319Z" fill="#282420"/>
<path d="M502.366 500.857C501.718 500.322 501.041 500.322 500.336 500.857C499.97 501.111 499.406 501.618 498.616 502.323C495.064 505.591 493.372 507.141 493.485 507.028C492.611 507.789 491.878 508.184 491.257 508.155C490.637 508.155 489.932 507.789 489.086 507.028C487.479 505.563 486.097 504.182 484.97 502.943C483.955 501.787 483.503 500.886 483.616 500.238C483.701 499.759 484.237 499.054 485.223 498.152C486.746 496.744 487.874 495.645 488.635 494.884C489.34 494.151 489.34 493.419 488.691 492.686C487.705 491.587 486.69 490.516 485.59 489.502C484.941 488.938 484.434 488.628 484.011 488.628C483.588 488.628 483.08 488.91 482.432 489.446C482.037 489.784 481.389 490.347 480.543 491.136C479.753 491.869 479.133 492.432 478.682 492.799C477.921 493.419 477.216 493.729 476.652 493.757C476.06 493.757 475.411 493.419 474.706 492.742C473.043 491.221 471.407 489.615 469.772 487.868C469.039 487.05 468.672 486.346 468.672 485.754C468.672 485.163 469.123 484.458 469.969 483.613C469.828 483.782 471.52 482.204 475.073 478.907C475.834 478.174 476.342 477.639 476.624 477.329C477.216 476.653 477.244 476.005 476.68 475.357C476.172 474.737 475.496 474.004 474.622 473.159C473.522 472.088 472.761 471.553 472.281 471.553C471.83 471.553 471.013 472.088 469.828 473.159C466.389 476.315 462.667 479.781 458.606 483.556C457.338 484.74 456.717 485.557 456.717 486.008C456.717 486.459 457.338 487.304 458.578 488.544C459.565 489.53 464.556 494.489 473.494 503.393L487.62 517.454C488.55 518.384 489.143 518.947 489.425 519.201C490.017 519.708 490.552 519.962 491.004 519.934C491.426 519.934 491.99 519.68 492.639 519.173C492.836 519.032 493.09 518.778 493.485 518.44C499.321 513.03 503.071 509.564 504.735 508.015C505.271 507.507 505.722 507.057 506.06 506.606C506.624 505.929 506.624 505.253 506.088 504.605C505.017 503.281 503.776 502.041 502.366 500.914V500.857Z" fill="#282420"/>
<path d="M531.578 470.905C529.406 469.412 525.374 466.622 519.453 462.536C518.325 461.747 517.451 460.93 516.831 460.113C514.265 456.534 509.303 449.715 501.972 439.684C501.634 439.205 501.323 438.839 501.098 438.614C500.759 438.275 500.393 438.078 499.97 438.078C499.547 438.078 499.18 438.247 498.899 438.585C497.94 439.769 496.727 441.403 495.261 443.432C494.754 444.08 494.782 444.784 495.261 445.489C495.628 445.968 496.474 447.067 497.771 448.757C498.109 449.208 498.842 450.194 499.998 451.716C500.929 452.928 501.69 453.914 502.282 454.675C502.649 455.154 502.705 455.548 502.423 455.915C502.169 456.253 501.746 456.365 501.126 456.253C500.703 456.168 500.252 456.055 499.773 455.915C499.18 455.746 498.391 455.492 497.348 455.154C496.22 454.787 495.402 454.534 494.895 454.393C492.808 453.745 491.229 453.238 490.073 452.9C489.143 452.618 488.41 452.73 487.93 453.21C486.408 454.787 484.998 456.619 483.786 458.676C483.645 458.93 483.645 459.211 483.729 459.493C483.842 459.775 484.039 459.944 484.293 460.057C485.054 460.367 485.844 460.62 486.69 460.874C492.611 462.593 498.024 464.114 502.931 465.523C504.876 466.087 507.047 466.678 509.444 467.327C512.151 468.059 514.434 469.102 516.267 470.454C516.465 470.595 518.072 471.694 521.089 473.779L524.98 476.484C526.756 477.696 527.828 478.429 528.222 478.682C528.814 479.02 529.266 479.161 529.66 479.077C530.027 478.992 530.45 478.71 530.929 478.203C531.183 477.893 531.69 477.245 532.452 476.259C533.579 474.737 534.115 473.751 534.059 473.272C533.974 472.821 533.157 472.06 531.549 470.961L531.578 470.905Z" fill="#282420"/>
<path d="M571.954 390.204C561.86 386.963 548.382 382.652 531.549 377.242C530.76 376.988 530.027 376.791 529.378 376.65C528.589 376.481 528.053 376.735 527.743 377.411C527.32 378.313 526.925 379.355 526.502 380.482C525.967 382.117 525.769 383.131 525.995 383.526C526.192 383.948 527.123 384.427 528.786 384.963C528.532 384.878 533.438 386.456 543.504 389.697C544.604 390.035 545.309 390.288 545.619 390.401C546.014 390.57 546.493 390.824 547.085 391.19C547.48 391.444 547.621 391.754 547.536 392.12C547.452 392.486 547.17 392.712 546.719 392.74C546.409 392.74 546.042 392.74 545.619 392.74C544.266 392.712 541.643 392.627 537.696 392.486C534.397 392.373 531.747 392.317 529.773 392.261C529.068 392.233 528.138 392.204 526.953 392.176C525.544 392.176 524.613 392.148 524.162 392.12C523.119 392.092 522.442 392.486 522.132 393.275C521.258 395.614 520.525 397.671 519.961 399.446C519.707 400.207 520.017 400.799 520.919 401.165C521.427 401.39 522.216 401.7 523.288 402.038C526.22 402.968 532.818 405.11 543.11 408.407C553.373 411.703 559.999 413.817 562.931 414.775C564.031 415.141 564.849 415.366 565.356 415.451C566.428 415.676 567.189 415.31 567.64 414.324C567.837 413.901 568.119 413.14 568.514 412.041C569.163 410.238 569.36 409.111 569.163 408.716C568.965 408.294 567.95 407.787 566.146 407.223C564.426 406.688 561.973 405.899 558.787 404.856C555.403 403.785 552.95 402.996 551.427 402.489C550.018 402.038 549.059 401.616 548.608 401.221C548.27 400.939 548.1 400.629 548.157 400.291C548.213 399.897 548.467 399.7 548.946 399.643C549.933 399.559 550.779 399.531 551.512 399.531C553.768 399.531 556.615 399.559 560.112 399.615C565.187 399.643 568.063 399.671 568.74 399.671C568.994 399.671 569.36 399.671 569.896 399.671C570.403 399.671 570.77 399.671 570.995 399.671C572.208 399.671 572.997 399.164 573.392 398.122C573.871 396.854 574.238 395.811 574.52 395.022C575.14 393.275 575.338 392.176 575.084 391.725C574.858 391.275 573.843 390.767 572.039 390.176L571.954 390.204Z" fill="#282420"/>
<path d="M583.345 346.782C581.654 346.359 579.877 346.106 578.045 345.993C577.199 345.936 576.663 346.331 576.437 347.204C576.325 347.627 576.155 348.332 575.986 349.346C575.197 353.995 574.83 356.221 574.858 356.052C574.661 357.151 574.295 357.884 573.787 358.25C573.308 358.616 572.49 358.729 571.334 358.616C569.106 358.391 567.161 358.109 565.469 357.743C563.947 357.433 562.988 356.982 562.678 356.39C562.452 355.94 562.424 355.066 562.65 353.798C562.988 351.797 563.214 350.276 563.326 349.233C563.411 348.247 562.96 347.655 561.973 347.458C560.479 347.148 558.984 346.895 557.518 346.725C556.644 346.641 556.052 346.725 555.713 346.951C555.375 347.204 555.15 347.712 554.952 348.501C554.839 349.008 554.698 349.825 554.529 350.924C554.36 351.966 554.219 352.755 554.106 353.319C553.881 354.277 553.542 354.897 553.091 355.263C552.612 355.601 551.879 355.714 550.892 355.601C548.608 355.348 546.268 355.038 543.871 354.615C542.771 354.418 542.038 354.052 541.672 353.573C541.334 353.094 541.221 352.276 541.362 351.149C541.362 351.375 541.728 349.149 542.461 344.443C542.602 343.429 542.687 342.696 542.715 342.302C542.771 341.428 542.377 340.893 541.531 340.695C540.741 340.498 539.726 340.301 538.486 340.16C536.935 339.935 535.976 339.963 535.582 340.245C535.215 340.498 534.905 341.4 534.651 342.95C533.89 347.43 533.072 352.361 532.226 357.715C531.944 359.377 531.972 360.392 532.254 360.758C532.536 361.124 533.551 361.434 535.328 361.688C536.738 361.885 543.843 362.928 556.616 364.815L576.748 367.774C578.073 367.971 578.919 368.084 579.285 368.112C580.075 368.169 580.667 368.056 581.005 367.774C581.343 367.521 581.625 367.013 581.823 366.224C581.879 365.999 581.964 365.661 582.02 365.154C583.289 357.489 584.079 352.558 584.445 350.36C584.558 349.656 584.614 349.008 584.614 348.472C584.614 347.599 584.219 347.064 583.374 346.866L583.345 346.782Z" fill="#282420"/>
<path d="M585.122 314.66C581.738 314.125 579.764 313.843 579.229 313.815C577.368 313.646 576.24 313.279 575.789 312.659C575.479 312.209 575.309 311.082 575.309 309.25C575.309 309.194 575.309 309.025 575.309 308.715C575.309 307.531 575.93 306.798 577.058 306.517C578.355 306.207 579.2 306.038 579.539 305.981C580.103 305.869 580.949 305.756 582.076 305.587C583.204 305.418 584.05 305.277 584.614 305.192C585.291 305.08 585.77 304.854 586.024 304.601C586.306 304.319 586.447 303.868 586.503 303.22C586.503 302.938 586.503 301.924 586.503 300.205C586.503 298.458 586.334 297.387 585.996 297.049C585.488 296.542 584.191 296.485 582.105 296.908C576.973 297.838 569.839 299.134 560.76 300.797C550.666 302.656 543.561 303.953 539.416 304.713C538.824 304.826 538.373 304.911 538.006 305.023C537.217 305.249 536.709 305.474 536.484 305.756C536.258 306.038 536.117 306.545 536.089 307.278C536.089 307.447 536.089 308.517 536.145 310.546H536.117L536.173 313.561C536.173 314.688 536.371 315.449 536.709 315.844C537.076 316.266 537.865 316.548 539.078 316.717C539.726 316.83 548.241 318.041 564.595 320.38C567.584 320.803 573.759 321.676 583.148 323.001C584.191 323.142 584.84 323.226 585.122 323.226C586.221 323.226 586.785 322.775 586.813 321.817C586.87 320.324 586.813 318.52 586.729 316.379C586.701 315.449 586.165 314.885 585.15 314.688L585.122 314.66ZM566.399 312.096C566.174 312.096 565.836 312.096 565.441 312.096C562.424 311.899 560.196 311.589 558.815 311.082C558.561 310.969 558.392 310.772 558.307 310.49C558.194 310.152 558.364 309.87 558.787 309.616C559.153 309.419 559.52 309.278 559.83 309.222C559.943 309.222 560.76 309.053 562.283 308.771C563.552 308.517 564.482 308.348 565.131 308.236C565.807 308.123 566.23 308.095 566.371 308.151C566.879 308.236 567.161 308.884 567.189 310.095C567.245 311.448 566.992 312.124 566.428 312.124L566.399 312.096Z" fill="#282420"/>
<path d="M543.392 273.182C543.702 273.098 544.463 272.929 545.619 272.703L561.747 269.519C569.952 267.913 575.422 266.842 578.157 266.307C579.229 266.082 579.99 265.913 580.385 265.8C581.428 265.49 581.879 264.898 581.738 264.025C581.485 262.419 581.118 260.728 580.639 258.981C580.413 258.164 579.849 257.826 578.919 257.91C578.298 257.995 577.34 258.164 576.127 258.389C572.123 259.178 566.879 260.192 560.422 261.489L544.689 264.532C543.335 264.785 542.49 264.954 542.179 265.039C541.108 265.152 540.318 265.067 539.839 264.785C539.332 264.475 538.965 263.799 538.683 262.813C538.599 262.503 538.486 262.024 538.345 261.376C538.204 260.728 538.091 260.249 537.978 259.911C537.809 259.347 537.583 258.981 537.273 258.784C536.963 258.615 536.512 258.558 535.892 258.643C535.271 258.727 534.228 258.896 532.818 259.178C531.183 259.516 530.224 259.883 529.971 260.249C529.717 260.615 529.745 261.601 530.083 263.151C530.45 265.067 531.606 270.505 533.495 279.438C533.664 280.199 533.777 280.706 533.862 281.016C534.059 281.607 534.313 282.03 534.566 282.227C534.877 282.425 535.328 282.481 535.92 282.396C537.527 282.143 539.106 281.833 540.629 281.467C541.277 281.298 541.7 281.044 541.897 280.734C542.095 280.424 542.151 279.917 542.038 279.212C542.01 278.902 541.897 278.367 541.728 277.606C541.615 276.93 541.531 276.366 541.446 275.972C541.362 275.127 541.446 274.535 541.756 274.112C542.038 273.718 542.574 273.408 543.42 273.154L543.392 273.182Z" fill="#282420"/>
<path d="M514.378 303.952C514.378 274.789 508.541 247.005 498.052 221.646L485.872 234.325C493.964 255.994 498.391 279.466 498.391 303.952C498.391 414.127 409.01 503.45 298.764 503.45C286.132 503.45 273.754 502.267 261.771 500.012L248.97 513.594C264.957 517.37 281.621 519.427 298.764 519.427C417.835 519.427 514.378 422.947 514.378 303.952Z" fill="#282420"/>
<path d="M329.723 419.537C332.12 416.719 333.671 413.31 334.319 409.337C350.926 405.279 366.011 393.416 365.729 388.598C365.447 383.357 361.387 382.991 357.722 384.709C354.056 386.456 344.329 386.795 344.329 386.795C374.47 373.974 377.177 334.356 375.541 318.013C373.906 301.67 353.126 299.134 354.958 310.884C356.791 322.662 357.722 353.517 346.923 368.789C336.124 384.061 331.528 377.975 331.528 377.975C337.646 376.002 337.759 369.099 339.789 364.083C343.652 354.616 334.432 348.388 326.17 354.982C322.984 357.546 320.954 361.012 318.811 364.647C316.189 369.071 313.341 373.72 307.928 377.242C306.292 378.313 304.431 379.299 302.26 380.116C291.659 384.118 274.29 385.019 263.209 384.681C260.361 382.23 257.542 379.694 254.75 376.961C241.019 363.548 230.107 349.036 224.073 336.075C218.8 324.747 218.659 317.421 220.83 315.167C221.705 314.265 223.425 313.73 225.906 313.73C229.289 313.73 234.083 314.744 240.145 317.224C239.976 310.574 240.596 304.741 241.244 300.599C227.372 296.006 216.263 297.133 209.524 303.896H209.468C208.509 304.938 201.939 312.406 192.55 323.057L167.033 300.937C151.807 287.75 127.079 291.272 111.881 308.771L85.8284 338.78C78.6949 347.008 74.6347 357.123 74.4091 367.324C74.1553 378.2 78.2437 387.837 85.8848 394.459L111.092 416.297C109.287 418.438 107.793 420.185 106.778 421.425C90.1424 441.628 97.0222 460.648 106.947 478.203C117.07 496.124 130.322 509.565 158.912 530.219C172.728 540.194 185.698 542.955 195.877 542.955C208.114 542.955 216.291 538.954 216.883 538.644L218.124 538.024L329.695 419.621L329.61 419.537H329.723ZM98.8831 379.553C95.7534 376.848 94.118 372.678 94.2308 367.775C94.3436 362.167 96.7121 356.475 100.829 351.713L126.882 321.704C134.805 312.575 147.324 309.898 154.204 315.843L179.608 337.878C161.675 358.279 139.513 383.554 124.034 401.391L98.8831 379.581V379.553ZM208.65 524.837C204.336 526.499 187.841 531.318 168.358 517.257C141.797 498.096 129.842 486.093 120.932 470.341C110.556 451.998 110.133 442.586 119.184 431.569C128.658 420.044 179.326 362.365 205.661 332.44C206.648 335.737 207.945 339.202 209.608 342.809C216.432 357.462 228.5 373.664 243.613 388.401C258.698 403.138 275.192 414.803 290.023 421.284C294.337 423.172 298.426 424.553 302.288 425.454L208.65 524.809V524.837Z" fill="#282420"/>
<path d="M114.25 519.737C110.951 515.82 105.114 515.341 101.195 518.638L81.0631 550.253C80.8939 549.098 80.3864 547.971 79.5687 547.013L70.1513 536.221C67.811 533.544 63.7508 533.262 61.1004 535.601L37.726 573.613L21.2877 599.79C20.0753 601.706 22.5002 603.819 24.2483 602.41L46.8332 584.067L60.1699 572.457L63.5534 581.559C63.8354 583.109 64.4839 584.63 65.5835 585.926L66.5422 587.053C69.8411 590.97 75.6777 591.449 79.5969 588.152L126.487 548.535C130.406 545.238 130.885 539.405 127.586 535.488L114.278 519.737H114.25Z" fill="#282420"/>
<path d="M31.2974 495.194C31.1282 496.237 31.2128 497.336 31.6076 498.407L31.9459 499.336C33.1583 502.549 36.7674 504.127 39.9536 502.915L78.4128 488.206C81.6271 486.995 83.2061 483.388 81.9937 480.204L77.0594 467.298C75.847 464.086 72.2379 462.508 69.0517 463.72L49.3146 479.302C49.4556 478.541 49.3992 477.696 49.089 476.935L45.5082 468.031C44.6341 465.833 42.1246 464.762 39.8972 465.636L16.6919 484.515L0.479275 497.449C-0.704954 498.407 0.338295 500.266 1.77629 499.759L20.16 493.137L31.1564 488.742L31.2974 495.251V495.194Z" fill="#282420"/>
<path d="M173.687 568.005L160.943 562.651C157.785 561.327 154.147 562.82 152.822 565.976L136.863 603.931C135.538 607.087 137.032 610.722 140.19 612.046L141.093 612.441C142.136 612.892 143.235 613.004 144.307 612.864L150.82 613.202L146.055 624.05L138.837 642.197C138.273 643.605 140.106 644.704 141.093 643.549L154.57 627.77L174.223 605.199C175.181 603.03 174.195 600.494 171.995 599.536L163.198 595.675C162.437 595.337 161.619 595.253 160.83 595.365L177.042 576.148C178.368 572.992 176.873 569.357 173.715 568.033L173.687 568.005Z" fill="#282420"/>
<path d="M505.835 124.348C509.134 128.265 514.97 128.772 518.889 125.503L539.134 93.9442C539.303 95.0995 539.811 96.2266 540.629 97.1846L549.99 108.005C552.302 110.682 556.362 110.992 559.04 108.653L582.556 70.7258L599.079 44.6051C600.291 42.689 597.894 40.5475 596.146 41.9846L573.477 60.2719L560.112 71.8247L556.757 62.7233C556.475 61.1736 555.826 59.652 554.727 58.3558L553.796 57.2287C550.497 53.312 544.661 52.8048 540.741 56.0734L493.682 95.5221C489.763 98.8189 489.256 104.652 492.526 108.568L505.778 124.376L505.835 124.348Z" fill="#282420"/>
<path d="M618.224 144.805L599.84 151.37L588.815 155.738L588.702 149.229C588.872 148.186 588.787 147.087 588.392 146.016L588.054 145.087C586.841 141.874 583.261 140.268 580.046 141.48L541.531 156.048C538.316 157.259 536.709 160.838 537.922 164.05L542.828 176.984C544.04 180.196 547.621 181.802 550.835 180.59L570.629 165.093C570.488 165.854 570.544 166.699 570.854 167.46L574.379 176.392C575.253 178.59 577.762 179.689 579.962 178.815L603.251 160.021L619.521 147.144C620.705 146.214 619.662 144.326 618.224 144.833V144.805Z" fill="#282420"/>
<path d="M446.567 75.8821L459.311 81.2922C462.469 82.6447 466.106 81.1513 467.46 77.9954L483.56 40.0965C484.913 36.9406 483.419 33.3057 480.261 31.9532L479.359 31.5587C478.315 31.1078 477.216 30.9951 476.172 31.1078L469.659 30.7415L474.452 19.9213L481.727 1.80308C482.291 0.394201 480.458 -0.732905 479.471 0.422379L465.937 16.1455L446.228 38.6594C445.27 40.8291 446.228 43.3651 448.428 44.3513L457.197 48.2398C457.958 48.578 458.776 48.6625 459.565 48.5498L443.296 67.7106C441.943 70.8665 443.437 74.5014 446.595 75.8539L446.567 75.8821Z" fill="#282420"/>
<path d="M282.382 228.183L282.551 229.705C282.495 230.803 282.495 232.015 282.58 233.255C282.608 233.819 282.664 234.382 282.749 234.946C282.805 235.368 282.862 235.791 282.918 236.214C283.087 237.313 283.313 238.468 283.623 239.679L273.303 247.541C255.455 257.6 243.979 262.024 246.799 273.803C247.448 276.536 250.239 278.452 252.805 279.466C243.162 302.375 248.293 329.707 253.904 342.021C261.264 358.223 283.679 353.404 277.674 341.964C271.668 330.524 267.467 303.389 273.331 283.806C274.685 279.269 275.784 275.747 276.687 272.985C276.912 275.662 277.392 278.959 277.645 283.214C278.266 294.316 290.305 295.668 296.565 285.919C298.905 282.256 300.794 278.339 302.965 274.282C305.39 269.745 308.153 265.011 312.326 260.221C314.385 257.882 316.725 255.515 319.573 253.177C322.251 250.979 327.947 247.034 332.881 243.934C333.671 244.526 334.46 245.09 335.25 245.709C335.362 245.794 335.503 245.907 335.616 245.991C336.998 247.062 338.436 248.217 339.874 249.401C340.156 249.626 340.438 249.852 340.691 250.077C342.017 251.176 343.37 252.359 344.723 253.571C345.09 253.881 345.428 254.191 345.795 254.501C347.458 256.022 349.15 257.6 350.87 259.291C373.032 280.903 380.871 298.373 382.337 306.235C383.07 309.335 383.634 313.139 384.029 317.816C384.17 319.394 384.254 320.916 384.339 322.381C384.423 323.846 384.452 325.227 384.452 326.579C384.564 326.579 384.621 326.523 384.733 326.495C384.846 326.467 384.959 326.41 385.1 326.382V326.551C399.113 322.634 408.897 310.518 408.897 310.518L503.326 212.094L503.72 211.699L504.059 211.248C504.764 210.262 520.892 186.903 494.416 150.356C469.49 115.923 430.58 95.8044 416.708 94.6773C402.469 93.522 396.068 99.0449 388.653 105.441L387.779 106.202C381.801 111.358 321.631 169.461 293.971 196.23C285.343 204.57 281.085 216.377 282.439 228.211L282.382 228.183ZM339.789 206.824C338.351 208.261 336.124 208.177 334.827 206.627C333.53 205.077 333.614 202.626 335.052 201.189L360.993 175.096C362.431 173.659 364.658 173.744 365.955 175.294C367.252 176.843 367.167 179.295 365.729 180.732L339.789 206.824ZM377.713 175.068C378.897 173.885 380.645 174.054 381.576 175.406C382.534 176.759 382.337 178.816 381.153 179.971L368.352 192.651C367.167 193.834 365.419 193.665 364.489 192.313C363.53 190.96 363.728 188.903 364.912 187.748L377.713 175.068ZM397.337 299.923C397.083 298.937 396.773 297.923 396.435 296.908C396.435 296.88 396.435 296.852 396.407 296.796C395.392 293.724 394.038 290.568 392.403 287.328C392.375 287.271 392.346 287.215 392.318 287.159C390.683 283.947 388.794 280.678 386.651 277.381C386.566 277.268 386.51 277.156 386.425 277.043C385.805 276.057 385.128 275.099 384.48 274.113C384.395 273.972 384.311 273.859 384.198 273.718C382.703 271.577 381.124 269.407 379.461 267.265C379.348 267.124 379.207 266.955 379.094 266.815C378.418 265.941 377.713 265.068 377.008 264.194C376.81 263.94 376.613 263.687 376.388 263.433C375.683 262.588 374.978 261.743 374.273 260.897C374.132 260.728 373.963 260.531 373.822 260.362C372.948 259.347 372.074 258.333 371.171 257.347C371.03 257.178 370.889 257.009 370.72 256.868C369.987 256.051 369.226 255.234 368.493 254.445C368.211 254.135 367.929 253.853 367.647 253.543C366.998 252.838 366.322 252.162 365.645 251.458C365.363 251.176 365.109 250.894 364.827 250.612C363.897 249.683 362.966 248.753 362.036 247.823C359.977 245.822 357.919 243.906 355.804 242.046C355.579 241.821 355.325 241.624 355.1 241.426C353.069 239.623 351.039 237.876 348.981 236.214C356.735 232.635 362.656 230.324 362.656 230.324C362.656 230.324 396.407 221.223 419.104 222.491C434.584 223.365 444.509 237.284 448.823 246.189L397.281 299.923H397.337ZM398.098 117.896L399.001 117.135C405.57 111.471 407.798 109.555 415.354 110.175C422.911 110.795 458.297 127.335 481.53 159.401C489.763 170.785 493.993 181.859 493.739 191.496C493.598 197.3 491.878 200.879 491.258 202.006L478.062 215.757C477.272 213.305 476.314 210.628 475.186 207.782C475.242 207.867 475.299 207.98 475.355 208.064C479.585 215.447 486.408 208.064 486.803 201.273C487.31 193.074 476.032 182.253 466.84 175.913C457.648 169.573 466.389 162.219 471.323 168.982C476.257 175.744 480.882 166.981 474.002 159.43C467.94 152.78 448.202 134.859 439.857 129.223C431.511 123.588 419.161 125.194 424.772 131.562C430.411 137.902 437.911 139.029 441.717 142.157C445.524 145.284 446.849 156.499 439.969 148.947C433.089 141.424 411.773 132.773 403.738 129.618C398.352 127.504 395.307 130.097 394.207 132.689C390.88 131.675 387.779 130.857 384.959 130.238C391.895 123.616 396.689 119.107 398.07 117.924L398.098 117.896ZM370.946 143.678C378.164 144.326 405.26 148.187 430.947 170.813C454.885 191.89 463.09 219.11 465.402 228.972L462.47 232.043C459.96 224.802 449.556 197.667 428.804 177.294C404.64 153.625 374.696 151.427 374.696 151.427L311.593 214.489C310.691 214.235 309.845 214.01 308.999 213.812C308.689 213.728 308.379 213.671 308.069 213.615C307.533 213.502 306.997 213.39 306.49 213.305C306.151 213.249 305.841 213.192 305.503 213.164C305.024 213.108 304.544 213.052 304.093 212.995C303.783 212.967 303.501 212.939 303.191 212.911C302.683 212.883 302.176 212.854 301.697 212.854C301.499 212.854 301.274 212.854 301.048 212.854C300.399 212.854 299.779 212.854 299.187 212.939C320.531 192.285 349.714 164.079 370.946 143.735V143.678Z" fill="#282420"/>
</g>
<defs>
<clipPath id="clip0_2192_5664">
<rect width="620" height="644" fill="white"/>
</clipPath>
</defs>
</svg>
