<?xml version="1.0" encoding="UTF-8"?>
<svg width="600px" height="309px" viewBox="0 0 600 309" version="1.1" xmlns="http://www.w3.org/2000/svg" xmlns:xlink="http://www.w3.org/1999/xlink">
    <title>azw_logo_white</title>
    <defs>
        <polygon id="path-1" points="0.000139843511 1.19086517 598.323121 1.19086517 598.323121 307.263177 0.000139843511 307.263177"></polygon>
        <polygon id="path-3" points="0 307.809135 598.323121 307.809135 598.323121 1.73595506 0 1.73595506"></polygon>
    </defs>
    <g id="WILDERNESS-001" stroke="none" stroke-width="1" fill="none" fill-rule="evenodd">
        <g id="Identity_Design-Copy" transform="translate(-414.000000, -328.000000)">
            <g id="azw_logo_white" transform="translate(414.000000, 328.000000)">
                <g id="Group-3" transform="translate(0.000000, 0.545090)">
                    <mask id="mask-2" fill="white">
                        <use xlink:href="#path-1"></use>
                    </mask>
                    <g id="Clip-2"></g>
                    <path d="M178.104277,11.6057275 C162.308324,11.6057275 148.816994,17.2979242 148.655723,17.3690983 L148.289827,17.5097107 C148.289827,17.5097107 98.8695954,34.4335365 46.9904046,52.221868 C0.157456647,68.2794522 11.1378035,115.237037 11.6285549,117.229913 C11.8366474,117.96943 36.4505202,206.584728 49.7354913,253.769722 C61.6349133,296.038492 90.9308671,296.845711 93.0984971,296.845711 L93.1852023,296.845711 L507.733179,296.845711 C555.932601,296.845711 562.343584,261.024278 562.402543,260.661463 C562.603699,259.614683 579.864971,169.562014 587.141272,126.289862 C593.463815,88.6751882 558.648208,77.3046826 555.119306,76.2526938 L214.05052,17.2493174 C214.008902,17.2389017 209.547052,16.3257893 188.451676,12.4997444 C184.969595,11.8661208 181.484046,11.6057275 178.104277,11.6057275 M93.013526,307.263177 C89.3060116,307.263177 53.6077457,305.926492 39.7193064,256.594121 C26.4308671,209.393503 1.81179191,120.760846 1.56381503,119.870301 C1.38346821,119.141199 -12.1182659,61.4797163 43.6193064,42.370323 C93.7383815,25.184368 141.564971,8.80563202 144.753988,7.71198034 C147.160925,6.71207022 168.37422,-1.72987921 190.307168,2.24892978 C210.258035,5.86839607 215.344162,6.88219382 216.065549,7.02975 L557.434335,66.0852051 L557.690983,66.1563792 C558.169595,66.2900478 605.45341,80.1238736 597.400231,128.02061 C590.104855,171.410806 572.819306,261.578048 572.64763,262.484216 C572.597341,262.79148 564.672486,307.259705 507.733179,307.259705 L93.2823121,307.259705 C93.2337572,307.263177 93.1418497,307.263177 93.013526,307.263177" id="Fill-1" fill="#FFFFFF" mask="url(#mask-2)"></path>
                </g>
                <polygon id="Fill-4" fill="#FFFFFF" points="86.2246821 141.073603 92.6460694 141.073603 100.250116 171.708002 106.905607 141.073603 119.264566 141.073603 107.222948 188.727305 95.1813295 188.727305 87.5755491 159.113648 79.9697688 188.727305 67.9281503 188.727305 55.8865318 141.073603 68.2454913 141.073603 74.8992486 171.708002 81.722948 144.295535"></polygon>
                <polygon id="Fill-6" fill="#FFFFFF" points="149.687168 188.726611 126.869827 188.726611 126.869827 179.196217 132.573295 179.196217 132.573295 150.605038 126.869827 150.605038 126.869827 141.072908 149.687168 141.072908 149.687168 150.605038 143.981965 150.605038 143.981965 179.196217 149.687168 179.196217"></polygon>
                <polygon id="Fill-8" fill="#FFFFFF" points="165.70474 141.073603 173.13711 141.073603 173.13711 179.195176 196.270058 179.195176 196.270058 188.727305 161.728439 188.727305 161.728439 145.87699"></polygon>
                <path d="M234.931734,173.069164 C234.931734,177.153866 233.029422,179.195349 229.226532,179.195349 L218.452543,179.195349 L218.452543,150.60417 L229.226532,150.60417 C233.029422,150.60417 234.931734,152.645653 234.931734,156.732091 L234.931734,173.069164 Z M242.631156,145.056057 C240.160058,142.400046 236.53578,141.073776 231.761792,141.073776 L215.553121,141.073776 L207.043873,141.073776 L196.287225,141.073776 L196.287225,150.614585 L200.038092,150.614585 L207.043873,150.614585 L207.043873,188.727479 L231.761792,188.727479 C236.53578,188.727479 240.160058,187.399473 242.631156,184.743462 C245.103988,182.087451 246.340405,178.197175 246.340405,173.069164 L246.340405,156.732091 C246.340405,151.60408 245.103988,147.712069 242.631156,145.056057 L242.631156,145.056057 Z" id="Fill-10" fill="#FFFFFF"></path>
                <polygon id="Fill-12" fill="#FFFFFF" points="262.842486 141.073603 289.105491 141.073603 289.105491 150.603996 270.422254 150.603996 270.422254 159.794142 289.119364 159.794142 289.119364 169.324535 270.422254 169.324535 270.422254 179.195176 294.189884 179.195176 294.189884 188.727305 259.013584 188.727305 259.013584 145.923861"></polygon>
                <path d="M333.484335,160.815752 C333.484335,163.537729 332.218439,164.900454 329.681445,164.900454 L317.005145,164.900454 L317.005145,150.61528 L320.733468,150.61528 L320.733468,150.604864 L329.681445,150.604864 C332.218439,150.604864 333.484335,151.965853 333.484335,154.689566 L333.484335,160.815752 Z M337.602832,173.750353 C340.139827,173.069858 341.986647,171.684566 343.148497,169.597948 C344.312081,167.509594 344.893006,164.582774 344.893006,160.815752 L344.893006,154.689566 C344.893006,149.922634 343.88896,146.462875 341.882601,144.306819 C339.876243,142.152499 336.654277,141.072735 332.218439,141.072735 L320.733468,141.072735 L317.766416,141.072735 L305.596474,141.072735 L298.587225,141.072735 L298.587225,150.61528 L305.220173,150.61528 L305.596474,150.61528 L305.596474,188.726437 L317.005145,188.726437 L317.005145,174.430847 L325.878555,174.430847 L333.16526,188.726437 L345.52422,188.726437 L337.602832,173.750353 Z" id="Fill-14" fill="#FFFFFF"></path>
                <polygon id="Fill-16" fill="#FFFFFF" points="361.678786 141.073603 369.608844 141.073603 384.820405 169.664783 384.820405 141.073603 396.227341 141.073603 396.227341 188.727305 384.185723 188.727305 368.974162 160.134389 368.974162 188.727305 357.567225 188.727305 357.567225 145.908238"></polygon>
                <polygon id="Fill-18" fill="#FFFFFF" points="414.538439 141.073603 445.346532 141.073603 445.346532 150.603996 421.578902 150.603996 421.578902 159.794142 440.276012 159.794142 440.276012 169.324535 421.578902 169.324535 421.578902 179.195176 445.346532 179.195176 445.346532 188.727305 410.170231 188.727305 410.170231 145.941221"></polygon>
                <path d="M455.423757,178.855102 C467.000636,179.537333 474.837052,179.87758 478.938208,179.87758 C479.909306,179.87758 480.679249,179.570316 481.251503,178.957524 C481.822023,178.344731 482.106416,177.516681 482.106416,176.473372 L482.106416,170.347187 L467.527803,170.347187 C463.093699,170.347187 459.868266,169.269158 457.863642,167.111366 C455.857283,164.957046 454.853237,161.495552 454.853237,156.732091 L454.853237,154.688872 C454.853237,149.921939 455.857283,146.462181 457.863642,144.307861 C459.868266,142.151804 463.093699,141.073776 467.527803,141.073776 L489.776358,141.073776 L489.776358,146.50558 L486.920289,150.60417 L484.443988,150.60417 L470.063064,150.60417 C467.527803,150.60417 466.261908,151.965158 466.261908,154.688872 L466.261908,156.049861 C466.261908,158.773574 467.527803,160.134563 470.063064,160.134563 L481.471734,160.134563 C485.612775,160.134563 488.656127,161.177872 490.600058,163.266226 C492.542254,165.35458 493.515087,168.621647 493.515087,173.069164 L493.515087,176.473372 C493.515087,180.919153 492.542254,184.187956 490.600058,186.274574 C488.656127,188.364664 485.612775,189.406237 481.471734,189.406237 C479.317977,189.406237 477.03763,189.361102 474.627225,189.270833 L468.797168,188.998288 C464.487919,188.770878 460.027803,188.453198 455.423757,188.045248 L455.423757,178.855102 Z" id="Fill-20" fill="#FFFFFF"></path>
                <path d="M504.22578,178.855102 C515.802659,179.537333 523.639075,179.87758 527.740231,179.87758 C528.711329,179.87758 529.481272,179.570316 530.053526,178.957524 C530.622312,178.344731 530.908439,177.516681 530.908439,176.473372 L530.908439,170.347187 L516.329827,170.347187 C511.893988,170.347187 508.670289,169.269158 506.665665,167.111366 C504.657572,164.957046 503.65526,161.495552 503.65526,156.732091 L503.65526,154.688872 C503.65526,149.921939 504.657572,146.462181 506.665665,144.307861 C508.670289,142.151804 511.893988,141.073776 516.329827,141.073776 L538.578382,141.073776 L538.578382,150.60417 L518.865087,150.60417 C516.329827,150.60417 515.063931,151.965158 515.063931,154.688872 L515.063931,156.049861 C515.063931,158.773574 516.329827,160.134563 518.865087,160.134563 L530.273757,160.134563 C534.414798,160.134563 537.45815,161.177872 539.402081,163.266226 C541.344277,165.35458 542.31711,168.621647 542.31711,173.069164 L542.31711,176.473372 C542.31711,180.919153 541.344277,184.187956 539.402081,186.274574 C537.45815,188.364664 534.414798,189.406237 530.273757,189.406237 C528.12,189.406237 525.837919,189.361102 523.429249,189.270833 L517.597457,188.998288 C513.288208,188.770878 508.829827,188.453198 504.22578,188.045248 L504.22578,178.855102 Z" id="Fill-22" fill="#FFFFFF"></path>
                <polygon id="Fill-24" fill="#FFFFFF" points="92.4117919 124.938769 88.2759538 124.938769 86.4742197 117.175578 84.6690173 124.938769 80.5331792 124.938769 84.3950289 108.306583 88.5499422 108.306583"></polygon>
                <path d="M88.4490173,124.721774 L92.1391908,124.721774 L88.3779191,108.523578 L84.5680925,108.523578 L80.8068208,124.721774 L84.4969942,124.721774 L86.4738728,116.219066 L88.4490173,124.721774 Z M92.6836994,125.155763 L88.1039306,125.155763 L86.4738728,118.133825 L84.8420809,125.155763 L80.260578,125.155763 L80.3212717,124.890162 L84.2212717,108.089589 L88.7230058,108.089589 L92.6836994,125.155763 Z" id="Fill-26" fill="#FFFFFF"></path>
                <path d="M107.41578,114.107798 C107.41578,113.510629 107.259711,113.019354 106.954509,112.6305 C106.647572,112.243382 106.220983,112.048955 105.678208,112.048955 L104.547572,112.048955 L104.547572,116.123242 L105.678208,116.123242 C106.220983,116.123242 106.654509,115.923607 106.975318,115.520865 C107.266647,115.159787 107.41578,114.689343 107.41578,114.107798 L107.41578,114.107798 Z M111.15104,124.938421 C109.555665,124.938421 108.215202,124.467978 107.131387,123.525354 C106.075318,122.624393 105.386879,121.404017 105.067803,119.865961 L104.547572,119.865961 L104.547572,124.938421 L100.415202,124.938421 L100.415202,108.306236 L105.692081,108.306236 C107.238902,108.306236 108.53948,108.866949 109.58341,109.991848 C110.630809,111.113275 111.15104,112.48468 111.15104,114.107798 C111.15104,116.131921 110.36896,117.718584 108.804798,118.867787 C109.167225,120.129826 109.949306,120.759978 111.15104,120.759978 L111.15104,124.938421 Z" id="Fill-28" fill="#FFFFFF"></path>
                <path d="M104.763815,115.906421 L105.677688,115.906421 C106.158035,115.906421 106.525665,115.736297 106.80659,115.385634 C107.066705,115.062747 107.198497,114.633966 107.198497,114.107971 C107.198497,113.566353 107.059769,113.116741 106.784046,112.764342 C106.518728,112.429303 106.156301,112.266123 105.677688,112.266123 L104.763815,112.266123 L104.763815,115.906421 Z M105.677688,116.34041 L104.330289,116.34041 L104.330289,111.832134 L105.677688,111.832134 C106.288092,111.832134 106.775376,112.056072 107.123931,112.495269 C107.462081,112.925786 107.632023,113.467404 107.632023,114.107971 C107.632023,114.734651 107.469017,115.255438 107.14474,115.656443 C106.782312,116.109528 106.288092,116.34041 105.677688,116.34041 L105.677688,116.34041 Z M100.631445,124.721601 L104.330289,124.721601 L104.330289,119.64914 L105.244162,119.64914 L105.280578,119.822735 C105.589249,121.305241 106.256879,122.496106 107.271329,123.360612 C108.263237,124.221646 109.494451,124.678202 110.935491,124.718129 L110.935491,120.970202 C109.751098,120.897292 108.965549,120.209853 108.596185,118.926983 L108.554566,118.782898 L108.675954,118.692629 C110.17422,117.592033 110.935491,116.048769 110.935491,114.107971 C110.935491,112.549084 110.427399,111.214134 109.425087,110.139578 C108.429711,109.068494 107.17422,108.523404 105.691561,108.523404 L100.631445,108.523404 L100.631445,124.721601 Z M111.369017,125.155589 L111.152254,125.155589 C109.508324,125.155589 108.108902,124.662578 106.988671,123.688707 C105.943006,122.796426 105.235491,121.58473 104.893873,120.083129 L104.763815,120.083129 L104.763815,125.155589 L100.197919,125.155589 L100.197919,108.089415 L105.691561,108.089415 C107.299075,108.089415 108.662081,108.67964 109.742428,109.844466 C110.82104,111.000612 111.369017,112.436247 111.369017,114.107971 C111.369017,116.142511 110.590405,117.769101 109.057457,118.94955 C109.407746,120.020634 110.092717,120.543157 111.152254,120.543157 L111.369017,120.543157 L111.369017,125.155589 Z" id="Fill-30" fill="#FFFFFF"></path>
                <mask id="mask-4" fill="white">
                    <use xlink:href="#path-3"></use>
                </mask>
                <g id="Clip-33"></g>
                <polygon id="Fill-32" fill="#FFFFFF" mask="url(#mask-4)" points="119.157225 124.938421 123.289595 124.938421 123.289595 108.306236 119.157225 108.306236"></polygon>
                <path d="M119.375723,124.721427 L123.074566,124.721427 L123.074566,108.52323 L119.375723,108.52323 L119.375723,124.721427 Z M118.940462,125.155416 L123.506358,125.155416 L123.506358,108.089242 L118.940462,108.089242 L118.940462,125.155416 Z" id="Fill-34" fill="#FFFFFF" mask="url(#mask-4)"></path>
                <polygon id="Fill-35" fill="#FFFFFF" mask="url(#mask-4)" points="141.928439 124.938769 131.157919 124.938769 136.289133 112.049302 131.790867 112.049302 131.790867 108.306583 141.928439 108.306583 136.818035 121.197785 141.928439 121.197785"></polygon>
                <path d="M131.478208,124.721774 L141.711156,124.721774 L141.711156,121.41478 L136.498439,121.41478 L136.616358,121.117931 L141.608844,108.523578 L132.008844,108.523578 L132.008844,111.832308 L136.609422,111.832308 L131.478208,124.721774 Z M142.144682,125.155763 L130.838324,125.155763 L135.969538,112.266297 L131.575318,112.266297 L131.575318,108.089589 L142.248728,108.089589 L142.130809,108.386437 L137.138324,120.980791 L142.144682,120.980791 L142.144682,125.155763 Z" id="Fill-36" fill="#FFFFFF" mask="url(#mask-4)"></path>
                <path d="M157.948613,116.633612 C157.948613,113.562708 157.067688,112.028124 155.31104,112.028124 C153.538786,112.028124 152.650925,113.562708 152.650925,116.633612 C152.650925,119.704517 153.538786,121.237365 155.31104,121.237365 C157.067688,121.237365 157.948613,119.704517 157.948613,116.633612 M161.956127,116.644028 C161.956127,119.13686 161.43763,121.160983 160.397168,122.714663 C159.221445,124.474921 157.525491,125.353315 155.31104,125.353315 C153.122601,125.353315 151.438786,124.487073 150.263064,122.75459 C149.182717,121.190494 148.645145,119.152483 148.645145,116.644028 C148.645145,114.147725 149.182717,112.118393 150.263064,110.552562 C151.438786,108.820079 153.122601,107.953837 155.31104,107.953837 C157.511618,107.953837 159.195434,108.78536 160.357283,110.448404 C161.423757,111.972573 161.956127,114.03836 161.956127,116.644028" id="Fill-37" fill="#FFFFFF" mask="url(#mask-4)"></path>
                <path d="M155.310173,112.244597 C153.667977,112.244597 152.868555,113.680232 152.868555,116.633092 C152.868555,119.585951 153.667977,121.021586 155.310173,121.021586 C156.938497,121.021586 157.730983,119.585951 157.730983,116.633092 C157.730983,113.680232 156.938497,112.244597 155.310173,112.244597 M155.310173,121.455575 C153.400925,121.455575 152.435029,119.832457 152.435029,116.633092 C152.435029,113.433726 153.400925,111.810608 155.310173,111.810608 C157.205549,111.810608 158.164509,113.433726 158.164509,116.633092 C158.164509,119.832457 157.205549,121.455575 155.310173,121.455575 M155.310173,108.170311 C153.206705,108.170311 151.569711,109.013985 150.442543,110.675294 C149.39341,112.197726 148.86104,114.20449 148.86104,116.643507 C148.86104,119.098148 149.39341,121.111856 150.440809,122.630816 C151.569711,124.293861 153.206705,125.137535 155.310173,125.137535 C157.439653,125.137535 159.09052,124.28171 160.217688,122.594361 C161.226936,121.085816 161.738497,119.08426 161.738497,116.643507 C161.738497,114.093389 161.213064,112.051906 160.179538,110.571137 C159.066243,108.979266 157.429249,108.170311 155.310173,108.170311 M155.310173,125.571524 C153.054104,125.571524 151.297457,124.66362 150.083584,122.877322 C148.985896,121.285451 148.427514,119.188417 148.427514,116.643507 C148.427514,114.114221 148.985896,112.024131 150.085318,110.428788 C151.297457,108.644226 153.054104,107.736322 155.310173,107.736322 C157.578382,107.736322 159.335029,108.606035 160.535029,110.324631 C161.622312,111.876575 162.172023,114.004856 162.172023,116.643507 C162.172023,119.171058 161.634451,121.254204 160.576647,122.835659 C159.364509,124.649732 157.592254,125.571524 155.310173,125.571524" id="Fill-38" fill="#FFFFFF" mask="url(#mask-4)"></path>
                <polygon id="Fill-39" fill="#FFFFFF" mask="url(#mask-4)" points="180.989827 124.938769 179.219306 124.938769 174.010058 117.86996 174.010058 124.938769 169.877688 124.938769 169.877688 108.306583 171.648208 108.306583 176.853988 114.752184 176.853988 108.306583 180.989827 108.306583"></polygon>
                <path d="M179.328555,124.721774 L180.773064,124.721774 L180.773064,108.523578 L177.070751,108.523578 L177.070751,115.364976 L171.545896,108.523578 L170.094451,108.523578 L170.094451,124.721774 L173.793295,124.721774 L173.793295,117.210297 L179.328555,124.721774 Z M181.20659,125.155763 L179.108324,125.155763 L179.044162,125.067229 L174.226821,118.529622 L174.226821,125.155763 L169.660925,125.155763 L169.660925,108.089589 L171.752254,108.089589 L176.637225,114.137656 L176.637225,108.089589 L181.20659,108.089589 L181.20659,125.155763 Z" id="Fill-40" fill="#FFFFFF" mask="url(#mask-4)"></path>
                <polygon id="Fill-41" fill="#FFFFFF" mask="url(#mask-4)" points="200.850867 124.938769 196.711561 124.938769 194.909827 117.175578 193.108092 124.938769 188.968786 124.938769 192.834104 108.306583 196.985549 108.306583"></polygon>
                <path d="M196.884624,124.721774 L200.578266,124.721774 L196.813526,108.523578 L193.007168,108.523578 L189.242428,124.721774 L192.936069,124.721774 L194.90948,116.21733 L196.884624,124.721774 Z M201.122775,125.155763 L196.539538,125.155763 L194.90948,118.135561 L193.281156,125.155763 L188.696185,125.155763 L188.756879,124.890162 L192.660347,108.089589 L197.158613,108.089589 L201.122775,125.155763 Z" id="Fill-42" fill="#FFFFFF" mask="url(#mask-4)"></path>
                <path d="M348.976127,212.480725 L350.640867,212.480725 C350.944335,212.480725 351.192312,212.588354 351.400405,212.805349 C351.643179,213.07095 351.761098,213.423349 351.761098,213.885113 C351.761098,214.251399 351.655318,214.555192 351.436821,214.817321 C351.226994,215.065562 350.966879,215.187079 350.640867,215.187079 L348.976127,215.187079 L348.976127,212.480725 Z M349.714855,208.429006 L348.976127,208.429006 L348.976127,206.472585 L350.274971,206.472585 C350.503873,206.472585 350.677283,206.555911 350.824682,206.734714 C350.979017,206.925669 351.055318,207.142663 351.055318,207.397849 C351.055318,207.840517 350.91659,208.429006 349.714855,208.429006 L349.714855,208.429006 Z M354.412543,210.027821 C354.953584,209.418501 355.227572,208.536635 355.227572,207.397849 C355.227572,205.988253 354.745491,204.773085 353.795202,203.785326 C352.844913,202.797568 351.669191,202.295877 350.297514,202.295877 L344.410231,202.295877 L344.410231,219.362051 L350.649538,219.362051 C352.130462,219.362051 353.396358,218.825641 354.409075,217.768444 C355.421792,216.711248 355.935087,215.404074 355.935087,213.885113 C355.935087,213.124765 355.772081,212.359208 355.449538,211.60754 C355.165145,210.942669 354.81659,210.414939 354.412543,210.027821 L354.412543,210.027821 Z" id="Fill-43" fill="#FFFFFF" mask="url(#mask-4)"></path>
                <path d="M367.715896,206.472758 L368.628035,206.472758 C369.106647,206.472758 369.469075,206.635938 369.736127,206.970978 C370.010116,207.319904 370.148844,207.771253 370.148844,208.314607 C370.148844,208.840601 370.017052,209.269382 369.756936,209.59227 C369.477746,209.942933 369.108382,210.113056 368.628035,210.113056 L367.715896,210.113056 L367.715896,206.472758 Z M374.321098,208.314607 C374.321098,206.644618 373.773121,205.207247 372.694509,204.049365 C371.612428,202.886275 370.249422,202.296051 368.641908,202.296051 L363.15,202.296051 L363.15,219.362225 L367.715896,219.362225 L367.715896,214.289764 L367.845954,214.289764 C368.187572,215.789629 368.895087,217.001326 369.940751,217.895343 C371.059249,218.869213 372.458671,219.362225 374.104335,219.362225 L374.321098,219.362225 L374.321098,214.749792 L374.104335,214.749792 C373.043064,214.749792 372.358092,214.22727 372.009538,213.156185 C373.542486,211.975736 374.321098,210.34741 374.321098,208.314607 L374.321098,208.314607 Z" id="Fill-44" fill="#FFFFFF" mask="url(#mask-4)"></path>
                <polygon id="Fill-45" fill="#FFFFFF" mask="url(#mask-4)" points="381.89185 219.361878 391.151965 219.361878 391.151965 215.186906 386.457746 215.186906 386.457746 212.916276 390.714971 212.916276 390.714971 208.741304 386.457746 208.741304 386.457746 206.472411 391.151965 206.472411 391.151965 202.295703 381.89185 202.295703"></polygon>
                <path d="M405.825607,202.302474 L404.530231,209.327884 L402.903642,202.29553 L398.205954,202.29553 L402.256821,219.195052 L402.296705,219.361704 L405.092081,219.361704 L406.500173,213.190384 L407.923873,219.361704 L410.698439,219.361704 L414.787457,202.29553 L410.091503,202.29553 L408.463179,209.327884 L407.294393,202.300738 C407.294393,202.300738 405.60711,202.302474 405.825607,202.302474" id="Fill-46" fill="#FFFFFF" mask="url(#mask-4)"></path>
                <polygon id="Fill-47" fill="#FFFFFF" mask="url(#mask-4)" points="422.19711 219.362225 426.763006 219.362225 426.763006 202.296051 422.19711 202.296051"></polygon>
                <polygon id="Fill-48" fill="#FFFFFF" mask="url(#mask-4)" points="441.789711 208.344292 436.903006 202.296224 434.81341 202.296224 434.81341 219.362398 439.377572 219.362398 439.377572 212.734522 444.194913 219.273865 444.259075 219.362398 446.357341 219.362398 446.357341 202.296224 441.789711 202.296224"></polygon>
                <path d="M460.788555,206.450712 C461.712832,206.450712 462.335376,206.823942 462.689133,207.591234 L462.775838,207.780453 L466.842312,206.14692 L466.762543,205.947285 C465.708208,203.291274 463.698382,201.942437 460.788555,201.942437 C458.53422,201.942437 456.777572,202.850341 455.563699,204.634903 C454.464277,206.231981 453.904162,208.322071 453.904162,210.849622 C453.904162,213.392796 454.464277,215.48983 455.561965,217.083437 C456.777572,218.869734 458.53422,219.777639 460.788555,219.777639 C462.205318,219.777639 463.422659,219.437392 464.405896,218.767313 C465.368324,219.173526 466.100116,219.428712 466.582197,219.524189 L466.840578,219.576268 L466.840578,212.39983 L462.668324,212.39983 L462.668324,214.010796 C462.272948,214.828431 461.659075,215.227701 460.788555,215.227701 C459.146358,215.227701 458.346936,213.792066 458.346936,210.839206 C458.346936,207.886347 459.146358,206.450712 460.788555,206.450712" id="Fill-49" fill="#FFFFFF" mask="url(#mask-4)"></path>
                <path d="M494.656127,206.450712 C495.542254,206.450712 496.164798,206.865605 496.558439,207.717959 L496.64341,207.903706 L500.774046,206.271908 L500.694277,206.070538 C499.610462,203.331201 497.579827,201.942437 494.656127,201.942437 C492.401792,201.942437 490.645145,202.850341 489.431272,204.634903 C488.33185,206.231981 487.773468,208.323807 487.773468,210.849622 C487.773468,213.39106 488.33185,215.48983 489.429538,217.083437 C490.645145,218.869734 492.401792,219.777639 494.656127,219.777639 C497.538208,219.777639 499.561908,218.381931 500.673468,215.628706 L500.754971,215.425599 L496.64341,213.795538 L496.558439,213.981285 C496.164798,214.818015 495.542254,215.227701 494.656127,215.227701 C493.013931,215.227701 492.216243,213.792066 492.216243,210.839206 C492.216243,207.886347 493.013931,206.450712 494.656127,206.450712" id="Fill-50" fill="#FFFFFF" mask="url(#mask-4)"></path>
                <path d="M513.958092,206.450712 C515.586416,206.450712 516.378902,207.886347 516.378902,210.839206 C516.378902,213.792066 515.586416,215.227701 513.958092,215.227701 C512.315896,215.227701 511.518208,213.792066 511.518208,210.839206 C511.518208,207.886347 512.315896,206.450712 513.958092,206.450712 M519.184682,204.530746 C517.982948,202.81215 516.226301,201.942437 513.958092,201.942437 C511.703757,201.942437 509.94711,202.850341 508.733237,204.634903 C507.633815,206.231981 507.075434,208.323807 507.075434,210.849622 C507.075434,213.39106 507.633815,215.48983 508.731503,217.083437 C509.94711,218.869734 511.703757,219.777639 513.958092,219.777639 C516.240173,219.777639 518.012428,218.855847 519.226301,217.041774 C520.284104,215.458583 520.821676,213.375437 520.821676,210.849622 C520.821676,208.212706 520.271965,206.086161 519.184682,204.530746" id="Fill-51" fill="#FFFFFF" mask="url(#mask-4)"></path>
            </g>
        </g>
    </g>
</svg>