<?xml version="1.0" encoding="UTF-8"?>
<svg width="500px" height="257px" viewBox="0 0 500 257" version="1.1" xmlns="http://www.w3.org/2000/svg" xmlns:xlink="http://www.w3.org/1999/xlink">
    <title>identity_main</title>
    <defs>
        <polygon id="path-1" points="0.000116536259 0.99132948 498.602601 0.99132948 498.602601 255.779624 0.000116536259 255.779624"></polygon>
        <polygon id="path-3" points="0 256.234104 498.602601 256.234104 498.602601 1.44508671 0 1.44508671"></polygon>
    </defs>
    <g id="WILDERNESS-001" stroke="none" stroke-width="1" fill="none" fill-rule="evenodd">
        <g id="Identity_Design-Copy" transform="translate(-471.000000, -2548.000000)">
            <g id="identity_main" transform="translate(471.000000, 2548.000000)">
                <g id="Group-3" transform="translate(0.000000, 0.453757)">
                    <mask id="mask-2" fill="white">
                        <use xlink:href="#path-1"></use>
                    </mask>
                    <g id="Clip-2"></g>
                    <path d="M148.420231,9.66112717 C135.256936,9.66112717 124.014162,14.3995665 123.879769,14.458815 L123.574855,14.5758671 C123.574855,14.5758671 82.3913295,28.6640173 39.1586705,43.4718208 C0.131213873,56.8388728 9.28150289,95.9284682 9.69046243,97.5874277 C9.86387283,98.2030347 30.3754335,171.970376 41.4462428,211.249277 C51.3624277,246.435694 75.7757225,247.107659 77.5820809,247.107659 L77.6543353,247.107659 L423.110983,247.107659 C463.277168,247.107659 468.619653,217.288295 468.668786,216.986272 C468.836416,216.114884 483.220809,141.151012 489.284393,105.129335 C494.553179,73.8171965 465.540173,64.3518786 462.599422,63.4761561 L178.375434,14.359104 C178.340751,14.3504335 174.622543,13.5903179 157.043064,10.4053468 C154.141329,9.87789017 151.236705,9.66112717 148.420231,9.66112717 M77.5112717,255.779624 C74.4216763,255.779624 44.6731214,254.666908 33.099422,213.600434 C22.0257225,174.308526 1.50982659,100.526734 1.30317919,99.7854046 C1.15289017,99.1784682 -10.0985549,51.1784682 36.349422,35.2709538 C78.1153179,20.9645954 117.970809,7.33020231 120.628324,6.41979769 C122.634104,5.58742775 140.31185,-1.4400289 158.589306,1.87210983 C175.215029,4.88511561 179.453468,5.72904624 180.054624,5.85187861 L464.528613,55.0122832 L464.742486,55.0715318 C465.141329,55.1828035 504.544509,66.6986994 497.833526,106.570087 C491.754046,142.690029 477.349422,217.749277 477.206358,218.503613 C477.164451,218.759393 470.560405,255.776734 423.110983,255.776734 L77.7352601,255.776734 C77.6947977,255.779624 77.6182081,255.779624 77.5112717,255.779624" id="Fill-1" fill="#7E694F" mask="url(#mask-2)"></path>
                </g>
                <polygon id="Fill-4" fill="#7E694F" points="71.8539017 117.435983 77.2050578 117.435983 83.541763 142.937428 89.0880058 117.435983 99.3871387 117.435983 89.3524566 157.105058 79.3177746 157.105058 72.9796243 132.453324 66.641474 157.105058 56.6067919 157.105058 46.5721098 117.435983 56.8712428 117.435983 62.4160405 142.937428 68.1024566 120.118064"></polygon>
                <polygon id="Fill-6" fill="#7E694F" points="124.739306 157.10448 105.724855 157.10448 105.724855 149.170954 110.477746 149.170954 110.477746 125.370376 105.724855 125.370376 105.724855 117.435405 124.739306 117.435405 124.739306 125.370376 119.984971 125.370376 119.984971 149.170954 124.739306 149.170954"></polygon>
                <polygon id="Fill-8" fill="#7E694F" points="138.087283 117.435983 144.280925 117.435983 144.280925 149.170087 163.558382 149.170087 163.558382 157.105058 134.773699 157.105058 134.773699 121.434538"></polygon>
                <path d="M195.776445,144.07052 C195.776445,147.470809 194.191185,149.170231 191.02211,149.170231 L182.043786,149.170231 L182.043786,125.369653 L191.02211,125.369653 C194.191185,125.369653 195.776445,127.069075 195.776445,130.470809 L195.776445,144.07052 Z M202.19263,120.751156 C200.133382,118.540173 197.11315,117.436127 193.134827,117.436127 L179.627601,117.436127 L172.536561,117.436127 L163.572688,117.436127 L163.572688,125.378324 L166.69841,125.378324 L172.536561,125.378324 L172.536561,157.105202 L193.134827,157.105202 C197.11315,157.105202 200.133382,155.999711 202.19263,153.788728 C204.253324,151.577746 205.283671,148.339306 205.283671,144.07052 L205.283671,130.470809 C205.283671,126.202023 204.253324,122.962139 202.19263,120.751156 L202.19263,120.751156 Z" id="Fill-10" fill="#7E694F"></path>
                <polygon id="Fill-12" fill="#7E694F" points="219.035405 117.435983 240.921243 117.435983 240.921243 125.369509 225.351879 125.369509 225.351879 133.019798 240.932803 133.019798 240.932803 140.953324 225.351879 140.953324 225.351879 149.170087 245.158237 149.170087 245.158237 157.105058 215.844653 157.105058 215.844653 121.473555"></polygon>
                <path d="M277.903613,133.870231 C277.903613,136.136127 276.848699,137.27052 274.734538,137.27052 L264.170954,137.27052 L264.170954,125.378902 L267.27789,125.378902 L267.27789,125.370231 L274.734538,125.370231 C276.848699,125.370231 277.903613,126.503179 277.903613,128.77052 L277.903613,133.870231 Z M281.335694,144.637572 C283.449855,144.071098 284.988873,142.917919 285.957081,141.180925 C286.926734,139.442486 287.410838,137.006069 287.410838,133.870231 L287.410838,128.77052 C287.410838,124.802312 286.574133,121.922254 284.902168,120.127457 C283.230202,118.334104 280.545231,117.43526 276.848699,117.43526 L267.27789,117.43526 L264.805347,117.43526 L254.663728,117.43526 L248.822688,117.43526 L248.822688,125.378902 L254.350145,125.378902 L254.663728,125.378902 L254.663728,157.104335 L264.170954,157.104335 L264.170954,145.204046 L271.565462,145.204046 L277.637717,157.104335 L287.93685,157.104335 L281.335694,144.637572 Z" id="Fill-14" fill="#7E694F"></path>
                <polygon id="Fill-16" fill="#7E694F" points="301.398988 117.435983 308.00737 117.435983 320.683671 141.236561 320.683671 117.435983 330.189451 117.435983 330.189451 157.105058 320.154769 157.105058 307.478468 133.303035 307.478468 157.105058 297.972688 157.105058 297.972688 121.460549"></polygon>
                <polygon id="Fill-18" fill="#7E694F" points="345.448699 117.435983 371.12211 117.435983 371.12211 125.369509 351.315751 125.369509 351.315751 133.019798 366.896676 133.019798 366.896676 140.953324 351.315751 140.953324 351.315751 149.170087 371.12211 149.170087 371.12211 157.105058 341.808526 157.105058 341.808526 121.488006"></polygon>
                <path d="M379.519798,148.886994 C389.167197,149.454913 395.697543,149.73815 399.115173,149.73815 C399.924422,149.73815 400.56604,149.48237 401.042919,148.972254 C401.518353,148.462139 401.755347,147.772832 401.755347,146.904335 L401.755347,141.804624 L389.606503,141.804624 C385.911416,141.804624 383.223555,140.907225 381.553035,139.110983 C379.881069,137.31763 379.044364,134.436127 379.044364,130.470809 L379.044364,128.769942 C379.044364,124.801734 379.881069,121.921676 381.553035,120.128324 C383.223555,118.333526 385.911416,117.436127 389.606503,117.436127 L408.146965,117.436127 L408.146965,121.957803 L405.766908,125.369653 L403.703324,125.369653 L391.71922,125.369653 C389.606503,125.369653 388.55159,126.502601 388.55159,128.769942 L388.55159,129.90289 C388.55159,132.170231 389.606503,133.303179 391.71922,133.303179 L401.226445,133.303179 C404.677312,133.303179 407.213439,134.171676 408.833382,135.910116 C410.451879,137.648555 411.262572,140.368208 411.262572,144.07052 L411.262572,146.904335 C411.262572,150.605202 410.451879,153.326301 408.833382,155.063295 C407.213439,156.803179 404.677312,157.670231 401.226445,157.670231 C399.431647,157.670231 397.531358,157.632659 395.522688,157.557514 L390.664306,157.330636 C387.073266,157.141329 383.356503,156.876879 379.519798,156.537283 L379.519798,148.886994 Z" id="Fill-20" fill="#7E694F"></path>
                <path d="M420.18815,148.886994 C429.835549,149.454913 436.365896,149.73815 439.783526,149.73815 C440.592775,149.73815 441.234393,149.48237 441.711272,148.972254 C442.18526,148.462139 442.423699,147.772832 442.423699,146.904335 L442.423699,141.804624 L430.274855,141.804624 C426.578324,141.804624 423.891908,140.907225 422.221387,139.110983 C420.547977,137.31763 419.712717,134.436127 419.712717,130.470809 L419.712717,128.769942 C419.712717,124.801734 420.547977,121.921676 422.221387,120.128324 C423.891908,118.333526 426.578324,117.436127 430.274855,117.436127 L448.815318,117.436127 L448.815318,125.369653 L432.387572,125.369653 C430.274855,125.369653 429.219942,126.502601 429.219942,128.769942 L429.219942,129.90289 C429.219942,132.170231 430.274855,133.303179 432.387572,133.303179 L441.894798,133.303179 C445.345665,133.303179 447.881792,134.171676 449.501734,135.910116 C451.120231,137.648555 451.930925,140.368208 451.930925,144.07052 L451.930925,146.904335 C451.930925,150.605202 451.120231,153.326301 449.501734,155.063295 C447.881792,156.803179 445.345665,157.670231 441.894798,157.670231 C440.1,157.670231 438.198266,157.632659 436.19104,157.557514 L431.331214,157.330636 C427.740173,157.141329 424.024855,156.876879 420.18815,156.537283 L420.18815,148.886994 Z" id="Fill-22" fill="#7E694F"></path>
                <polygon id="Fill-24" fill="#7E694F" points="77.0098266 104.004624 73.5632948 104.004624 72.0618497 97.5421965 70.5575145 104.004624 67.1109827 104.004624 70.3291908 90.1592486 73.7916185 90.1592486"></polygon>
                <path d="M73.7075145,103.823988 L76.782659,103.823988 L73.6482659,90.3398844 L70.4734104,90.3398844 L67.3390173,103.823988 L70.4141618,103.823988 L72.0615607,96.7459538 L73.7075145,103.823988 Z M77.2364162,104.18526 L73.4199422,104.18526 L72.0615607,98.3398844 L70.7017341,104.18526 L66.883815,104.18526 L66.9343931,103.964162 L70.1843931,89.9786127 L73.9358382,89.9786127 L77.2364162,104.18526 Z" id="Fill-26" fill="#7E694F"></path>
                <path d="M89.5131503,94.9884393 C89.5131503,94.4913295 89.3830925,94.0823699 89.1287572,93.7586705 C88.8729769,93.4364162 88.5174855,93.2745665 88.0651734,93.2745665 L87.1229769,93.2745665 L87.1229769,96.666185 L88.0651734,96.666185 C88.5174855,96.666185 88.8787572,96.5 89.1460983,96.1647399 C89.3888728,95.8641618 89.5131503,95.4725434 89.5131503,94.9884393 L89.5131503,94.9884393 Z M92.6258671,104.004335 C91.2963873,104.004335 90.1793353,103.612717 89.2761561,102.828035 C88.3960983,102.078035 87.8223988,101.062139 87.5565029,99.7817919 L87.1229769,99.7817919 L87.1229769,104.004335 L83.6793353,104.004335 L83.6793353,90.1589595 L88.0767341,90.1589595 C89.3657514,90.1589595 90.4495665,90.6257225 91.3195087,91.5621387 C92.192341,92.4956647 92.6258671,93.6372832 92.6258671,94.9884393 C92.6258671,96.6734104 91.9741329,97.9942197 90.6706647,98.9508671 C90.9726879,100.001445 91.624422,100.526012 92.6258671,100.526012 L92.6258671,104.004335 Z" id="Fill-28" fill="#7E694F"></path>
                <path d="M87.3031792,96.4856936 L88.0647399,96.4856936 C88.4650289,96.4856936 88.7713873,96.3440751 89.0054913,96.0521676 C89.2222543,95.7833815 89.3320809,95.4264451 89.3320809,94.9885838 C89.3320809,94.5377168 89.216474,94.1634393 88.9867052,93.8700867 C88.7656069,93.591185 88.4635838,93.4553468 88.0647399,93.4553468 L87.3031792,93.4553468 L87.3031792,96.4856936 Z M88.0647399,96.8469653 L86.9419075,96.8469653 L86.9419075,93.0940751 L88.0647399,93.0940751 C88.5734104,93.0940751 88.9794798,93.2804913 89.2699422,93.6460983 C89.5517341,94.0044798 89.6933526,94.4553468 89.6933526,94.9885838 C89.6933526,95.5102601 89.5575145,95.9437861 89.2872832,96.2776012 C88.9852601,96.6547688 88.5734104,96.8469653 88.0647399,96.8469653 L88.0647399,96.8469653 Z M83.8595376,103.823844 L86.9419075,103.823844 L86.9419075,99.6013006 L87.7034682,99.6013006 L87.733815,99.7458092 C87.9910405,100.979913 88.5473988,101.971243 89.3927746,102.690896 C90.2193642,103.407659 91.2453757,103.787717 92.4462428,103.820954 L92.4462428,100.701012 C91.4592486,100.640318 90.8046243,100.068064 90.4968208,99.0001445 L90.4621387,98.8802023 L90.5632948,98.8050578 C91.8118497,97.8888728 92.4462428,96.6041908 92.4462428,94.9885838 C92.4462428,93.690896 92.0228324,92.5796243 91.1875723,91.6851156 C90.3580925,90.7934971 89.3118497,90.3397399 88.0763006,90.3397399 L83.8595376,90.3397399 L83.8595376,103.823844 Z M92.8075145,104.185116 L92.6268786,104.185116 C91.2569364,104.185116 90.0907514,103.774711 89.1572254,102.964017 C88.2858382,102.221243 87.6962428,101.212572 87.4115607,99.9625723 L87.3031792,99.9625723 L87.3031792,104.185116 L83.4982659,104.185116 L83.4982659,89.9784682 L88.0763006,89.9784682 C89.415896,89.9784682 90.5517341,90.4697977 91.4520231,91.4394509 C92.3508671,92.4018786 92.8075145,93.5969653 92.8075145,94.9885838 C92.8075145,96.6822254 92.1586705,98.0362717 90.8812139,99.0189306 C91.1731214,99.9105491 91.7439306,100.34552 92.6268786,100.34552 L92.8075145,100.34552 L92.8075145,104.185116 Z" id="Fill-30" fill="#7E694F"></path>
                <mask id="mask-4" fill="white">
                    <use xlink:href="#path-3"></use>
                </mask>
                <g id="Clip-33"></g>
                <polygon id="Fill-32" fill="#7E694F" mask="url(#mask-4)" points="99.2976879 104.004335 102.741329 104.004335 102.741329 90.1589595 99.2976879 90.1589595"></polygon>
                <path d="M99.4797688,103.823699 L102.562139,103.823699 L102.562139,90.3395954 L99.4797688,90.3395954 L99.4797688,103.823699 Z M99.117052,104.184971 L102.921965,104.184971 L102.921965,89.9783237 L99.117052,89.9783237 L99.117052,104.184971 Z" id="Fill-34" fill="#7E694F" mask="url(#mask-4)"></path>
                <polygon id="Fill-35" fill="#7E694F" mask="url(#mask-4)" points="118.273699 104.004624 109.298266 104.004624 113.574277 93.2748555 109.825723 93.2748555 109.825723 90.1592486 118.273699 90.1592486 114.015029 100.890462 118.273699 100.890462"></polygon>
                <path d="M109.565173,103.823988 L118.09263,103.823988 L118.09263,101.071098 L113.748699,101.071098 L113.846965,100.823988 L118.00737,90.3398844 L110.00737,90.3398844 L110.00737,93.0942197 L113.841185,93.0942197 L109.565173,103.823988 Z M118.453902,104.18526 L109.031936,104.18526 L113.307948,93.4554913 L109.646098,93.4554913 L109.646098,89.9786127 L118.540607,89.9786127 L118.442341,90.2257225 L114.281936,100.709827 L118.453902,100.709827 L118.453902,104.18526 Z" id="Fill-36" fill="#7E694F" mask="url(#mask-4)"></path>
                <path d="M131.623844,97.0910405 C131.623844,94.5346821 130.88974,93.2572254 129.425867,93.2572254 C127.948988,93.2572254 127.209104,94.5346821 127.209104,97.0910405 C127.209104,99.6473988 127.948988,100.92341 129.425867,100.92341 C130.88974,100.92341 131.623844,99.6473988 131.623844,97.0910405 M134.963439,97.099711 C134.963439,99.1748555 134.531358,100.859827 133.664306,102.153179 C132.684538,103.618497 131.271243,104.349711 129.425867,104.349711 C127.602168,104.349711 126.198988,103.628613 125.21922,102.186416 C124.318931,100.884393 123.870954,99.1878613 123.870954,97.099711 C123.870954,95.0216763 124.318931,93.3323699 125.21922,92.0289017 C126.198988,90.5867052 127.602168,89.8656069 129.425867,89.8656069 C131.259682,89.8656069 132.662861,90.5578035 133.631069,91.9421965 C134.519798,93.2109827 134.963439,94.9306358 134.963439,97.099711" id="Fill-37" fill="#7E694F" mask="url(#mask-4)"></path>
                <path d="M129.425145,93.4374277 C128.056647,93.4374277 127.390462,94.6325145 127.390462,97.0906069 C127.390462,99.5486994 128.056647,100.743786 129.425145,100.743786 C130.782081,100.743786 131.442486,99.5486994 131.442486,97.0906069 C131.442486,94.6325145 130.782081,93.4374277 129.425145,93.4374277 M129.425145,101.105058 C127.834104,101.105058 127.029191,99.7539017 127.029191,97.0906069 C127.029191,94.4273121 127.834104,93.0761561 129.425145,93.0761561 C131.004624,93.0761561 131.803757,94.4273121 131.803757,97.0906069 C131.803757,99.7539017 131.004624,101.105058 129.425145,101.105058 M129.425145,90.0458092 C127.672254,90.0458092 126.308092,90.7481214 125.368786,92.1310694 C124.494509,93.3984104 124.050867,95.0689306 124.050867,97.0992775 C124.050867,99.1426301 124.494509,100.818931 125.367341,102.083382 C126.308092,103.467775 127.672254,104.170087 129.425145,104.170087 C131.199711,104.170087 132.575434,103.457659 133.51474,102.053035 C134.35578,100.797254 134.782081,99.1310694 134.782081,97.0992775 C134.782081,94.9764451 134.34422,93.2770231 133.482948,92.0443642 C132.555202,90.7192197 131.19104,90.0458092 129.425145,90.0458092 M129.425145,104.531358 C127.545087,104.531358 126.081214,103.775578 125.069653,102.288584 C124.154913,100.963439 123.689595,99.2177746 123.689595,97.0992775 C123.689595,94.9937861 124.154913,93.2539017 125.071098,91.9258671 C126.081214,90.4403179 127.545087,89.6845376 129.425145,89.6845376 C131.315318,89.6845376 132.779191,90.408526 133.779191,91.8391618 C134.68526,93.1310694 135.143353,94.9027457 135.143353,97.0992775 C135.143353,99.2033237 134.695376,100.937428 133.813873,102.253902 C132.803757,103.764017 131.326879,104.531358 129.425145,104.531358" id="Fill-38" fill="#7E694F" mask="url(#mask-4)"></path>
                <polygon id="Fill-39" fill="#7E694F" mask="url(#mask-4)" points="150.824855 104.004624 149.349422 104.004624 145.008382 98.1202312 145.008382 104.004624 141.56474 104.004624 141.56474 90.1592486 143.040173 90.1592486 147.378324 95.5248555 147.378324 90.1592486 150.824855 90.1592486"></polygon>
                <path d="M149.440462,103.823988 L150.64422,103.823988 L150.64422,90.3398844 L147.55896,90.3398844 L147.55896,96.0349711 L142.954913,90.3398844 L141.745376,90.3398844 L141.745376,103.823988 L144.827746,103.823988 L144.827746,97.5710983 L149.440462,103.823988 Z M151.005491,104.18526 L149.256936,104.18526 L149.203468,104.111561 L145.189017,98.6693642 L145.189017,104.18526 L141.384104,104.18526 L141.384104,89.9786127 L143.126879,89.9786127 L147.197688,95.0132948 L147.197688,89.9786127 L151.005491,89.9786127 L151.005491,104.18526 Z" id="Fill-40" fill="#7E694F" mask="url(#mask-4)"></path>
                <polygon id="Fill-41" fill="#7E694F" mask="url(#mask-4)" points="167.375723 104.004624 163.926301 104.004624 162.424855 97.5421965 160.92341 104.004624 157.473988 104.004624 160.695087 90.1592486 164.154624 90.1592486"></polygon>
                <path d="M164.07052,103.823988 L167.148555,103.823988 L164.011272,90.3398844 L160.839306,90.3398844 L157.702023,103.823988 L160.780058,103.823988 L162.424566,96.7445087 L164.07052,103.823988 Z M167.602312,104.18526 L163.782948,104.18526 L162.424566,98.3413295 L161.06763,104.18526 L157.246821,104.18526 L157.297399,103.964162 L160.550289,89.9786127 L164.298844,89.9786127 L167.602312,104.18526 Z" id="Fill-42" fill="#7E694F" mask="url(#mask-4)"></path>
                <path d="M290.813439,176.878468 L292.200723,176.878468 C292.453613,176.878468 292.66026,176.968064 292.833671,177.148699 C293.035983,177.369798 293.134249,177.66315 293.134249,178.047543 C293.134249,178.352457 293.046098,178.605347 292.864017,178.823555 C292.689162,179.030202 292.472399,179.131358 292.200723,179.131358 L290.813439,179.131358 L290.813439,176.878468 Z M291.429046,173.505636 L290.813439,173.505636 L290.813439,171.877023 L291.895809,171.877023 C292.086561,171.877023 292.231069,171.946387 292.353902,172.095231 C292.482514,172.254191 292.546098,172.434827 292.546098,172.647254 C292.546098,173.015751 292.430491,173.505636 291.429046,173.505636 L291.429046,173.505636 Z M295.343786,174.836561 C295.794653,174.329335 296.022977,173.595231 296.022977,172.647254 C296.022977,171.473844 295.621243,170.462283 294.829335,169.640029 C294.037428,168.817775 293.057659,168.400145 291.914595,168.400145 L287.008526,168.400145 L287.008526,182.606792 L292.207948,182.606792 C293.442052,182.606792 294.496965,182.16026 295.340896,181.280202 C296.184827,180.400145 296.612572,179.311994 296.612572,178.047543 C296.612572,177.414595 296.476734,176.777312 296.207948,176.15159 C295.970954,175.598121 295.680491,175.158815 295.343786,174.836561 L295.343786,174.836561 Z" id="Fill-43" fill="#7E694F" mask="url(#mask-4)"></path>
                <path d="M306.429913,171.877168 L307.190029,171.877168 C307.588873,171.877168 307.890896,172.013006 308.113439,172.291908 C308.341763,172.58237 308.45737,172.958092 308.45737,173.410405 C308.45737,173.848266 308.347543,174.205202 308.13078,174.473988 C307.898121,174.765896 307.590318,174.907514 307.190029,174.907514 L306.429913,174.907514 L306.429913,171.877168 Z M311.934249,173.410405 C311.934249,172.020231 311.477601,170.823699 310.578757,169.859827 C309.677023,168.891618 308.541185,168.400289 307.20159,168.400289 L302.625,168.400289 L302.625,182.606936 L306.429913,182.606936 L306.429913,178.384393 L306.538295,178.384393 C306.822977,179.632948 307.412572,180.641618 308.28396,181.385838 C309.21604,182.196532 310.382225,182.606936 311.753613,182.606936 L311.934249,182.606936 L311.934249,178.767341 L311.753613,178.767341 C310.86922,178.767341 310.29841,178.33237 310.007948,177.440751 C311.285405,176.458092 311.934249,175.102601 311.934249,173.410405 L311.934249,173.410405 Z" id="Fill-44" fill="#7E694F" mask="url(#mask-4)"></path>
                <polygon id="Fill-45" fill="#7E694F" mask="url(#mask-4)" points="318.243208 182.606647 325.959971 182.606647 325.959971 179.131214 322.048121 179.131214 322.048121 177.24104 325.595809 177.24104 325.595809 173.765607 322.048121 173.765607 322.048121 171.876879 325.959971 171.876879 325.959971 168.4 318.243208 168.4"></polygon>
                <path d="M338.188006,168.405636 L337.108526,174.253902 L335.753035,168.399855 L331.838295,168.399855 L335.214017,182.467775 L335.247254,182.606503 L337.576734,182.606503 L338.750145,177.46922 L339.936561,182.606503 L342.248699,182.606503 L345.656214,168.399855 L341.742919,168.399855 L340.385983,174.253902 L339.411994,168.404191 C339.411994,168.404191 338.005925,168.405636 338.188006,168.405636" id="Fill-46" fill="#7E694F" mask="url(#mask-4)"></path>
                <polygon id="Fill-47" fill="#7E694F" mask="url(#mask-4)" points="351.830925 182.606936 355.635838 182.606936 355.635838 168.400289 351.830925 168.400289"></polygon>
                <polygon id="Fill-48" fill="#7E694F" mask="url(#mask-4)" points="368.158092 173.435116 364.085838 168.400434 362.344509 168.400434 362.344509 182.607081 366.147977 182.607081 366.147977 177.08974 370.162428 182.533382 370.215896 182.607081 371.964451 182.607081 371.964451 168.400434 368.158092 168.400434"></polygon>
                <path d="M383.990462,171.858815 C384.760694,171.858815 385.27948,172.169509 385.574277,172.808237 L385.646532,172.965751 L389.03526,171.605925 L388.968786,171.43974 C388.090173,169.228757 386.415318,168.105925 383.990462,168.105925 C382.11185,168.105925 380.647977,168.861705 379.636416,170.347254 C378.720231,171.676734 378.253468,173.416618 378.253468,175.520665 C378.253468,177.637717 378.720231,179.383382 379.634971,180.709971 C380.647977,182.196965 382.11185,182.952746 383.990462,182.952746 C385.171098,182.952746 386.185549,182.669509 387.004913,182.111705 C387.806936,182.449855 388.416763,182.662283 388.818497,182.741763 L389.033815,182.785116 L389.033815,176.811127 L385.556936,176.811127 L385.556936,178.152168 C385.227457,178.832803 384.715896,179.165173 383.990462,179.165173 C382.621965,179.165173 381.95578,177.970087 381.95578,175.511994 C381.95578,173.053902 382.621965,171.858815 383.990462,171.858815" id="Fill-49" fill="#7E694F" mask="url(#mask-4)"></path>
                <path d="M412.213439,171.858815 C412.951879,171.858815 413.470665,172.204191 413.798699,172.913728 L413.869509,173.068353 L417.311705,171.709971 L417.245231,171.542341 C416.342052,169.261994 414.649855,168.105925 412.213439,168.105925 C410.334827,168.105925 408.870954,168.861705 407.859393,170.347254 C406.943208,171.676734 406.47789,173.418064 406.47789,175.520665 C406.47789,177.636272 406.943208,179.383382 407.857948,180.709971 C408.870954,182.196965 410.334827,182.952746 412.213439,182.952746 C414.615173,182.952746 416.30159,181.790896 417.22789,179.498988 L417.295809,179.329913 L413.869509,177.972977 L413.798699,178.127601 C413.470665,178.824133 412.951879,179.165173 412.213439,179.165173 C410.844942,179.165173 410.180202,177.970087 410.180202,175.511994 C410.180202,173.053902 410.844942,171.858815 412.213439,171.858815" id="Fill-50" fill="#7E694F" mask="url(#mask-4)"></path>
                <path d="M428.29841,171.858815 C429.655347,171.858815 430.315751,173.053902 430.315751,175.511994 C430.315751,177.970087 429.655347,179.165173 428.29841,179.165173 C426.929913,179.165173 426.265173,177.970087 426.265173,175.511994 C426.265173,173.053902 426.929913,171.858815 428.29841,171.858815 M432.653902,170.260549 C431.652457,168.829913 430.188584,168.105925 428.29841,168.105925 C426.419798,168.105925 424.955925,168.861705 423.944364,170.347254 C423.028179,171.676734 422.562861,173.418064 422.562861,175.520665 C422.562861,177.636272 423.028179,179.383382 423.942919,180.709971 C424.955925,182.196965 426.419798,182.952746 428.29841,182.952746 C430.200145,182.952746 431.677023,182.185405 432.688584,180.675289 C433.570087,179.35737 434.018064,177.623266 434.018064,175.520665 C434.018064,173.325578 433.559971,171.555347 432.653902,170.260549" id="Fill-51" fill="#7E694F" mask="url(#mask-4)"></path>
            </g>
        </g>
    </g>
</svg>