<?xml version="1.0" encoding="utf-8"?>
<!-- Generator: Adobe Illustrator 25.2.0, SVG Export Plug-In . SVG Version: 6.00 Build 0)  -->
<svg version="1.1" id="Layer_1" xmlns="http://www.w3.org/2000/svg" xmlns:xlink="http://www.w3.org/1999/xlink" x="0px" y="0px"
	 viewBox="0 0 550 291" style="enable-background:new 0 0 550 291;" xml:space="preserve">
<style type="text/css">
	.st0{filter:url(#Adobe_OpacityMaskFilter);}
	.st1{fill-rule:evenodd;clip-rule:evenodd;fill:#FFFFFF;}
	.st2{mask:url(#mask-2_1_);fill-rule:evenodd;clip-rule:evenodd;fill:#7E694F;}
	.st3{fill-rule:evenodd;clip-rule:evenodd;fill:#7E694F;}
	.st4{filter:url(#Adobe_OpacityMaskFilter_1_);}
	.st5{mask:url(#mask-4_1_);fill-rule:evenodd;clip-rule:evenodd;fill:#7E694F;}
	.st6{filter:url(#Adobe_OpacityMaskFilter_2_);}
	.st7{mask:url(#mask-4_2_);fill-rule:evenodd;clip-rule:evenodd;fill:#7E694F;}
	.st8{filter:url(#Adobe_OpacityMaskFilter_3_);}
	.st9{mask:url(#mask-4_3_);fill-rule:evenodd;clip-rule:evenodd;fill:#7E694F;}
	.st10{filter:url(#Adobe_OpacityMaskFilter_4_);}
	.st11{mask:url(#mask-4_4_);fill-rule:evenodd;clip-rule:evenodd;fill:#7E694F;}
	.st12{filter:url(#Adobe_OpacityMaskFilter_5_);}
	.st13{mask:url(#mask-4_5_);fill-rule:evenodd;clip-rule:evenodd;fill:#7E694F;}
	.st14{filter:url(#Adobe_OpacityMaskFilter_6_);}
	.st15{mask:url(#mask-4_6_);fill-rule:evenodd;clip-rule:evenodd;fill:#7E694F;}
	.st16{filter:url(#Adobe_OpacityMaskFilter_7_);}
	.st17{mask:url(#mask-4_7_);fill-rule:evenodd;clip-rule:evenodd;fill:#7E694F;}
	.st18{filter:url(#Adobe_OpacityMaskFilter_8_);}
	.st19{mask:url(#mask-4_8_);fill-rule:evenodd;clip-rule:evenodd;fill:#7E694F;}
	.st20{filter:url(#Adobe_OpacityMaskFilter_9_);}
	.st21{mask:url(#mask-4_9_);fill-rule:evenodd;clip-rule:evenodd;fill:#7E694F;}
	.st22{filter:url(#Adobe_OpacityMaskFilter_10_);}
	.st23{mask:url(#mask-4_10_);fill-rule:evenodd;clip-rule:evenodd;fill:#7E694F;}
	.st24{filter:url(#Adobe_OpacityMaskFilter_11_);}
	.st25{mask:url(#mask-4_11_);fill-rule:evenodd;clip-rule:evenodd;fill:#7E694F;}
	.st26{filter:url(#Adobe_OpacityMaskFilter_12_);}
	.st27{mask:url(#mask-4_12_);fill-rule:evenodd;clip-rule:evenodd;fill:#7E694F;}
	.st28{filter:url(#Adobe_OpacityMaskFilter_13_);}
	.st29{mask:url(#mask-4_13_);fill-rule:evenodd;clip-rule:evenodd;fill:#7E694F;}
	.st30{filter:url(#Adobe_OpacityMaskFilter_14_);}
	.st31{mask:url(#mask-4_14_);fill-rule:evenodd;clip-rule:evenodd;fill:#7E694F;}
	.st32{filter:url(#Adobe_OpacityMaskFilter_15_);}
	.st33{mask:url(#mask-4_15_);fill-rule:evenodd;clip-rule:evenodd;fill:#7E694F;}
	.st34{filter:url(#Adobe_OpacityMaskFilter_16_);}
	.st35{mask:url(#mask-4_16_);fill-rule:evenodd;clip-rule:evenodd;fill:#7E694F;}
	.st36{filter:url(#Adobe_OpacityMaskFilter_17_);}
	.st37{mask:url(#mask-4_17_);fill-rule:evenodd;clip-rule:evenodd;fill:#7E694F;}
	.st38{filter:url(#Adobe_OpacityMaskFilter_18_);}
	.st39{mask:url(#mask-4_18_);fill-rule:evenodd;clip-rule:evenodd;fill:#7E694F;}
	.st40{filter:url(#Adobe_OpacityMaskFilter_19_);}
	.st41{mask:url(#mask-4_19_);fill-rule:evenodd;clip-rule:evenodd;fill:#7E694F;}
	.st42{filter:url(#Adobe_OpacityMaskFilter_20_);}
	.st43{mask:url(#mask-4_20_);fill-rule:evenodd;clip-rule:evenodd;fill:#7E694F;}
	.st44{filter:url(#Adobe_OpacityMaskFilter_21_);}
	.st45{mask:url(#mask-4_21_);fill-rule:evenodd;clip-rule:evenodd;fill:#7E694F;}
	.st46{filter:url(#Adobe_OpacityMaskFilter_22_);}
	.st47{mask:url(#mask-4_22_);fill-rule:evenodd;clip-rule:evenodd;fill:#7E694F;}
	.st48{filter:url(#Adobe_OpacityMaskFilter_23_);}
	.st49{mask:url(#mask-4_23_);fill-rule:evenodd;clip-rule:evenodd;fill:#7E694F;}
	.st50{filter:url(#Adobe_OpacityMaskFilter_24_);}
	.st51{mask:url(#mask-4_24_);fill-rule:evenodd;clip-rule:evenodd;fill:#7E694F;}
	.st52{filter:url(#Adobe_OpacityMaskFilter_25_);}
	.st53{mask:url(#mask-4_25_);fill-rule:evenodd;clip-rule:evenodd;fill:#7E694F;}
	.st54{filter:url(#Adobe_OpacityMaskFilter_26_);}
	.st55{mask:url(#mask-4_26_);fill-rule:evenodd;clip-rule:evenodd;fill:#7E694F;}
	.st56{filter:url(#Adobe_OpacityMaskFilter_27_);}
	.st57{mask:url(#mask-4_27_);fill-rule:evenodd;clip-rule:evenodd;fill:#7E694F;}
	.st58{filter:url(#Adobe_OpacityMaskFilter_28_);}
	.st59{mask:url(#mask-4_28_);fill-rule:evenodd;clip-rule:evenodd;fill:#7E694F;}
</style>
<g id="WILDERNESS-001">
	<g id="Identity_Design-Copy" transform="translate(-145.000000, -3358.000000)">
		<g id="identity_dtphx" transform="translate(145.000000, 3358.000000)">
			<g id="Group-3" transform="translate(64.000000, 0.290441)">
				<g id="Clip-2">
				</g>
				<defs>
					<filter id="Adobe_OpacityMaskFilter" filterUnits="userSpaceOnUse" x="0" y="0.1" width="398.9" height="204">
						<feColorMatrix  type="matrix" values="1 0 0 0 0  0 1 0 0 0  0 0 1 0 0  0 0 0 1 0"/>
					</filter>
				</defs>
				<mask maskUnits="userSpaceOnUse" x="0" y="0.1" width="398.9" height="204" id="mask-2_1_">
					<g class="st0">
						<polygon id="path-1_1_" class="st1" points="0,0.1 398.9,0.1 398.9,204.1 0,204.1 						"/>
					</g>
				</mask>
				<path id="Fill-1" class="st2" d="M371.8,43.4l-0.2,0L144,4c-0.5-0.1-3.9-0.8-17.2-3.2c-14.6-2.7-28.8,3-30.4,3.6
					c-2.1,0.7-34,11.6-67.4,23.1C-8.1,40.3,0.9,78.7,1,79.2c0.2,0.6,16.6,59.7,25.4,91.1c9.3,32.9,33.1,33.8,35.5,33.8
					c0.1,0,0.1,0,0.2,0h147.4v-6.9l-147.4,0c-0.9,0-20.9-0.1-29-28.7C24.3,137,7.9,77.9,7.8,77.4c-0.3-1.3-7.6-32.6,23.6-43.3
					c34.6-11.9,67.5-23.1,67.5-23.1l0.2-0.1c0.1,0,9.2-3.8,19.7-3.8c2.2,0,4.6,0.2,6.9,0.6c14.1,2.6,17,3.2,17.1,3.2l227.4,39.3
					c2.4,0.7,25.6,8.3,21.3,33.4c-4.9,28.8-16.4,88.9-16.5,89.6c0,0.2-2.8,15.6-20.5,21.7v7.3c23.6-6.7,27.3-27.6,27.4-27.8
					c0.1-0.6,11.6-60.7,16.5-89.6C403.6,52.7,372.1,43.5,371.8,43.4"/>
			</g>
			<path id="Fill-4" class="st3" d="M292,142.4c-0.1,0.2-0.3,0.2-0.5,0.2h-1.1v-1.8h1.1c0.2,0,0.4,0.1,0.5,0.2
				c0.2,0.2,0.2,0.4,0.2,0.7C292.2,142,292.1,142.2,292,142.4L292,142.4z M290.4,136.8h0.9c0.2,0,0.3,0.1,0.4,0.2
				c0.1,0.1,0.2,0.3,0.2,0.4c0,0.3-0.1,0.7-0.9,0.7h-0.5V136.8z M293.6,135c-0.6-0.7-1.4-1-2.3-1h-3.9v11.4h4.2c1,0,1.8-0.4,2.5-1.1
				c0.7-0.7,1-1.6,1-2.6c0-0.5-0.1-1-0.3-1.5c-0.2-0.4-0.4-0.8-0.7-1.1c0.4-0.4,0.5-1,0.5-1.8C294.5,136.5,294.2,135.7,293.6,135
				L293.6,135z"/>
			<path id="Fill-6" class="st3" d="M304.2,138.9c-0.2,0.2-0.4,0.3-0.8,0.3h-0.6v-2.4h0.6c0.3,0,0.6,0.1,0.7,0.3
				c0.2,0.2,0.3,0.5,0.3,0.9C304.5,138.4,304.4,138.7,304.2,138.9 M307.3,138.1c0-1.1-0.4-2.1-1.1-2.8c-0.7-0.8-1.6-1.2-2.7-1.2
				h-3.7v11.4h3V142h0.1c0.2,1,0.7,1.8,1.4,2.4c0.7,0.6,1.7,1,2.8,1h0.1v-3.1h-0.1c-0.7,0-1.2-0.3-1.4-1.1
				C306.7,140.5,307.3,139.4,307.3,138.1"/>
			<polygon id="Fill-8" class="st3" points="318.5,136.8 318.5,134 312.3,134 312.3,145.4 318.5,145.4 318.5,142.6 315.3,142.6 
				315.3,141.1 318.2,141.1 318.2,138.3 315.3,138.3 315.3,136.8 			"/>
			<path id="Fill-10" class="st3" d="M330,138.7l-0.8-4.7c0,0-1.1,0-1,0l-0.9,4.7l-1.1-4.7h-3.1l2.7,11.3l0,0.1h1.9l0.9-4.1l0.9,4.1
				h1.8l2.7-11.4h-3.1L330,138.7z"/>
			<g id="Clip-13">
			</g>
			<defs>
				<filter id="Adobe_OpacityMaskFilter_1_" filterUnits="userSpaceOnUse" x="339.2" y="134" width="3" height="11.4">
					<feColorMatrix  type="matrix" values="1 0 0 0 0  0 1 0 0 0  0 0 1 0 0  0 0 0 1 0"/>
				</filter>
			</defs>
			<mask maskUnits="userSpaceOnUse" x="339.2" y="134" width="3" height="11.4" id="mask-4_1_">
				<g class="st4">
					<polygon id="path-3_1_" class="st1" points="64,216.7 462.9,216.7 462.9,0.4 64,0.4 					"/>
				</g>
			</mask>
			<polygon id="Fill-12" class="st5" points="339.2,145.4 342.2,145.4 342.2,134 339.2,134 			"/>
			<defs>
				<filter id="Adobe_OpacityMaskFilter_2_" filterUnits="userSpaceOnUse" x="347.6" y="134" width="7.7" height="11.4">
					<feColorMatrix  type="matrix" values="1 0 0 0 0  0 1 0 0 0  0 0 1 0 0  0 0 0 1 0"/>
				</filter>
			</defs>
			<mask maskUnits="userSpaceOnUse" x="347.6" y="134" width="7.7" height="11.4" id="mask-4_2_">
				<g class="st6">
					<polygon id="path-3_2_" class="st1" points="64,216.7 462.9,216.7 462.9,0.4 64,0.4 					"/>
				</g>
			</mask>
			<polygon id="Fill-14" class="st7" points="349,134 347.6,134 347.6,145.4 350.6,145.4 350.6,141 353.8,145.4 353.9,145.4 
				355.3,145.4 355.3,134 352.2,134 352.2,138.1 			"/>
			<defs>
				<filter id="Adobe_OpacityMaskFilter_3_" filterUnits="userSpaceOnUse" x="360.3" y="133.8" width="8.6" height="11.9">
					<feColorMatrix  type="matrix" values="1 0 0 0 0  0 1 0 0 0  0 0 1 0 0  0 0 0 1 0"/>
				</filter>
			</defs>
			<mask maskUnits="userSpaceOnUse" x="360.3" y="133.8" width="8.6" height="11.9" id="mask-4_3_">
				<g class="st8">
					<polygon id="path-3_3_" class="st1" points="64,216.7 462.9,216.7 462.9,0.4 64,0.4 					"/>
				</g>
			</mask>
			<path id="Fill-15" class="st9" d="M361.4,135.6c-0.7,1.1-1.1,2.5-1.1,4.1c0,1.7,0.4,3.1,1.1,4.2c0.8,1.2,2,1.8,3.5,1.8
				c0.9,0,1.8-0.2,2.4-0.7c0.6,0.3,1.1,0.4,1.5,0.5l0.2,0v-4.8h-2.8v1.1c-0.3,0.5-0.7,0.8-1.3,0.8c-1.1,0-1.6-1-1.6-2.9
				c0-2,0.5-2.9,1.6-2.9c0.6,0,1,0.2,1.3,0.8l0.1,0.1l2.7-1.1l-0.1-0.1c-0.7-1.8-2-2.7-4-2.7C363.4,133.8,362.2,134.4,361.4,135.6"
				/>
			<defs>
				<filter id="Adobe_OpacityMaskFilter_4_" filterUnits="userSpaceOnUse" x="382.9" y="133.8" width="8.7" height="11.9">
					<feColorMatrix  type="matrix" values="1 0 0 0 0  0 1 0 0 0  0 0 1 0 0  0 0 0 1 0"/>
				</filter>
			</defs>
			<mask maskUnits="userSpaceOnUse" x="382.9" y="133.8" width="8.7" height="11.9" id="mask-4_4_">
				<g class="st10">
					<polygon id="path-3_4_" class="st1" points="64,216.7 462.9,216.7 462.9,0.4 64,0.4 					"/>
				</g>
			</mask>
			<path id="Fill-16" class="st11" d="M387.5,136.8c0.6,0,1,0.3,1.3,0.8l0.1,0.1l2.8-1.1l-0.1-0.1c-0.7-1.8-2.1-2.8-4-2.8
				c-1.5,0-2.7,0.6-3.5,1.8c-0.7,1.1-1.1,2.5-1.1,4.1c0,1.7,0.4,3.1,1.1,4.2c0.8,1.2,2,1.8,3.5,1.8c1.9,0,3.3-0.9,4-2.8l0.1-0.1
				l-2.7-1.1l-0.1,0.1c-0.3,0.6-0.7,0.8-1.3,0.8c-1.1,0-1.6-1-1.6-2.9C385.8,137.8,386.4,136.8,387.5,136.8"/>
			<defs>
				<filter id="Adobe_OpacityMaskFilter_5_" filterUnits="userSpaceOnUse" x="395.8" y="133.8" width="9.2" height="11.9">
					<feColorMatrix  type="matrix" values="1 0 0 0 0  0 1 0 0 0  0 0 1 0 0  0 0 0 1 0"/>
				</filter>
			</defs>
			<mask maskUnits="userSpaceOnUse" x="395.8" y="133.8" width="9.2" height="11.9" id="mask-4_5_">
				<g class="st12">
					<polygon id="path-3_5_" class="st1" points="64,216.7 462.9,216.7 462.9,0.4 64,0.4 					"/>
				</g>
			</mask>
			<path id="Fill-17" class="st13" d="M400.3,142.7c-1.1,0-1.6-1-1.6-2.9c0-2,0.5-2.9,1.6-2.9c1.1,0,1.6,1,1.6,2.9
				C402,141.7,401.4,142.7,400.3,142.7 M400.3,133.8c-1.5,0-2.7,0.6-3.5,1.8c-0.7,1.1-1.1,2.5-1.1,4.1c0,1.7,0.4,3.1,1.1,4.2
				c0.8,1.2,2,1.8,3.5,1.8c1.5,0,2.7-0.6,3.5-1.8c0.7-1.1,1.1-2.4,1.1-4.1c0-1.8-0.4-3.2-1.1-4.2C403,134.4,401.9,133.8,400.3,133.8
				"/>
			<defs>
				<filter id="Adobe_OpacityMaskFilter_6_" filterUnits="userSpaceOnUse" x="116.5" y="71.2" width="8.3" height="11.4">
					<feColorMatrix  type="matrix" values="1 0 0 0 0  0 1 0 0 0  0 0 1 0 0  0 0 0 1 0"/>
				</filter>
			</defs>
			<mask maskUnits="userSpaceOnUse" x="116.5" y="71.2" width="8.3" height="11.4" id="mask-4_6_">
				<g class="st14">
					<polygon id="path-3_6_" class="st1" points="64,216.7 462.9,216.7 462.9,0.4 64,0.4 					"/>
				</g>
			</mask>
			<polygon id="Fill-18" class="st15" points="120.6,77.9 121.7,82.6 124.8,82.6 122.1,71.2 119.1,71.2 116.5,82.4 116.5,82.6 
				119.5,82.6 			"/>
			<defs>
				<filter id="Adobe_OpacityMaskFilter_7_" filterUnits="userSpaceOnUse" x="129.8" y="71.2" width="7.4" height="11.4">
					<feColorMatrix  type="matrix" values="1 0 0 0 0  0 1 0 0 0  0 0 1 0 0  0 0 0 1 0"/>
				</filter>
			</defs>
			<mask maskUnits="userSpaceOnUse" x="129.8" y="71.2" width="7.4" height="11.4" id="mask-4_7_">
				<g class="st16">
					<polygon id="path-3_7_" class="st1" points="64,216.7 462.9,216.7 462.9,0.4 64,0.4 					"/>
				</g>
			</mask>
			<path id="Fill-19" class="st17" d="M132.8,74h0.6c0.3,0,0.6,0.1,0.7,0.3c0.2,0.2,0.3,0.5,0.3,0.9c0,0.4-0.1,0.6-0.3,0.9
				c-0.2,0.2-0.4,0.3-0.8,0.3h-0.6V74z M137.2,75.3c0-1.1-0.4-2.1-1.1-2.8c-0.7-0.8-1.6-1.2-2.7-1.2h-3.7v11.4h3v-3.4h0.1
				c0.2,1,0.7,1.8,1.4,2.4c0.7,0.6,1.7,1,2.8,1h0.1v-3.1h-0.1c-0.7,0-1.2-0.3-1.4-1.1C136.7,77.7,137.2,76.6,137.2,75.3L137.2,75.3z
				"/>
			<defs>
				<filter id="Adobe_OpacityMaskFilter_8_" filterUnits="userSpaceOnUse" x="142.3" y="71.2" width="3" height="11.4">
					<feColorMatrix  type="matrix" values="1 0 0 0 0  0 1 0 0 0  0 0 1 0 0  0 0 0 1 0"/>
				</filter>
			</defs>
			<mask maskUnits="userSpaceOnUse" x="142.3" y="71.2" width="3" height="11.4" id="mask-4_8_">
				<g class="st18">
					<polygon id="path-3_8_" class="st1" points="64,216.7 462.9,216.7 462.9,0.4 64,0.4 					"/>
				</g>
			</mask>
			<polygon id="Fill-20" class="st19" points="142.3,82.6 145.3,82.6 145.3,71.2 142.3,71.2 			"/>
			<defs>
				<filter id="Adobe_OpacityMaskFilter_9_" filterUnits="userSpaceOnUse" x="150.2" y="71.2" width="7.6" height="11.4">
					<feColorMatrix  type="matrix" values="1 0 0 0 0  0 1 0 0 0  0 0 1 0 0  0 0 0 1 0"/>
				</filter>
			</defs>
			<mask maskUnits="userSpaceOnUse" x="150.2" y="71.2" width="7.6" height="11.4" id="mask-4_9_">
				<g class="st20">
					<polygon id="path-3_9_" class="st1" points="64,216.7 462.9,216.7 462.9,0.4 64,0.4 					"/>
				</g>
			</mask>
			<polygon id="Fill-21" class="st21" points="157.7,82.6 157.7,79.8 154.4,79.8 157.7,71.4 157.8,71.2 150.7,71.2 150.7,74 
				153.6,74 150.2,82.6 			"/>
			<defs>
				<filter id="Adobe_OpacityMaskFilter_10_" filterUnits="userSpaceOnUse" x="161.9" y="71" width="9.2" height="11.9">
					<feColorMatrix  type="matrix" values="1 0 0 0 0  0 1 0 0 0  0 0 1 0 0  0 0 0 1 0"/>
				</filter>
			</defs>
			<mask maskUnits="userSpaceOnUse" x="161.9" y="71" width="9.2" height="11.9" id="mask-4_10_">
				<g class="st22">
					<polygon id="path-3_10_" class="st1" points="64,216.7 462.9,216.7 462.9,0.4 64,0.4 					"/>
				</g>
			</mask>
			<path id="Fill-22" class="st23" d="M166.5,74c1.1,0,1.6,1,1.6,2.9c0,2-0.5,2.9-1.6,2.9c-1.1,0-1.6-1-1.6-2.9
				C164.9,75,165.4,74,166.5,74 M171.1,77c0-1.8-0.4-3.2-1.1-4.2c-0.8-1.1-2-1.7-3.5-1.7c-1.5,0-2.7,0.6-3.5,1.8
				c-0.7,1.1-1.1,2.5-1.1,4.1c0,1.7,0.4,3.1,1.1,4.2c0.8,1.2,2,1.8,3.5,1.8c1.5,0,2.7-0.6,3.5-1.8C170.7,80,171.1,78.6,171.1,77"/>
			<defs>
				<filter id="Adobe_OpacityMaskFilter_11_" filterUnits="userSpaceOnUse" x="176.1" y="71.2" width="7.7" height="11.4">
					<feColorMatrix  type="matrix" values="1 0 0 0 0  0 1 0 0 0  0 0 1 0 0  0 0 0 1 0"/>
				</filter>
			</defs>
			<mask maskUnits="userSpaceOnUse" x="176.1" y="71.2" width="7.7" height="11.4" id="mask-4_11_">
				<g class="st24">
					<polygon id="path-3_11_" class="st1" points="64,216.7 462.9,216.7 462.9,0.4 64,0.4 					"/>
				</g>
			</mask>
			<polygon id="Fill-23" class="st25" points="179.1,78.2 182.3,82.6 182.4,82.6 183.8,82.6 183.8,71.2 180.7,71.2 180.7,75.3 
				177.5,71.2 176.1,71.2 176.1,82.6 179.1,82.6 			"/>
			<defs>
				<filter id="Adobe_OpacityMaskFilter_12_" filterUnits="userSpaceOnUse" x="188.8" y="71.2" width="8.3" height="11.4">
					<feColorMatrix  type="matrix" values="1 0 0 0 0  0 1 0 0 0  0 0 1 0 0  0 0 0 1 0"/>
				</filter>
			</defs>
			<mask maskUnits="userSpaceOnUse" x="188.8" y="71.2" width="8.3" height="11.4" id="mask-4_12_">
				<g class="st26">
					<polygon id="path-3_12_" class="st1" points="64,216.7 462.9,216.7 462.9,0.4 64,0.4 					"/>
				</g>
			</mask>
			<polygon id="Fill-24" class="st27" points="194,82.6 197.1,82.6 194.4,71.2 191.4,71.2 188.8,82.4 188.8,82.6 191.8,82.6 
				192.9,77.9 			"/>
			<defs>
				<filter id="Adobe_OpacityMaskFilter_13_" filterUnits="userSpaceOnUse" x="99.3" y="94.4" width="41.9" height="29.4">
					<feColorMatrix  type="matrix" values="1 0 0 0 0  0 1 0 0 0  0 0 1 0 0  0 0 0 1 0"/>
				</filter>
			</defs>
			<mask maskUnits="userSpaceOnUse" x="99.3" y="94.4" width="41.9" height="29.4" id="mask-4_13_">
				<g class="st28">
					<polygon id="path-3_13_" class="st1" points="64,216.7 462.9,216.7 462.9,0.4 64,0.4 					"/>
				</g>
			</mask>
			<polygon id="Fill-25" class="st29" points="111.9,113.3 107.5,94.4 99.3,94.4 107.3,123.8 115.3,123.8 120.3,105.6 125.3,123.8 
				133.3,123.8 141.3,94.4 133.1,94.4 128.7,113.3 123.7,94.4 119.4,94.4 116.4,96.4 			"/>
			<defs>
				<filter id="Adobe_OpacityMaskFilter_14_" filterUnits="userSpaceOnUse" x="146.3" y="94.4" width="15.1" height="29.4">
					<feColorMatrix  type="matrix" values="1 0 0 0 0  0 1 0 0 0  0 0 1 0 0  0 0 0 1 0"/>
				</filter>
			</defs>
			<mask maskUnits="userSpaceOnUse" x="146.3" y="94.4" width="15.1" height="29.4" id="mask-4_14_">
				<g class="st30">
					<polygon id="path-3_14_" class="st1" points="64,216.7 462.9,216.7 462.9,0.4 64,0.4 					"/>
				</g>
			</mask>
			<polygon id="Fill-26" class="st31" points="161.4,100.3 161.4,94.4 146.3,94.4 146.3,100.3 150.1,100.3 150.1,117.9 146.3,117.9 
				146.3,123.8 161.4,123.8 161.4,117.9 157.6,117.9 157.6,100.3 			"/>
			<defs>
				<filter id="Adobe_OpacityMaskFilter_15_" filterUnits="userSpaceOnUse" x="169.4" y="94.4" width="22.9" height="29.4">
					<feColorMatrix  type="matrix" values="1 0 0 0 0  0 1 0 0 0  0 0 1 0 0  0 0 0 1 0"/>
				</filter>
			</defs>
			<mask maskUnits="userSpaceOnUse" x="169.4" y="94.4" width="22.9" height="29.4" id="mask-4_15_">
				<g class="st32">
					<polygon id="path-3_15_" class="st1" points="64,216.7 462.9,216.7 462.9,0.4 64,0.4 					"/>
				</g>
			</mask>
			<polygon id="Fill-27" class="st33" points="192.2,117.9 176.9,117.9 176.9,94.4 172,94.4 169.4,97.4 169.4,123.8 192.2,123.8 			
				"/>
			<defs>
				<filter id="Adobe_OpacityMaskFilter_16_" filterUnits="userSpaceOnUse" x="192.2" y="94.4" width="33.1" height="29.4">
					<feColorMatrix  type="matrix" values="1 0 0 0 0  0 1 0 0 0  0 0 1 0 0  0 0 0 1 0"/>
				</filter>
			</defs>
			<mask maskUnits="userSpaceOnUse" x="192.2" y="94.4" width="33.1" height="29.4" id="mask-4_16_">
				<g class="st34">
					<polygon id="path-3_16_" class="st1" points="64,216.7 462.9,216.7 462.9,0.4 64,0.4 					"/>
				</g>
			</mask>
			<path id="Fill-28" class="st35" d="M206.9,100.3h7.1c2.5,0,3.8,1.3,3.8,3.8v10.1c0,2.5-1.3,3.8-3.8,3.8h-7.1V100.3z M215.7,123.8
				c3.2,0,5.6-0.8,7.2-2.5c1.6-1.6,2.5-4,2.5-7.2v-10.1c0-3.2-0.8-5.6-2.5-7.2c-1.6-1.6-4-2.5-7.2-2.5H205h-5.6h-7.1v5.9h2.5h4.6
				v23.5H215.7z"/>
			<defs>
				<filter id="Adobe_OpacityMaskFilter_17_" filterUnits="userSpaceOnUse" x="233.7" y="94.4" width="23.3" height="29.4">
					<feColorMatrix  type="matrix" values="1 0 0 0 0  0 1 0 0 0  0 0 1 0 0  0 0 0 1 0"/>
				</filter>
			</defs>
			<mask maskUnits="userSpaceOnUse" x="233.7" y="94.4" width="23.3" height="29.4" id="mask-4_17_">
				<g class="st36">
					<polygon id="path-3_17_" class="st1" points="64,216.7 462.9,216.7 462.9,0.4 64,0.4 					"/>
				</g>
			</mask>
			<polygon id="Fill-29" class="st37" points="253.7,100.3 253.7,94.4 236.3,94.4 233.7,97.4 233.7,123.8 257,123.8 257,117.9 
				241.3,117.9 241.3,111.9 253.7,111.9 253.7,106 241.3,106 241.3,100.3 			"/>
			<defs>
				<filter id="Adobe_OpacityMaskFilter_18_" filterUnits="userSpaceOnUse" x="259.9" y="94.4" width="31.1" height="29.4">
					<feColorMatrix  type="matrix" values="1 0 0 0 0  0 1 0 0 0  0 0 1 0 0  0 0 0 1 0"/>
				</filter>
			</defs>
			<mask maskUnits="userSpaceOnUse" x="259.9" y="94.4" width="31.1" height="29.4" id="mask-4_18_">
				<g class="st38">
					<polygon id="path-3_18_" class="st1" points="64,216.7 462.9,216.7 462.9,0.4 64,0.4 					"/>
				</g>
			</mask>
			<path id="Fill-30" class="st39" d="M272.1,100.3h2.5v0h5.9c1.7,0,2.5,0.8,2.5,2.5v3.8c0,1.7-0.8,2.5-2.5,2.5h-8.4V100.3z
				 M272.1,123.8V115h5.9l4.8,8.8h8.2l-5.2-9.2c1.7-0.4,2.9-1.3,3.7-2.6c0.8-1.3,1.2-3.1,1.2-5.4v-3.8c0-2.9-0.7-5.1-2-6.4
				c-1.3-1.3-3.5-2-6.4-2h-7.6h-2h-8.1h-4.6v5.9h4.4h0.2v23.5H272.1z"/>
			<defs>
				<filter id="Adobe_OpacityMaskFilter_19_" filterUnits="userSpaceOnUse" x="299" y="94.4" width="25.6" height="29.4">
					<feColorMatrix  type="matrix" values="1 0 0 0 0  0 1 0 0 0  0 0 1 0 0  0 0 0 1 0"/>
				</filter>
			</defs>
			<mask maskUnits="userSpaceOnUse" x="299" y="94.4" width="25.6" height="29.4" id="mask-4_19_">
				<g class="st40">
					<polygon id="path-3_19_" class="st1" points="64,216.7 462.9,216.7 462.9,0.4 64,0.4 					"/>
				</g>
			</mask>
			<polygon id="Fill-31" class="st41" points="317,112.1 306.9,94.4 301.7,94.4 299,97.4 299,123.8 306.5,123.8 306.5,106.2 
				316.6,123.8 324.5,123.8 324.5,94.4 317,94.4 			"/>
			<defs>
				<filter id="Adobe_OpacityMaskFilter_20_" filterUnits="userSpaceOnUse" x="333.8" y="94.4" width="23.3" height="29.4">
					<feColorMatrix  type="matrix" values="1 0 0 0 0  0 1 0 0 0  0 0 1 0 0  0 0 0 1 0"/>
				</filter>
			</defs>
			<mask maskUnits="userSpaceOnUse" x="333.8" y="94.4" width="23.3" height="29.4" id="mask-4_20_">
				<g class="st42">
					<polygon id="path-3_20_" class="st1" points="64,216.7 462.9,216.7 462.9,0.4 64,0.4 					"/>
				</g>
			</mask>
			<polygon id="Fill-32" class="st43" points="357.1,100.3 357.1,94.4 336.7,94.4 333.8,97.4 333.8,123.8 357.1,123.8 357.1,117.9 
				341.3,117.9 341.3,111.9 353.7,111.9 353.7,106 341.3,106 341.3,100.3 			"/>
			<defs>
				<filter id="Adobe_OpacityMaskFilter_21_" filterUnits="userSpaceOnUse" x="363.3" y="94.4" width="25.6" height="29.8">
					<feColorMatrix  type="matrix" values="1 0 0 0 0  0 1 0 0 0  0 0 1 0 0  0 0 0 1 0"/>
				</filter>
			</defs>
			<mask maskUnits="userSpaceOnUse" x="363.3" y="94.4" width="25.6" height="29.8" id="mask-4_21_">
				<g class="st44">
					<polygon id="path-3_21_" class="st1" points="64,216.7 462.9,216.7 462.9,0.4 64,0.4 					"/>
				</g>
			</mask>
			<path id="Fill-33" class="st45" d="M373.4,100.3h9.5h1.6l1.9-2.5v-3.3h-14.7c-2.9,0-5.1,0.7-6.4,2c-1.3,1.3-2,3.5-2,6.4v1.3
				c0,2.9,0.7,5.1,2,6.4c1.3,1.3,3.5,2,6.4,2h9.6v3.8c0,0.6-0.2,1.2-0.6,1.5c-0.4,0.4-0.9,0.6-1.5,0.6c-2.7,0-7.9-0.2-15.6-0.6v5.7
				c3,0.3,6,0.4,8.8,0.6l3.9,0.2c1.6,0.1,3.1,0.1,4.5,0.1c2.7,0,4.8-0.6,6-1.9c1.3-1.3,1.9-3.3,1.9-6v-2.1c0-2.7-0.6-4.8-1.9-6
				c-1.3-1.3-3.3-1.9-6-1.9h-7.5c-1.7,0-2.5-0.8-2.5-2.5v-0.8C370.9,101.2,371.7,100.3,373.4,100.3"/>
			<defs>
				<filter id="Adobe_OpacityMaskFilter_22_" filterUnits="userSpaceOnUse" x="395.6" y="94.4" width="25.6" height="29.8">
					<feColorMatrix  type="matrix" values="1 0 0 0 0  0 1 0 0 0  0 0 1 0 0  0 0 0 1 0"/>
				</filter>
			</defs>
			<mask maskUnits="userSpaceOnUse" x="395.6" y="94.4" width="25.6" height="29.8" id="mask-4_22_">
				<g class="st46">
					<polygon id="path-3_22_" class="st1" points="64,216.7 462.9,216.7 462.9,0.4 64,0.4 					"/>
				</g>
			</mask>
			<path id="Fill-34" class="st47" d="M405.7,100.3h13v-5.9H404c-2.9,0-5.1,0.7-6.4,2c-1.3,1.3-2,3.5-2,6.4v1.3c0,2.9,0.7,5.1,2,6.4
				c1.3,1.3,3.5,2,6.4,2h9.6v3.8c0,0.6-0.2,1.2-0.6,1.5c-0.4,0.4-0.9,0.6-1.5,0.6c-2.7,0-7.9-0.2-15.6-0.6v5.7c3,0.3,6,0.4,8.8,0.6
				l3.9,0.2c1.6,0.1,3.1,0.1,4.5,0.1c2.7,0,4.8-0.6,6-1.9c1.3-1.3,1.9-3.3,1.9-6v-2.1c0-2.7-0.6-4.8-1.9-6c-1.3-1.3-3.3-1.9-6-1.9
				h-7.5c-1.7,0-2.5-0.8-2.5-2.5v-0.8C403.2,101.2,404,100.3,405.7,100.3"/>
			<defs>
				<filter id="Adobe_OpacityMaskFilter_23_" filterUnits="userSpaceOnUse" x="277.7" y="168.2" width="136.6" height="48.5">
					<feColorMatrix  type="matrix" values="1 0 0 0 0  0 1 0 0 0  0 0 1 0 0  0 0 0 1 0"/>
				</filter>
			</defs>
			<mask maskUnits="userSpaceOnUse" x="277.7" y="168.2" width="136.6" height="48.5" id="mask-4_23_">
				<g class="st48">
					<polygon id="path-3_23_" class="st1" points="64,216.7 462.9,216.7 462.9,0.4 64,0.4 					"/>
				</g>
			</mask>
			<path id="Fill-35" class="st49" d="M283.5,210.9h125v-36.9h-125V210.9z M277.7,216.7h136.6v-48.5H277.7V216.7z"/>
			<defs>
				<filter id="Adobe_OpacityMaskFilter_24_" filterUnits="userSpaceOnUse" x="306.1" y="185.2" width="11.3" height="15.7">
					<feColorMatrix  type="matrix" values="1 0 0 0 0  0 1 0 0 0  0 0 1 0 0  0 0 0 1 0"/>
				</filter>
			</defs>
			<mask maskUnits="userSpaceOnUse" x="306.1" y="185.2" width="11.3" height="15.7" id="mask-4_24_">
				<g class="st50">
					<polygon id="path-3_24_" class="st1" points="64,216.7 462.9,216.7 462.9,0.4 64,0.4 					"/>
				</g>
			</mask>
			<path id="Fill-36" class="st51" d="M311.1,197c-0.3,0-0.6,0-1.1,0v-8c0.5,0,0.8,0,1.1,0c1.7,0.3,2.5,1.6,2.5,4
				C313.6,195.4,312.8,196.7,311.1,197 M311.1,185.2h-5v15.7h5c1.9,0,3.5-0.8,4.6-2.3c1.1-1.5,1.7-3.3,1.7-5.6
				c0-2.3-0.6-4.1-1.7-5.6C314.6,185.9,313,185.2,311.1,185.2"/>
			<defs>
				<filter id="Adobe_OpacityMaskFilter_25_" filterUnits="userSpaceOnUse" x="323.4" y="185.2" width="9.2" height="15.7">
					<feColorMatrix  type="matrix" values="1 0 0 0 0  0 1 0 0 0  0 0 1 0 0  0 0 0 1 0"/>
				</filter>
			</defs>
			<mask maskUnits="userSpaceOnUse" x="323.4" y="185.2" width="9.2" height="15.7" id="mask-4_25_">
				<g class="st52">
					<polygon id="path-3_25_" class="st1" points="64,216.7 462.9,216.7 462.9,0.4 64,0.4 					"/>
				</g>
			</mask>
			<polygon id="Fill-37" class="st53" points="323.4,188.7 326,188.7 326,200.9 329.9,200.9 329.9,188.7 332.6,188.7 332.6,185.2 
				323.4,185.2 			"/>
			<defs>
				<filter id="Adobe_OpacityMaskFilter_26_" filterUnits="userSpaceOnUse" x="340.1" y="185.2" width="10.1" height="15.7">
					<feColorMatrix  type="matrix" values="1 0 0 0 0  0 1 0 0 0  0 0 1 0 0  0 0 0 1 0"/>
				</filter>
			</defs>
			<mask maskUnits="userSpaceOnUse" x="340.1" y="185.2" width="10.1" height="15.7" id="mask-4_26_">
				<g class="st54">
					<polygon id="path-3_26_" class="st1" points="64,216.7 462.9,216.7 462.9,0.4 64,0.4 					"/>
				</g>
			</mask>
			<path id="Fill-38" class="st55" d="M346.3,192c-0.3,0.4-0.7,0.6-1.2,0.6H344v-3.8h1.1c0.5,0,0.9,0.2,1.2,0.6
				c0.3,0.4,0.4,0.8,0.4,1.4C346.7,191.2,346.6,191.6,346.3,192 M345.1,185.2h-5v15.7h3.9v-4.8h1.1c1.5,0,2.7-0.5,3.7-1.6
				s1.5-2.3,1.5-3.8c0-1.5-0.5-2.8-1.5-3.9C347.8,185.7,346.6,185.2,345.1,185.2"/>
			<defs>
				<filter id="Adobe_OpacityMaskFilter_27_" filterUnits="userSpaceOnUse" x="357.1" y="185.2" width="11.4" height="15.7">
					<feColorMatrix  type="matrix" values="1 0 0 0 0  0 1 0 0 0  0 0 1 0 0  0 0 0 1 0"/>
				</filter>
			</defs>
			<mask maskUnits="userSpaceOnUse" x="357.1" y="185.2" width="11.4" height="15.7" id="mask-4_27_">
				<g class="st56">
					<polygon id="path-3_27_" class="st1" points="64,216.7 462.9,216.7 462.9,0.4 64,0.4 					"/>
				</g>
			</mask>
			<polygon id="Fill-39" class="st57" points="364.6,191.3 361,191.3 361,185.2 357.1,185.2 357.1,200.9 361,200.9 361,194.8 
				364.6,194.8 364.6,200.9 368.5,200.9 368.5,185.2 364.6,185.2 			"/>
			<defs>
				<filter id="Adobe_OpacityMaskFilter_28_" filterUnits="userSpaceOnUse" x="375.9" y="185.2" width="10.4" height="15.7">
					<feColorMatrix  type="matrix" values="1 0 0 0 0  0 1 0 0 0  0 0 1 0 0  0 0 0 1 0"/>
				</filter>
			</defs>
			<mask maskUnits="userSpaceOnUse" x="375.9" y="185.2" width="10.4" height="15.7" id="mask-4_28_">
				<g class="st58">
					<polygon id="path-3_28_" class="st1" points="64,216.7 462.9,216.7 462.9,0.4 64,0.4 					"/>
				</g>
			</mask>
			<polygon id="Fill-40" class="st59" points="382.4,185.2 381.1,190.1 379.8,185.2 375.9,185.2 378.4,193 375.9,200.9 379.8,200.9 
				381.1,195.8 382.4,200.9 386.3,200.9 383.8,193 386.3,185.2 			"/>
		</g>
	</g>
</g>
</svg>
