<?xml version="1.0" encoding="UTF-8"?>
<svg width="550px" height="291px" viewBox="0 0 550 291" version="1.1" xmlns="http://www.w3.org/2000/svg" xmlns:xlink="http://www.w3.org/1999/xlink">
    <title>idenitty_woodnotes</title>
    <defs>
        <polygon id="path-1" points="0 291 549.68061 291 549.68061 0.268197761 0 0.268197761"></polygon>
    </defs>
    <g id="WILDERNESS-001" stroke="none" stroke-width="1" fill="none" fill-rule="evenodd">
        <g id="Identity_Design-Copy" transform="translate(-755.000000, -3358.000000)">
            <g id="idenitty_woodnotes" transform="translate(755.000000, 3358.000000)">
                <polygon id="Fill-1" fill="#7E694F" points="121.644387 89.785124 113.682678 89.785124 121.441244 120.247934 129.197636 120.247934 134.098069 101.317805 138.997415 120.247934 146.75598 120.247934 154.512373 89.785124 146.550664 89.785124 142.262921 109.368128 137.364661 89.785124 133.227919 89.785124 130.328505 91.8451865 125.93213 109.368128"></polygon>
                <polygon id="Fill-2" fill="#7E694F" points="173.726346 95.8779018 173.726346 89.785124 159.315866 89.785124 159.315866 95.8779018 162.918486 95.8779018 162.918486 114.155156 159.315866 114.155156 159.315866 120.247934 173.726346 120.247934 173.726346 114.155156 170.123726 114.155156 170.123726 95.8779018"></polygon>
                <polygon id="Fill-3" fill="#7E694F" points="203.347889 114.155156 188.334745 114.155156 188.334745 89.785124 183.512022 89.785124 180.931587 92.8552538 180.931587 120.247934 203.347889 120.247934"></polygon>
                <g id="Group-53">
                    <path d="M217.846988,96.0261996 L224.765295,96.0261996 C227.206732,96.0261996 228.427992,97.3389571 228.427992,99.9677295 L228.427992,110.476304 C228.427992,113.103991 227.206732,114.416748 224.765295,114.416748 L217.846988,114.416748 L217.846988,96.0261996 Z M226.393642,120.547293 C229.458701,120.547293 231.785374,119.693838 233.371496,117.985841 C234.958701,116.277845 235.752303,113.776114 235.752303,110.476304 L235.752303,99.9677295 C235.752303,96.6690056 234.958701,94.1651026 233.371496,92.4571063 C231.785374,90.7501959 229.458701,89.8956549 226.393642,89.8956549 L215.985866,89.8956549 L210.522677,89.8956549 L203.61628,89.8956549 L203.61628,96.0327146 L206.025236,96.0327146 L210.522677,96.0327146 L210.522677,120.547293 L226.393642,120.547293 Z" id="Fill-4" fill="#7E694F"></path>
                    <polygon id="Fill-6" fill="#7E694F" points="263.210512 96.0261996 263.210512 89.8956549 246.348898 89.8956549 243.890138 93.0163041 243.890138 120.547293 266.474783 120.547293 266.474783 114.416748 251.214449 114.416748 251.214449 108.067953 263.219173 108.067953 263.219173 101.937409 251.214449 101.937409 251.214449 96.0261996"></polygon>
                    <path d="M291.704843,102.594113 C291.704843,104.345542 290.890669,105.2218 289.262323,105.2218 L281.124921,105.2218 L281.124921,96.0324974 L283.517638,96.0324974 L283.517638,96.0259825 L289.262323,96.0259825 C290.890669,96.0259825 291.704843,96.9022399 291.704843,98.653669 L291.704843,102.594113 Z M297.909665,108.242553 C298.656713,106.900479 299.029154,105.017665 299.029154,102.594113 L299.029154,98.653669 C299.029154,95.5883966 298.383878,93.3624638 297.095492,91.9758705 C295.807106,90.5892772 293.739193,89.8965235 290.890669,89.8965235 L283.517638,89.8965235 L281.612126,89.8965235 L273.799528,89.8965235 L269.298839,89.8965235 L269.298839,96.0324974 L273.557008,96.0324974 L273.799528,96.0324974 L273.799528,120.547076 L281.124921,120.547076 L281.124921,111.351259 L286.820886,111.351259 L291.501299,120.547076 L299.43624,120.547076 L294.34874,110.914759 C295.977087,110.476087 297.163701,109.585714 297.909665,108.242553 L297.909665,108.242553 Z" id="Fill-8" fill="#7E694F"></path>
                    <polygon id="Fill-10" fill="#7E694F" points="331.989094 89.8961978 324.664783 89.8961978 324.664783 108.286746 314.899035 89.8961978 309.807205 89.8961978 307.166555 93.0059888 307.166555 120.547836 314.491949 120.547836 314.491949 102.157287 324.257697 120.547836 331.989094 120.547836"></polygon>
                    <polygon id="Fill-12" fill="#7E694F" points="340.941319 93.0269451 340.941319 120.547076 363.525965 120.547076 363.525965 114.416531 348.266713 114.416531 348.266713 108.067736 360.271437 108.067736 360.271437 101.937191 348.266713 101.937191 348.266713 96.0259825 363.525965 96.0259825 363.525965 89.8965235 343.746535 89.8965235"></polygon>
                    <path d="M379.396388,96.0261996 L388.629459,96.0261996 L390.218829,96.0261996 L392.051801,93.3898265 L392.051801,89.8956549 L377.769124,89.8956549 C374.9206,89.8956549 372.851604,90.5894944 371.564301,91.9760877 C370.274833,93.362681 369.63064,95.5886138 369.63064,98.6528004 L369.63064,99.9677295 C369.63064,103.031916 370.274833,105.258935 371.564301,106.644442 C372.851604,108.032121 374.9206,108.724875 377.769124,108.724875 L387.128868,108.724875 L387.128868,112.665319 C387.128868,113.337442 386.945896,113.869494 386.579951,114.263647 C386.212923,114.6578 385.71814,114.85542 385.094518,114.85542 C382.461447,114.85542 377.430246,114.636084 369.995502,114.198498 L369.995502,120.109707 C372.953376,120.372476 375.814892,120.575524 378.582215,120.72211 L382.326112,120.898013 C383.873258,120.955562 385.33812,120.984879 386.721781,120.984879 C389.380837,120.984879 391.332904,120.313841 392.582313,118.970681 C393.829557,117.629692 394.453179,115.526457 394.453179,112.665319 L394.453179,110.476304 C394.453179,107.616252 393.829557,105.514103 392.582313,104.170942 C391.332904,102.828868 389.380837,102.156744 386.721781,102.156744 L379.396388,102.156744 C377.769124,102.156744 376.954951,101.280487 376.954951,99.5290578 L376.954951,98.6528004 C376.954951,96.9024571 377.769124,96.0261996 379.396388,96.0261996" id="Fill-14" fill="#7E694F"></path>
                    <path d="M423.915207,118.971007 C425.162451,117.628932 425.787156,115.526783 425.787156,112.665645 L425.787156,110.475544 C425.787156,107.615492 425.162451,105.513343 423.915207,104.171268 C422.667963,102.828107 420.71373,102.15707 418.054675,102.15707 L410.730364,102.15707 C409.102018,102.15707 408.288927,101.280813 408.288927,99.5293836 L408.288927,98.6531261 C408.288927,96.901697 409.102018,96.0265254 410.730364,96.0265254 L423.38686,96.0265254 L423.38686,89.8959806 L409.102018,89.8959806 C406.254577,89.8959806 404.184498,90.5898201 402.897195,91.9753276 C401.607726,93.3630067 400.964616,95.5878537 400.964616,98.6531261 L400.964616,99.9680552 C400.964616,103.032242 401.607726,105.25926 402.897195,106.644768 C404.184498,108.031361 406.254577,108.724115 409.102018,108.724115 L418.461762,108.724115 L418.461762,112.665645 C418.461762,113.337768 418.278789,113.86982 417.912844,114.263973 C417.545817,114.658126 417.051033,114.85466 416.427411,114.85466 C413.795423,114.85466 408.76314,114.63641 401.330561,114.197738 L401.330561,120.110033 C404.287352,120.372801 407.149951,120.57585 409.916191,120.722436 L413.660089,120.897253 C415.207234,120.955887 416.672096,120.985204 418.054675,120.985204 C420.71373,120.985204 422.667963,120.314167 423.915207,118.971007" id="Fill-16" fill="#7E694F"></path>
                    <polygon id="Fill-18" fill="#7E694F" points="133.109528 75.1400004 134.155394 79.6570153 137.097028 79.6570153 134.553819 68.679366 131.664154 68.679366 129.159921 79.4854556 129.119862 79.6570153 132.061496 79.6570153"></polygon>
                    <path d="M144.852461,71.3661213 L145.439272,71.3661213 C145.746752,71.3661213 145.979528,71.4714459 146.149508,71.6864384 C146.327067,71.9122892 146.415846,72.2032892 146.415846,72.5507519 C146.415846,72.8884422 146.331398,73.1642407 146.163583,73.3727183 C145.982776,73.598569 145.747835,73.7071511 145.439272,73.7071511 L144.852461,73.7071511 L144.852461,71.3661213 Z M149.093307,72.5507519 C149.093307,71.4757892 148.741437,70.5517556 148.049606,69.8079683 C147.35561,69.0587519 146.479724,68.6787146 145.447933,68.6787146 L141.920571,68.6787146 L141.920571,79.6574496 L144.852461,79.6574496 L144.852461,76.3945578 L144.936909,76.3945578 C145.15561,77.3598526 145.609252,78.1383862 146.281594,78.7138713 C146.999409,79.3393041 147.899114,79.6574496 148.953642,79.6574496 L149.093307,79.6574496 L149.093307,76.6899011 L148.953642,76.6899011 C148.274803,76.6899011 147.834154,76.3543825 147.608957,75.6648862 C148.594193,74.9058974 149.093307,73.859166 149.093307,72.5507519 L149.093307,72.5507519 Z" id="Fill-20" fill="#7E694F"></path>
                    <mask id="mask-2" fill="white">
                        <use xlink:href="#path-1"></use>
                    </mask>
                    <g id="Clip-23"></g>
                    <polygon id="Fill-22" fill="#7E694F" mask="url(#mask-2)" points="153.954528 79.6569067 156.886417 79.6569067 156.886417 68.6792575 153.954528 68.6792575"></polygon>
                    <polygon id="Fill-24" fill="#7E694F" mask="url(#mask-2)" points="168.853789 79.6572325 168.853789 76.9709116 165.638238 76.9709116 168.844045 68.8696019 168.919833 68.6795832 162.066486 68.6795832 162.066486 71.3659041 164.887943 71.3659041 161.593356 79.6572325"></polygon>
                    <path d="M177.306358,71.3517884 C178.352224,71.3517884 178.861083,72.275822 178.861083,74.1749228 C178.861083,76.0740235 178.352224,76.9969713 177.306358,76.9969713 C176.251831,76.9969713 175.738642,76.0740235 175.738642,74.1749228 C175.738642,72.275822 176.251831,71.3517884 177.306358,71.3517884 M177.306358,79.9243444 C178.772303,79.9243444 179.909114,79.332572 180.688642,78.1642287 C181.36748,77.1479004 181.711772,75.8079974 181.711772,74.1814377 C181.711772,72.4832138 181.358819,71.1150795 180.660492,70.1161243 C179.890709,69.0118444 178.762559,68.4526466 177.306358,68.4526466 C175.858819,68.4526466 174.729587,69.0357325 173.952224,70.1834451 C173.245236,71.2106317 172.88687,72.554878 172.88687,74.1814377 C172.88687,75.8188556 173.245236,77.1674451 173.951142,78.1913743 C174.729587,79.3401728 175.858819,79.9243444 177.306358,79.9243444" id="Fill-25" fill="#7E694F" mask="url(#mask-2)"></path>
                    <polygon id="Fill-26" fill="#7E694F" mask="url(#mask-2)" points="189.451614 75.3945168 192.544823 79.5999011 192.585965 79.6574496 193.933898 79.6574496 193.933898 68.6787146 190.999843 68.6787146 190.999843 72.5702966 187.863327 68.6787146 186.519724 68.6787146 186.519724 79.6574496 189.451614 79.6574496"></polygon>
                    <polygon id="Fill-27" fill="#7E694F" mask="url(#mask-2)" points="206.721073 79.6572325 204.175699 68.6795832 201.288199 68.6795832 198.781801 79.4856728 198.742825 79.6572325 201.685541 79.6572325 202.731407 75.1413034 203.778356 79.6572325"></polygon>
                    <path d="M303.230482,137.330284 C303.09623,137.489899 302.930581,137.568078 302.719459,137.568078 L301.650856,137.568078 L301.650856,135.827507 L302.719459,135.827507 C302.914341,135.827507 303.073494,135.895914 303.207746,136.035985 C303.363652,136.206459 303.439439,136.433396 303.439439,136.729825 C303.439439,136.966534 303.37123,137.161981 303.230482,137.330284 L303.230482,137.330284 Z M301.650856,131.963071 L302.4856,131.963071 C302.631762,131.963071 302.74436,132.016276 302.838553,132.131373 C302.937077,132.254071 302.985797,132.394142 302.985797,132.558101 C302.985797,132.842586 302.897018,133.221537 302.125069,133.221537 L301.650856,133.221537 L301.650856,131.963071 Z M304.745148,130.234444 C304.1356,129.598153 303.379892,129.27675 302.498593,129.27675 L298.720049,129.27675 L298.720049,140.253313 L302.724872,140.253313 C303.676545,140.253313 304.488553,139.909108 305.139242,139.229384 C305.788848,138.548575 306.119065,137.707063 306.119065,136.729825 C306.119065,136.242291 306.014045,135.748243 305.808337,135.266138 C305.625364,134.838325 305.40125,134.498463 305.141407,134.24981 C305.488947,133.857828 305.665423,133.289944 305.665423,132.558101 C305.665423,131.65144 305.355778,130.868563 304.745148,130.234444 L304.745148,130.234444 Z" id="Fill-28" fill="#7E694F" mask="url(#mask-2)"></path>
                    <path d="M314.993012,133.969451 C314.81437,134.195301 314.577264,134.303884 314.268701,134.303884 L313.682972,134.303884 L313.682972,131.962854 L314.268701,131.962854 C314.575098,131.962854 314.808957,132.068178 314.98002,132.283171 C315.156496,132.507936 315.245276,132.79785 315.245276,133.147484 C315.245276,133.48626 315.160827,133.762059 314.993012,133.969451 M317.923819,133.147484 C317.923819,132.072522 317.573031,131.149574 316.880118,130.404701 C316.185039,129.655484 315.310236,129.276533 314.278445,129.276533 L310.752165,129.276533 L310.752165,140.254182 L313.682972,140.254182 L313.682972,136.99129 L313.766339,136.99129 C313.986122,137.955499 314.439764,138.736204 315.112106,139.310604 C315.828839,139.936037 316.729626,140.254182 317.784154,140.254182 L317.923819,140.254182 L317.923819,137.286634 L317.784154,137.286634 C317.10315,137.286634 316.663583,136.951115 316.439469,136.261619 C317.424705,135.50263 317.923819,134.455899 317.923819,133.147484" id="Fill-29" fill="#7E694F" mask="url(#mask-2)"></path>
                    <polygon id="Fill-30" fill="#7E694F" mask="url(#mask-2)" points="328.730453 131.962745 328.730453 129.276424 322.785472 129.276424 322.785472 140.254074 328.730453 140.254074 328.730453 137.567753 325.71628 137.567753 325.71628 136.107324 328.448957 136.107324 328.448957 133.422088 325.71628 133.422088 325.71628 131.962745"></polygon>
                    <path d="M339.845866,133.799303 L339.094488,129.27903 C339.094488,129.27903 338.011811,129.280116 338.151476,129.280116 L337.31998,133.799303 L336.27628,129.275773 L333.259941,129.275773 L335.860531,140.147012 L335.886516,140.253422 L337.680512,140.253422 L338.584547,136.284747 L339.499409,140.253422 L341.279331,140.253422 L343.905906,129.275773 L340.89065,129.275773 L339.845866,133.799303 Z" id="Fill-31" fill="#7E694F" mask="url(#mask-2)"></path>
                    <polygon id="Fill-32" fill="#7E694F" mask="url(#mask-2)" points="348.663189 140.254399 351.593996 140.254399 351.593996 129.27675 348.663189 129.27675"></polygon>
                    <polygon id="Fill-33" fill="#7E694F" mask="url(#mask-2)" points="361.24249 133.166703 358.104892 129.276207 356.762372 129.276207 356.762372 140.253856 359.694262 140.253856 359.694262 135.990924 362.786388 140.197394 362.828612 140.253856 364.175463 140.253856 364.175463 129.276207 361.24249 129.276207"></polygon>
                    <path d="M370.085797,138.787781 C370.865325,139.937665 371.994557,140.520751 373.442096,140.520751 C374.350463,140.520751 375.132156,140.302501 375.763356,139.87143 C376.380482,140.132027 376.850364,140.295986 377.161093,140.357878 L377.326742,140.391538 L377.326742,135.775714 L374.648199,135.775714 L374.648199,136.812673 C374.39377,137.33821 373.999675,137.593378 373.442096,137.593378 C372.386486,137.593378 371.873297,136.67043 371.873297,134.772415 C371.873297,132.872229 372.386486,131.949281 373.442096,131.949281 C374.034321,131.949281 374.433829,132.188162 374.661191,132.68221 L374.716407,132.803822 L377.327825,131.752747 L377.278022,131.624621 C376.600266,129.916624 375.308632,129.049053 373.442096,129.049053 C371.994557,129.049053 370.865325,129.632139 370.08688,130.780938 C369.380974,131.808124 369.021526,133.152371 369.021526,134.77893 C369.021526,136.414176 369.380974,137.762766 370.085797,138.787781" id="Fill-34" fill="#7E694F" mask="url(#mask-2)"></path>
                    <path d="M395.186152,131.948955 C395.754557,131.948955 396.155148,132.216067 396.407411,132.764407 L396.461545,132.882761 L399.115187,131.834944 L399.063219,131.704646 C398.367057,129.942358 397.062431,129.049813 395.186152,129.049813 C393.738612,129.049813 392.610463,129.632899 391.830935,130.780612 C391.12503,131.807799 390.767746,133.153131 390.767746,134.778604 C390.767746,136.412765 391.12503,137.76244 391.829852,138.787455 C392.610463,139.93734 393.738612,140.521511 395.186152,140.521511 C397.036447,140.521511 398.335659,139.623537 399.049144,137.852563 L399.101112,137.721179 L396.462628,136.673362 L396.407411,136.792802 C396.155148,137.331369 395.754557,137.594138 395.186152,137.594138 C394.130541,137.594138 393.619518,136.670104 393.619518,134.77209 C393.619518,132.872989 394.130541,131.948955 395.186152,131.948955" id="Fill-35" fill="#7E694F" mask="url(#mask-2)"></path>
                    <path d="M407.578799,131.948955 C408.625748,131.948955 409.134606,132.872989 409.134606,134.77209 C409.134606,136.670104 408.625748,137.594138 407.578799,137.594138 C406.524272,137.594138 406.012165,136.670104 406.012165,134.77209 C406.012165,132.872989 406.524272,131.948955 407.578799,131.948955 M407.578799,140.521511 C409.044744,140.521511 410.181555,139.928653 410.962165,138.76031 C411.641004,137.742896 411.985295,136.402993 411.985295,134.778604 C411.985295,133.081466 411.632343,131.714418 410.935098,130.713291 C410.164232,129.609011 409.035,129.049813 407.578799,129.049813 C406.132343,129.049813 405.00311,129.632899 404.224665,130.780612 C403.517677,131.807799 403.160394,133.153131 403.160394,134.778604 C403.160394,136.412765 403.517677,137.76244 404.223583,138.787455 C405.00311,139.93734 406.132343,140.521511 407.578799,140.521511" id="Fill-36" fill="#7E694F" mask="url(#mask-2)"></path>
                    <path d="M315.273209,192.954716 C313.879803,192.877623 312.570846,192.815731 311.355,192.769041 C309.179902,192.687604 307.3675,192.648515 305.823602,192.648515 C298.36937,192.648515 291.537677,194.133918 285.21376,197.143813 L311.077835,197.143813 C312.48748,195.645381 313.888465,194.241414 315.273209,192.954716" id="Fill-37" fill="#7E694F" mask="url(#mask-2)"></path>
                    <path d="M409.397372,196.873878 C411.149144,194.388434 413.037333,191.824811 415.043533,189.20364 C411.701309,189.980001 407.913022,190.443647 403.582313,190.443647 L386.339596,190.444733 C384.725325,192.691296 382.144222,194.877054 378.052785,196.517729 C377.496289,196.740322 376.932215,196.9488 376.358396,197.144248 L403.582313,197.144248 C405.622077,197.144248 407.549242,197.042181 409.397372,196.873878" id="Fill-38" fill="#7E694F" mask="url(#mask-2)"></path>
                    <path d="M137.480945,197.143813 L263.788228,197.143813 C266.490591,194.631224 269.306634,192.391175 272.242854,190.445384 L137.41815,190.445384 L137.362933,190.445384 C135.971693,190.445384 117.16126,189.925276 109.520807,162.737407 C100.991476,132.385455 85.1887205,75.3852873 85.0544685,74.9086119 C84.7394094,73.6284291 77.6890157,43.4230634 107.758209,33.0947351 C141.067854,21.6523545 172.798957,10.7659142 172.798957,10.7659142 L173.032815,10.675791 C173.137835,10.6301866 181.799252,6.96771269 191.941772,6.96771269 C194.111457,6.96771269 196.34935,7.13601493 198.585079,7.54319776 C212.12937,10.0036679 214.994134,10.591097 215.021201,10.5986978 L434.006732,48.5513955 C436.272776,49.2278619 458.626811,56.5430373 454.566772,80.7372985 C450.309685,106.096646 440.733406,156.42553 438.966476,165.68541 C440.648957,164.985056 442.239409,164.629993 443.760571,164.629993 C444.501122,164.629993 445.221102,164.729888 445.915098,164.909049 C448.377106,151.985608 457.130551,105.820847 461.15378,81.8502649 C466.324646,51.0411828 435.965295,42.1428806 435.657815,42.0571007 L435.493248,42.0104104 L216.313917,4.02513806 C215.851614,3.93067164 212.58626,3.27809328 199.777106,0.950093284 C185.693642,-1.60918657 172.074646,3.81991791 170.5275,4.46272388 C168.480157,5.16633582 137.773268,15.702056 105.593937,26.7567985 C69.807126,39.0493769 78.476122,76.138847 78.5919685,76.6079216 C78.751122,77.1801493 94.5582087,134.191175 103.090787,164.552899 C112.007717,196.284929 134.927992,197.145985 137.307717,197.145985 C137.391083,197.145985 137.449547,197.145985 137.480945,197.143813" id="Fill-39" fill="#7E694F" mask="url(#mask-2)"></path>
                    <path d="M512.127953,216.927687 C513.291831,215.009042 514.454626,214.049176 515.621752,214.049176 C516.369882,214.049176 516.744488,214.42487 516.744488,215.176258 C516.744488,216.845165 515.122638,219.723676 511.878937,223.80962 C510.962992,223.80962 510.507185,223.101665 510.507185,221.681411 C510.507185,220.348023 511.046358,218.762725 512.127953,216.927687 L512.127953,216.927687 Z M470.08435,244.329463 C466.84065,249.835661 463.553642,252.587131 460.227657,252.587131 C458.5625,252.587131 457.733169,251.21031 457.733169,248.457754 C457.733169,243.953769 460.104232,237.866657 464.844193,230.189904 C470.165551,221.599975 475.282283,217.302296 480.190059,217.302296 C481.936417,217.302296 482.810138,218.303422 482.810138,220.30459 C482.810138,221.808452 478.569291,229.815296 470.08435,244.329463 L470.08435,244.329463 Z M380.381299,216.677949 C382.12874,216.677949 383.001378,217.635643 383.001378,219.554288 C383.001378,222.476232 380.712598,225.97909 376.13937,230.065034 C371.479528,234.069542 367.655512,236.07071 364.660827,236.07071 C371.150394,223.142926 376.389469,216.677949 380.381299,216.677949 L380.381299,216.677949 Z M427.91624,189.024262 C434.403642,178.098732 438.603346,172.633796 440.516437,172.633796 C441.681398,172.633796 442.263878,173.508967 442.263878,175.260396 C442.263878,179.26599 439.519291,185.772228 434.030118,194.780199 C427.622835,205.209508 420.970866,212.466049 414.068799,216.550907 C416.812303,209.128236 421.429921,199.954135 427.91624,189.024262 L427.91624,189.024262 Z M457.11063,189.024262 C463.596949,178.098732 467.796654,172.633796 469.710827,172.633796 C470.873622,172.633796 471.458268,173.508967 471.458268,175.260396 C471.458268,179.26599 468.712598,185.772228 463.223425,194.780199 C456.816142,205.209508 450.164173,212.466049 443.262106,216.550907 C446.006693,209.128236 450.622146,199.954135 457.11063,189.024262 L457.11063,189.024262 Z M548.683465,224.435053 C536.207776,242.452079 526.682382,251.461135 520.111614,251.461135 C517.948425,251.461135 516.868996,250.336225 516.868996,248.083146 C516.868996,247.250322 517.658268,245.539068 519.238976,242.952643 L529.095669,226.061613 C530.842028,223.058232 531.716831,221.015803 531.716831,219.929982 C531.716831,218.596594 531.297835,217.448881 530.466339,216.490101 C529.634843,215.531322 528.596555,215.050303 527.349311,215.050303 C525.853051,215.050303 524.062303,215.844038 521.984646,217.428251 L514.25,223.683665 C517.159154,220.264415 518.615354,217.385904 518.615354,215.050303 C518.615354,213.131657 517.617126,212.172878 515.621752,212.172878 C513.790945,212.172878 512.127953,213.298874 510.63061,215.549781 C509.217717,217.720337 508.508563,219.763851 508.508563,221.681411 C508.508563,224.247206 509.173327,225.755411 510.482283,226.245116 C508.839862,228.178963 507.102165,230.161672 505.267028,232.193243 C502.854823,234.863277 500.19252,237.615833 497.281201,240.450911 C489.214173,248.542449 483.765059,252.587131 480.938189,252.587131 C479.108465,252.587131 478.193602,251.754307 478.193602,250.0854 C478.193602,248.918143 478.899508,247.000583 480.31565,244.329463 L496.658661,213.548613 C496.408563,213.632221 495.700492,214.25874 494.537697,215.425997 C493.539469,216.427124 492.872539,216.927687 492.54124,216.927687 C491.95876,216.927687 491.085039,216.801732 489.922244,216.550907 C488.755118,216.301169 487.88248,216.177385 487.301083,216.177385 C486.552953,216.177385 485.67815,216.801732 484.679921,218.052598 C483.265945,216.050344 481.146063,215.050303 478.317028,215.050303 C471.331594,215.050303 464.926476,217.802859 459.106004,223.309057 C454.813189,227.425404 452.12815,231.963049 451.045472,236.919822 C450.105709,238.229322 449.134547,239.531221 448.126575,240.825519 C442.303937,248.16784 437.398327,251.836829 433.405413,251.836829 C431.659055,251.836829 430.784252,250.836788 430.784252,248.834534 C430.784252,244.663896 432.074803,239.700609 434.652657,233.944672 C435.982185,231.025986 437.148228,228.438475 438.146457,226.185396 C439.144685,223.93449 439.974016,222.100538 440.640945,220.68137 C451.702657,214.343434 460.852362,205.708986 468.087894,194.780199 C473.744882,186.189184 476.654035,179.433206 476.822933,174.510094 C476.822933,173.426445 476.447244,172.404687 475.699114,171.443736 C474.949902,170.486042 474.033957,170.006109 472.953445,170.006109 C468.379134,170.006109 461.018012,176.471087 450.872244,189.401042 C447.128346,194.154766 443.80128,198.680467 440.889961,202.975975 C437.978642,207.273654 435.40187,211.422575 433.156398,215.425997 C429.695079,221.581516 427.094488,227.018221 425.34813,231.742628 C423.385236,234.8079 421.259941,237.838426 418.932185,240.825519 C413.11063,248.16784 408.203937,251.836829 404.211024,251.836829 C402.465748,251.836829 401.590945,250.836788 401.590945,248.834534 C401.590945,244.663896 402.880413,239.700609 405.45935,233.944672 C406.788878,231.025986 407.953839,228.438475 408.952067,226.185396 C409.950295,223.93449 410.781791,222.100538 411.447638,220.68137 C422.50935,214.343434 431.659055,205.708986 438.894587,194.780199 C444.551575,186.189184 447.460728,179.433206 447.628543,174.510094 C447.628543,173.426445 447.253937,172.404687 446.505807,171.443736 C445.756594,170.486042 444.84065,170.006109 443.76122,170.006109 C439.185827,170.006109 431.824705,176.471087 421.678937,189.401042 C417.933957,194.154766 414.60689,198.680467 411.696654,202.975975 C408.785335,207.273654 406.20748,211.422575 403.962008,215.425997 C401.179528,220.374083 398.962205,224.852008 397.287303,228.874975 C396.386516,230.06612 395.41752,231.273553 394.355413,232.504874 C391.939961,235.300863 388.990748,238.198919 385.496949,241.201213 C377.012008,248.708579 370.026575,252.462262 364.537402,252.462262 C362.290846,252.462262 361.16811,250.920396 361.16811,247.833407 C361.16811,245.249154 361.917323,242.328296 363.414665,239.07409 C367.238681,239.07409 372.064173,237.739616 377.886811,235.069583 C385.453642,231.566725 389.239764,227.186523 389.239764,221.932236 C389.239764,220.014676 388.531693,218.387031 387.117717,217.051471 C385.702657,215.718083 384.039665,215.050303 382.12874,215.050303 C376.306102,215.050303 370.357874,217.552034 364.287303,222.558754 C358.36939,227.446034 354.938386,233.067329 353.974803,239.415038 C344.887894,250.223299 331.63376,259.47015 324.163287,259.47015 C321.000787,259.47015 318.380709,258.174766 316.301969,255.590512 C316.717717,255.673034 317.113976,255.736012 317.4875,255.777273 C317.862106,255.81962 318.257283,255.840251 318.673031,255.840251 C326.740059,255.840251 334.473622,251.836829 341.879134,243.8289 C349.280315,235.65484 352.983071,227.520956 352.983071,219.429419 C352.983071,211.757008 349.696063,207.917546 343.126378,207.917546 C333.644291,207.917546 325.491732,212.715788 318.673031,222.30793 C316.801083,224.909557 315.234449,227.492725 313.964469,230.059605 C314.423524,230.717613 314.815453,231.447284 315.12185,232.255135 C316.528248,229.162717 318.413189,226.013837 320.792913,222.808493 C327.032382,214.383609 333.600984,210.17171 340.505217,210.17171 C345.995472,210.17171 348.741142,212.966613 348.741142,218.553161 C348.741142,224.644616 345.5375,231.860982 339.134547,240.200087 C332.312598,249.041926 325.451673,253.464475 318.547441,253.464475 C316.801083,253.464475 315.096949,252.919393 313.432874,251.836829 C312.515846,249.335098 312.061122,247.166713 312.061122,245.33059 C312.061122,245.058049 312.073031,244.782251 312.08061,244.508624 C311.426673,245.05262 310.708858,245.526038 309.942323,245.932135 C309.942323,245.982083 309.939075,246.032031 309.939075,246.081978 L309.939075,247.206889 C309.939075,247.541322 309.981299,247.874669 310.064665,248.208016 C309.543898,247.685736 309.103248,247.116766 308.730807,246.50762 C307.35689,247.085277 305.877953,247.474001 304.38061,247.708538 C306.288287,250.441549 308.840157,252.617534 312.061122,254.214777 C315.46939,258.884893 319.504528,261.221579 324.163287,261.221579 C332.03435,261.221579 344.76122,252.651195 353.712795,242.163251 C353.69872,242.508542 353.68248,242.853833 353.68248,243.203467 C353.68248,246.374064 354.722933,249.021296 356.800591,251.149504 C358.880413,253.275542 361.45935,254.339646 364.537402,254.339646 C370.525689,254.339646 377.92687,250.293878 386.744193,242.20234 C390.25748,238.938363 393.240256,235.864404 395.717421,232.975034 C394.231988,237.253169 393.481693,240.917814 393.481693,243.953769 C393.481693,246.874628 394.024114,249.252575 395.103543,251.085441 C396.436319,253.419956 398.347244,254.504691 400.842815,254.339646 C406.912303,254.004128 412.902756,250.419833 418.80876,243.579161 C420.307185,241.850534 421.932283,239.653919 423.66998,237.041434 C423.008465,239.621344 422.675,241.926542 422.675,243.953769 C422.675,246.874628 423.217421,249.252575 424.297933,251.085441 C425.628543,253.419956 427.541634,254.504691 430.036122,254.339646 C436.10561,254.004128 442.096063,250.419833 448.002067,243.579161 C448.820571,242.635583 449.674803,241.557363 450.564764,240.34993 C450.524705,240.922157 450.496555,241.496557 450.496555,242.078557 C450.496555,250.252616 453.283366,254.339646 458.856988,254.339646 C463.180118,254.339646 467.129724,251.921523 470.709055,247.082019 C472.953445,251.921523 476.11378,254.339646 480.190059,254.339646 C486.145866,254.339646 496.800492,245.000501 512.127953,226.3689 C513.368701,226.214713 514.69498,225.631628 516.120866,224.559922 C517.699409,223.226534 518.781004,222.558754 519.363484,222.558754 C519.694783,222.558754 519.862598,222.85084 519.862598,223.433926 C519.862598,224.352531 518.11624,227.731605 514.623524,233.568978 C511.129724,239.492131 509.427756,243.371769 509.506791,245.204635 C509.592323,251.293919 511.794488,254.339646 516.120866,254.339646 C522.525984,254.339646 529.095669,250.836788 535.833169,243.8289 C539.575984,239.992695 544.191437,233.818717 549.681693,225.31131 L548.683465,224.435053 Z" id="Fill-40" fill="#7E694F" mask="url(#mask-2)"></path>
                    <path d="M249.867923,235.573729 C249.874419,236.16333 249.884163,236.702983 249.896073,237.165543 C250.331309,237.184002 250.728652,237.256752 251.104341,237.358819 C251.311132,234.625808 251.713888,231.966632 252.313691,229.380207 C251.942333,229.345461 251.45188,229.253166 250.925699,229.045774 C250.450404,231.170726 250.09312,233.344539 249.867923,235.573729" id="Fill-41" fill="#7E694F" mask="url(#mask-2)"></path>
                    <path d="M380.056171,268.603858 C373.567687,265.767694 366.372215,264.350698 358.470837,264.350698 C351.153022,264.350698 343.127136,266.017433 334.392096,269.35416 C329.151939,271.438937 324.640423,273.232713 320.855384,274.735489 C317.069262,276.236093 313.889439,277.52822 311.312667,278.612955 C302.827726,281.948597 295.591112,283.617504 289.603907,283.617504 C277.957549,283.617504 268.517687,279.489213 261.282156,271.230459 C255.489833,264.580892 252.137864,256.57622 251.205679,247.225131 C250.784518,247.351086 250.333041,247.434694 249.837175,247.44881 C250.7856,257.250515 254.21877,265.558131 260.160502,272.357541 C267.561683,280.78134 277.376152,284.994325 289.603907,284.994325 C296.340325,284.994325 303.827037,283.325418 312.060797,279.989776 C317.050856,277.903914 321.418376,276.111224 325.161191,274.609534 C328.902923,273.107843 332.023199,271.813545 334.517687,270.729896 C343.000463,267.393168 350.986289,265.725347 358.470837,265.725347 C365.373986,265.725347 372.152628,267.142343 378.808927,269.979593 C387.292785,273.648582 391.533632,278.404478 391.533632,284.244022 C391.533632,285.910757 390.91001,287.913011 389.662766,290.249698 C389.742884,290.415828 389.952923,290.665567 390.286388,291 C392.11503,288.413575 393.029892,286.161582 393.029892,284.244022 C393.029892,277.488045 388.704596,272.272847 380.056171,268.603858" id="Fill-42" fill="#7E694F" mask="url(#mask-2)"></path>
                    <path d="M370.948583,176.511588 C378.434213,176.511588 382.175945,178.47258 382.175945,182.392394 C382.175945,189.068021 375.938642,192.403662 363.46187,192.403662 C359.302224,192.403662 352.191201,191.652274 342.128799,190.15167 C354.271024,181.059006 363.877618,176.511588 370.948583,176.511588 M317.299764,215.175498 C319.212854,212.256812 321.250453,209.58895 323.414724,207.166483 C329.484213,200.578808 334.848878,195.324521 339.507638,191.402535 C345.32811,192.237532 350.238051,192.841248 354.230965,193.215856 C358.221713,193.59155 361.298681,193.778312 363.46187,193.778312 C368.119547,193.778312 372.320335,193.028009 376.06315,191.527405 C381.054291,189.525151 383.549862,186.480509 383.549862,182.392394 C383.549862,177.556147 379.347992,175.135853 370.948583,175.135853 C359.136575,175.135853 345.621516,179.390099 330.400157,187.897506 C330.316791,187.983285 327.614429,187.6912 322.290906,187.022334 C316.05252,186.272032 310.564429,185.896338 305.823386,185.896338 C290.517579,185.896338 277.292677,191.360188 266.148681,202.28789 C262.236969,206.121924 259.032244,210.248043 256.504193,214.65539 C256.929685,215.015882 257.28372,215.450211 257.555472,215.948603 C260.077028,211.506509 263.308819,207.326099 267.270335,203.4128 C278.250846,192.653401 291.101142,187.273159 305.823386,187.273159 C307.486378,187.273159 309.397303,187.316591 311.561575,187.396942 C313.723681,187.481636 316.094744,187.607591 318.673681,187.773722 C325.410098,188.191763 328.77939,188.733588 328.77939,189.401368 C326.366102,190.81945 323.849961,192.634942 321.230965,194.842416 C318.610886,197.054233 315.929094,199.703636 313.183425,202.788453 C310.130276,206.20336 307.628209,209.634554 305.652323,213.079864 C307.414921,213.18736 309.128799,213.440356 310.770138,213.84211 C313.292776,214.478401 314.781457,216.346013 314.781457,218.844487 L314.781457,219.330935 C315.596713,217.888965 316.433622,216.498028 317.299764,215.175498" id="Fill-43" fill="#7E694F" mask="url(#mask-2)"></path>
                    <path d="M39.7788583,217.766918 L32.1156693,217.766918 C31.8363386,217.766918 31.5169488,217.830982 31.5169488,218.32503 L31.5169488,219.10465 C31.5169488,219.339187 31.6425394,219.619329 32.2315157,219.619329 L32.2325984,219.619329 L33.0597638,219.662762 C34.5105512,219.709452 34.8072047,220.237161 34.8072047,221.015694 C34.8072047,222.641168 32.3192126,230.522056 30.4461811,236.310568 L30.2372244,236.982691 C29.165374,234.017314 28.0458858,231.026963 26.9599606,228.127821 C25.7906693,225.002829 24.5813189,221.772512 23.4358465,218.584541 L23.4087795,218.511791 C23.252874,218.079635 23.1391929,217.766918 22.635748,217.766918 L21.5086811,217.766918 C21.0052362,217.766918 20.8569094,218.021 20.6663583,218.450985 C19.9669488,220.300138 19.2826969,222.179694 18.5951969,224.070109 C17.0361417,228.349329 15.4272835,232.766448 13.5899803,236.959888 C13.3918504,236.312739 13.1200984,235.444082 12.806122,234.442956 C11.4441142,230.095329 9.16399606,222.818157 9.16399606,221.232859 C9.16399606,220.221959 9.61438976,219.664933 11.9854528,219.619329 C12.4834843,219.619329 12.9306299,219.567209 12.9306299,218.932004 L12.9306299,218.366291 C12.9306299,217.837497 12.6274803,217.766918 12.3319094,217.766918 L0.598937008,217.766918 C0.196181102,217.766918 0.000216535433,217.977568 0.000216535433,218.41081 L0.000216535433,218.932004 C0.000216535433,219.101392 0.000216535433,219.619329 0.631417323,219.619329 L0.6325,219.619329 C2.58998031,219.698594 2.73938976,220.061258 8.5836811,239.021862 L9.66744094,242.544265 C9.96625984,243.444411 10.056122,243.715866 10.5563189,243.715866 L13.3701969,243.715866 C13.8162598,243.715866 13.8909646,243.484586 14.2991339,242.206575 L20.3512992,226.092993 C21.7133071,229.436235 23.5224606,234.172586 25.7322047,240.185862 L26.512815,242.295612 C26.9361417,243.526933 27.0011024,243.715866 27.3962795,243.715866 L29.9947047,243.715866 C30.5631102,243.715866 30.8197047,243.624657 31.0611417,242.704967 C32.5032677,237.506056 35.4384055,228.313497 36.9454921,223.699844 C38.0130118,220.392433 38.8109449,219.68665 39.7344685,219.619329 C40.2162598,219.619329 40.4208858,219.427138 40.4208858,218.975437 L40.4208858,218.41081 C40.4208858,217.878758 40.0722638,217.766918 39.7788583,217.766918" id="Fill-44" fill="#7E694F" mask="url(#mask-2)"></path>
                    <path d="M61.0300787,241.820457 C56.4600984,241.820457 53.1438583,236.668237 53.1438583,229.56914 C53.1438583,223.527632 56.1504528,219.142002 60.2938583,219.142002 C64.8638386,219.142002 68.1800787,224.294222 68.1800787,231.392233 C68.1800787,232.436793 67.9797835,241.604379 61.0300787,241.820457 M61.2466142,217.245073 C53.4091142,217.245073 47.2703346,223.345215 47.2703346,231.131636 C47.2703346,238.567338 52.4834252,243.760819 59.9474016,243.760819 C67.8574409,243.760819 74.0536024,237.736685 74.0536024,230.046901 C74.0536024,222.389692 68.9065551,217.245073 61.2466142,217.245073" id="Fill-45" fill="#7E694F" mask="url(#mask-2)"></path>
                    <path d="M97.7359744,241.820457 C93.1659941,241.820457 89.8486713,236.668237 89.8486713,229.56914 C89.8486713,223.527632 92.8563484,219.142002 96.9997539,219.142002 C101.569734,219.142002 104.885974,224.294222 104.885974,231.392233 C104.885974,232.436793 104.685679,241.604379 97.7359744,241.820457 M97.9525098,217.245073 C90.1139272,217.245073 83.9751476,223.345215 83.9751476,231.131636 C83.9751476,238.567338 89.1893209,243.760819 96.6543799,243.760819 C104.564419,243.760819 110.760581,237.736685 110.760581,230.046901 C110.760581,222.389692 105.613533,217.245073 97.9525098,217.245073" id="Fill-46" fill="#7E694F" mask="url(#mask-2)"></path>
                    <path d="M138.592746,238.767563 C137.012037,240.351776 134.50564,241.298612 131.888809,241.298612 C131.337726,241.298612 130.925226,241.260608 130.142451,241.156369 C130.101309,239.963052 130.063415,238.829455 130.063415,237.644824 L130.063415,222.579059 C130.063415,221.742977 130.104557,221.037194 130.143533,220.354212 C130.156526,220.129447 130.1706,219.909026 130.180344,219.690776 L130.467254,219.670145 C131.07247,219.625626 131.758888,219.575679 132.147569,219.575679 C138.270108,219.575679 141.505148,223.151287 141.505148,229.915951 C141.505148,233.796675 140.498258,236.857604 138.592746,238.767563 M140.568632,219.137007 C137.699537,217.766701 134.897569,217.766701 131.932116,217.766701 L120.805443,217.766701 C120.407018,217.766701 120.075719,217.815563 120.075719,218.410593 L120.075719,219.017567 C120.075719,219.619112 120.520699,219.619112 121.194124,219.619112 C124.339301,219.619112 124.57749,219.747238 124.57749,225.140511 L124.57749,235.516615 C124.57749,241.386563 124.283002,241.386563 120.674439,241.386563 C120.294419,241.386563 120.075719,241.604813 120.075719,241.985936 L120.075719,242.636343 C120.075719,243.083701 120.273848,243.282406 120.718829,243.282406 L133.273553,243.238974 C141.762825,243.238974 147.467451,238.059608 147.467451,230.351365 C147.467451,225.406537 144.888514,221.214182 140.568632,219.137007" id="Fill-47" fill="#7E694F" mask="url(#mask-2)"></path>
                    <path d="M186.256959,217.766918 L176.473888,217.766918 C176.091703,217.766918 175.700856,217.848355 175.700856,218.454243 L175.700856,218.888571 C175.700856,219.496631 176.063553,219.619329 176.647116,219.619329 C180.0294,219.619329 180.161486,219.749627 180.161486,223.100471 L180.161486,234.790418 C175.565522,229.429721 171.205581,224.015818 167.194262,218.689866 L167.102234,218.570426 C166.607451,217.921105 166.490522,217.766918 165.996821,217.766918 L157.468573,217.766918 C157.175167,217.766918 156.826545,217.878758 156.826545,218.41081 L156.826545,218.844053 C156.826545,219.619329 157.258533,219.619329 158.204793,219.619329 C161.371624,219.619329 161.371624,219.619329 161.371624,223.707444 L161.371624,235.820862 C161.371624,238.921967 161.251447,240.614762 161.013258,240.851471 C160.797805,241.067549 160.074577,241.430213 157.640719,241.430213 C157.100463,241.430213 156.826545,241.646291 156.826545,242.074105 L156.826545,242.595299 C156.826545,243.031799 157.060404,243.282624 157.469656,243.282624 L167.554793,243.238105 C168.197904,243.238105 168.197904,242.874355 168.197904,242.074105 C168.197904,241.4389 167.765915,241.430213 166.989636,241.430213 L166.957156,241.430213 C164.897904,241.368321 164.446427,241.071892 164.367392,240.993713 C164.158435,240.757004 163.826053,238.942597 163.826053,235.082504 L163.826053,223.409929 C164.603415,224.343735 165.382943,225.277541 166.16247,226.211347 C170.812569,231.780523 175.620738,237.538631 179.993671,243.484586 L180.070541,243.586653 L182.059419,243.586653 C182.700364,243.586653 182.700364,243.043743 182.700364,242.811377 L182.700364,222.709575 C182.700364,219.619329 182.700364,219.619329 185.782746,219.619329 C186.583927,219.619329 186.9856,219.619329 186.9856,218.932004 L186.9856,218.454243 C186.9856,217.959109 186.780974,217.766918 186.256959,217.766918" id="Fill-48" fill="#7E694F" mask="url(#mask-2)"></path>
                    <path d="M210.10812,241.820457 C205.53814,241.820457 202.2219,236.668237 202.2219,229.56914 C202.2219,223.527632 205.228494,219.142002 209.3719,219.142002 C213.94188,219.142002 217.25812,224.294222 217.25812,231.392233 C217.25812,232.436793 217.057825,241.604379 210.10812,241.820457 M210.324656,217.245073 C202.486073,217.245073 196.347293,223.345215 196.347293,231.131636 C196.347293,238.567338 201.561467,243.760819 209.026526,243.760819 C216.936565,243.760819 223.132726,237.736685 223.132726,230.046901 C223.132726,222.389692 217.985679,217.245073 210.324656,217.245073" id="Fill-49" fill="#7E694F" mask="url(#mask-2)"></path>
                    <path d="M250.357943,242.680862 L250.357943,241.985936 C250.357943,241.432168 250.013652,241.386563 249.629301,241.386563 C247.488848,241.386563 246.47438,241.244321 246.127923,240.894686 C245.720837,240.486418 245.638553,237.522126 245.638553,232.869384 L245.638553,222.534541 C245.638553,222.118671 245.64938,221.658283 245.661289,221.20441 C245.668868,220.852604 245.67753,220.506227 245.680778,220.184824 C249.635797,220.207626 250.90253,220.796141 252.070738,224.475988 C252.193081,224.882085 252.28186,225.176343 252.747411,225.176343 L253.395935,225.176343 C253.858238,225.176343 253.950266,224.946149 253.950266,224.574798 L253.950266,218.324813 C253.950266,218.034899 253.888553,217.766701 253.439242,217.766701 L232.399577,217.766701 C232.001152,217.766701 231.799774,217.968664 231.799774,218.366074 L231.799774,224.271854 C231.799774,224.674694 231.799774,225.176343 232.268573,225.176343 L233.09249,225.176343 C233.528809,225.176343 233.628415,224.76916 233.680384,224.558511 C234.506467,221.61485 236.027628,220.184824 238.330482,220.184824 L240.113652,220.184824 C240.1169,220.460623 240.123396,220.772253 240.132057,221.098 C240.142884,221.574675 240.155876,222.078496 240.155876,222.534541 L240.155876,232.998597 C240.155876,238.071552 240.064931,240.276854 239.499774,240.803477 C238.959518,241.305126 238.39436,241.386563 236.856959,241.386563 L236.208435,241.386563 C235.88688,241.386563 235.349872,241.386563 235.349872,242.029369 L235.349872,242.551649 C235.349872,242.891511 235.427825,243.282406 236.036289,243.282406 L249.672608,243.238974 C249.929203,243.238974 250.357943,243.238974 250.357943,242.680862" id="Fill-50" fill="#7E694F" mask="url(#mask-2)"></path>
                    <path d="M263.997185,241.386237 C263.727598,241.386237 263.226319,241.386237 263.226319,241.900916 L263.226319,242.594756 C263.226319,242.999767 263.472087,243.283166 263.825039,243.283166 L283.868642,243.238648 C284.238917,243.238648 284.468445,243.145267 284.468445,242.680536 L284.468445,237.298122 C284.468445,236.870308 284.281142,236.653144 283.913031,236.653144 L283.069626,236.660745 C282.745906,236.743267 282.63439,237.133077 282.544528,237.444707 C281.752008,240.162517 280.489606,241.12564 277.722283,241.12564 L272.977992,241.12564 L272.953091,240.762976 C272.894626,239.046293 272.865394,237.559804 272.865394,236.342599 L272.865394,231.124144 L278.154272,231.124144 C279.062638,231.124144 280.609783,231.889648 280.890197,233.938592 C280.933504,234.327316 281.046102,234.685637 281.573366,234.685637 L282.222972,234.685637 C282.534783,234.685637 282.736161,234.483674 282.736161,234.170957 L282.736161,225.923062 C282.736161,225.626633 282.577008,225.321517 282.310669,225.321517 L281.40122,225.321517 C281.112146,225.321517 280.932421,225.600573 280.934587,226.018614 C280.689902,227.86451 279.541181,229.011137 277.937736,229.011137 L272.865394,229.011137 L272.865394,222.457122 L272.945512,219.83595 L278.025433,219.83595 C280.069528,219.83595 281.415295,220.928286 282.02376,223.082554 C282.112539,223.394185 282.206732,223.614607 282.613819,223.614607 L283.392264,223.614607 C283.728976,223.614607 283.905453,223.399614 283.905453,223.185707 L283.905453,218.237622 C283.905453,218.061719 283.826417,217.767461 283.306732,217.767461 L263.695118,217.767461 C263.417953,217.767461 263.268543,218.032401 263.268543,218.281054 L263.268543,219.06176 C263.268543,219.619872 263.593346,219.619872 264.56126,219.619872 C267.276614,219.661133 267.382717,219.662219 267.382717,226.312872 L267.382717,236.603196 C267.382717,241.207077 267.256043,241.386237 263.997185,241.386237" id="Fill-51" fill="#7E694F" mask="url(#mask-2)"></path>
                    <path d="M294.092254,242.861651 C295.135955,243.407819 297.799341,243.76071 300.877392,243.76071 C307.595404,243.76071 311.606722,240.938662 311.606722,236.210998 C311.606722,231.602774 307.807608,229.851345 304.45564,228.305136 C301.6331,227.003237 298.966467,225.774087 298.966467,223.056278 C298.966467,220.910696 300.737726,219.228759 302.998356,219.228759 C306.656722,219.228759 307.323652,221.235356 308.094518,223.559013 L308.128081,223.66108 C308.390089,224.4483 308.488612,224.742557 309.059183,224.742557 L309.839793,224.742557 C310.479656,224.742557 310.567352,224.370121 310.567352,223.968367 L310.567352,218.844378 C310.567352,218.253692 310.358396,218.096248 309.768337,217.94749 C307.868238,217.481673 305.838219,217.244964 303.734577,217.244964 C297.757116,217.244964 293.741467,220.296121 293.741467,224.835938 C293.741467,229.504968 297.626112,231.268341 301.053868,232.823237 C303.935955,234.131651 306.426112,235.26199 306.426112,237.775666 C306.426112,240.018972 304.331132,241.77583 301.655837,241.77583 C297.356526,241.77583 296.544518,238.923378 295.755246,236.149106 C295.68812,235.88308 295.574439,235.436807 295.0331,235.436807 L294.080344,235.436807 C293.727392,235.436807 293.524931,235.639856 293.524931,235.994919 L293.524931,241.944132 C293.524931,242.506587 293.831329,242.731352 294.092254,242.861651" id="Fill-52" fill="#7E694F" mask="url(#mask-2)"></path>
                </g>
            </g>
        </g>
    </g>
</svg>