<?xml version="1.0" encoding="UTF-8"?>
<svg width="751px" height="310px" viewBox="0 0 751 310" version="1.1" xmlns="http://www.w3.org/2000/svg" xmlns:xlink="http://www.w3.org/1999/xlink">
    <title>tagline</title>
    <defs>
        <polygon id="path-1" points="0 2.35019084 99.5833969 2.35019084 99.5833969 101.733779 0 101.733779"></polygon>
        <polygon id="path-3" points="1.13015267 0.97644003 62.7480916 0.97644003 62.7480916 84.9307481 1.13015267 84.9307481"></polygon>
        <polygon id="path-5" points="0 305.288931 749.770992 305.288931 749.770992 -0.00114503817 0 -0.00114503817"></polygon>
    </defs>
    <g id="WILDERNESS-001" stroke="none" stroke-width="1" fill="none" fill-rule="evenodd">
        <g id="Identity_Design-Copy" transform="translate(-346.000000, -8394.000000)">
            <g id="tagline" transform="translate(346.000000, 8394.000000)">
                <g id="Group-3" transform="translate(0.000000, 24.754580)">
                    <mask id="mask-2" fill="white">
                        <use xlink:href="#path-1"></use>
                    </mask>
                    <g id="Clip-2"></g>
                    <path d="M98.9479008,88.0162214 C91.7227099,89.5448473 84.5032443,91.125 77.295229,92.773855 C73.396374,83.625 69.4574427,74.4875954 65.4784351,65.3673664 C63.165458,60.0715649 61.2704198,55.4570611 59.804771,51.5295802 C59.0719466,49.5830153 58.4593511,47.9627863 57.9555344,46.6688931 C57.4574427,45.375 57.0853053,44.384542 56.8448473,43.6975191 C56.9994275,45.1860687 57.3543893,47.9398855 57.915458,51.976145 C58.2074427,54.0257634 58.4822519,56.1898855 58.7513359,58.4685115 C59.0146947,60.7471374 59.2551527,63.1688931 59.4784351,65.7166031 C60.3715649,75.9188931 61.2933206,86.115458 62.2551527,96.3062977 C54.9898855,98.0524809 47.7360687,99.8616412 40.4937023,101.733779 C27.3715649,76.273855 13.8715649,50.9570611 -0.000572519084,25.7891221 C7.78568702,23.6593511 15.5833969,21.5982824 23.3925573,19.6001908 C26.5872137,26.7223282 29.7589695,33.8501908 32.9078244,40.9837786 C36.6120229,49.5314885 39.3601145,56.2872137 41.1864504,61.2337786 C42.0624046,63.644084 42.9383588,66.0601145 43.814313,68.4646947 C43.5166031,66.2833969 43.2303435,64.1020992 42.9383588,61.9150763 C41.8562977,54.2776718 41.1005725,46.9608779 40.6769084,39.9417939 C40.2246183,31.8349237 39.795229,23.7280534 39.3944656,15.615458 C46.2188931,13.9551527 53.0433206,12.346374 59.8849237,10.7891221 C62.7074427,17.0353053 65.5127863,23.2814885 68.295229,29.5333969 C72.2284351,38.2585878 76.2589695,48.7242366 80.3753817,60.9303435 C79.5395038,55.2223282 78.8868321,50.144084 78.4173664,45.6898855 C77.9421756,41.235687 77.6158397,37.1765267 77.444084,33.5124046 C77.0146947,24.735687 76.6196565,15.9532443 76.2475191,7.16507634 C84.0166031,5.49332061 91.7914122,3.89026718 99.5833969,2.35019084 C99.0108779,30.9360687 98.804771,59.4990458 98.9479008,88.0162214" id="Fill-1" fill="#7E694F" mask="url(#mask-2)"></path>
                </g>
                <path d="M158.145229,101.647328 C150.599427,102.889695 143.065076,104.195038 135.53645,105.569084 C130.526908,78.0881679 125.511641,50.6072519 120.502099,23.1263359 C128.500191,21.6664122 136.504008,20.280916 144.519275,18.9583969 C149.059351,46.5194656 153.605153,74.0862595 158.145229,101.647328" id="Fill-4" fill="#7E694F"></path>
                <path d="M223.562977,92.5145038 C210.28626,94.0374046 197.026718,95.7549618 183.790076,97.6729008 C179.782443,70.0316794 175.774809,42.3847328 171.767176,14.7377863 C179.799618,13.5755725 187.843511,12.4820611 195.887405,11.4515267 C198.572519,32.5030534 201.257634,53.5545802 203.948473,74.6061069 C209.719466,73.8732824 215.490458,73.169084 221.267176,72.510687 C222.034351,79.1748092 222.795802,85.8446565 223.562977,92.5145038" id="Fill-6" fill="#7E694F"></path>
                <path d="M265.450763,68.0650763 C273.689313,66.9944656 277.341985,59.746374 276.374427,46.2120229 C275.887786,39.5307252 274.433588,34.3379771 271.977481,30.6395038 C269.515649,26.9066794 266.418321,25.1833969 262.719847,25.4868321 C262.467939,25.5040076 262.227481,25.5211832 261.975573,25.544084 C263.132061,39.7196565 264.294275,53.8895038 265.450763,68.0650763 M244.307634,90.3017176 C241.559542,62.5001908 238.81145,34.7043893 236.057634,6.9028626 C243.025191,6.21583969 249.992748,5.57461832 256.966031,4.99064885 C268.931679,3.98874046 278.487023,6.34179389 285.500382,11.9066794 C294.717939,19.1891221 299.601527,29.9410305 300.374427,44.025 C301.130153,57.9028626 298.147328,68.7979008 291.60916,76.784542 C286.015649,83.5917939 277.387786,87.3875954 265.622519,88.3608779 C258.511832,88.9505725 251.40687,89.5975191 244.307634,90.3017176" id="Fill-8" fill="#7E694F"></path>
                <path d="M326.448664,84.7122137 C325.406679,56.8019084 324.364695,28.8858779 323.328435,0.969847328 C338.368511,0.408778626 353.408588,0.0824427481 368.460115,0.00229007634 C368.494466,6.56908397 368.534542,13.1358779 368.568893,19.7026718 C361.71584,19.7427481 354.857061,19.828626 348.009733,19.9660305 C348.089885,24.0366412 348.170038,28.1072519 348.255916,32.1778626 C354.347519,32.0519084 360.439122,31.9717557 366.530725,31.9259542 C366.576527,38.2408397 366.622328,44.5557252 366.66813,50.8706107 C360.656679,50.910687 354.645229,50.9965649 348.633779,51.1167939 C348.725382,55.3820611 348.81126,59.6530534 348.897137,63.9240458 C355.538359,63.7923664 362.173855,63.7064885 368.815076,63.6664122 C368.855153,70.3820611 368.895229,77.0919847 368.92958,83.8019084 C354.765458,83.8820611 340.607061,84.1854962 326.448664,84.7122137" id="Fill-10" fill="#7E694F"></path>
                <path d="M416.891221,39.375 C417.417939,39.3864504 417.950382,39.403626 418.477099,39.4208015 C421.196565,39.5009542 423.492366,38.5849237 425.375954,36.6612595 C427.265267,34.7375954 428.272901,32.235687 428.387405,29.1669847 C428.622137,22.9150763 425.267176,19.6459924 418.333969,19.4341603 C418.04771,19.4284351 417.76145,19.4169847 417.475191,19.4112595 C417.274809,26.0639313 417.085878,32.7166031 416.891221,39.375 M452.891221,85.9608779 C444.658397,85.4914122 436.425573,85.096374 428.187023,84.7757634 C424.803435,74.6879771 421.339695,64.6116412 417.795802,54.5524809 C417.698473,54.0429389 417.520992,53.3673664 417.263359,52.5257634 C417.01145,51.6841603 416.69084,50.6822519 416.312977,49.514313 C416.312977,51.3578244 416.318702,53.2070611 416.318702,55.0505725 C416.038168,64.8177481 415.751908,74.5791985 415.471374,84.346374 C407.891221,84.1288168 400.305344,83.9742366 392.719466,83.8769084 L393.73855,0.0830152672 C402.022901,0.180343511 410.318702,0.357824427 418.603053,0.604007634 C429.549618,0.924618321 437.662214,3.29484733 442.889313,7.55438931 C449.524809,13.0162214 452.53626,20.5104962 452.020992,29.9742366 C451.465649,40.0906489 446.570611,46.8177481 437.450382,50.2872137 C442.746183,62.1498092 447.89313,74.0410305 452.891221,85.9608779" id="Fill-12" fill="#7E694F"></path>
                <path d="M474.456298,87.3624046 C476.494466,59.4979008 478.532634,31.6391221 480.570802,3.78034351 C488.282634,4.3471374 495.994466,4.97118321 503.694847,5.65820611 C506.866603,15.7917939 509.952481,25.9311069 512.958206,36.076145 C513.427672,37.8681298 513.960115,39.9177481 514.549809,42.2364504 C515.139504,44.5494275 515.775,47.2116412 516.456298,50.2288168 C517.011641,52.7593511 517.566985,55.2841603 518.110878,57.8204198 C518.002099,50.4979008 517.979198,44.234542 518.053626,39.0417939 C518.122328,33.8490458 518.33416,29.503626 518.689122,26.0112595 C519.318893,19.7650763 519.954389,13.5246183 520.589885,7.27270992 C528.284542,8.05706107 535.979198,8.89866412 543.66813,9.80896947 C540.393321,37.5475191 537.118511,65.2917939 533.843702,93.0360687 C526.607061,92.1830153 519.37042,91.3872137 512.122328,90.6486641 C509.339885,80.0398855 506.46584,69.4368321 503.500191,58.8395038 C502.578435,55.4444656 501.748282,52.2727099 501.009733,49.3127863 C500.271183,46.3585878 499.635687,43.5532443 499.114695,40.8910305 C499.086069,46.8108779 498.98874,51.9578244 498.82271,56.3433206 C498.656679,60.7230916 498.427672,64.5532443 498.129962,67.8337786 C497.494466,74.9330153 496.858969,82.0322519 496.223473,89.1314885 C488.969656,88.484542 481.71584,87.8948473 474.456298,87.3624046" id="Fill-14" fill="#7E694F"></path>
                <path d="M559.565267,96.3217557 C563.372519,68.6519084 567.185496,40.9763359 570.992748,13.3007634 C585.929771,15.3561069 600.849618,17.6519084 615.735115,20.1824427 L612.431679,39.6080153 C605.647328,38.4515267 598.862977,37.3522901 592.067176,36.298855 C591.44313,40.3179389 590.819084,44.3427481 590.195038,48.3675573 C596.235115,49.3007634 602.269466,50.279771 608.298092,51.2931298 C607.250382,57.5221374 606.202672,63.7454198 605.149237,69.9687023 C599.200763,68.9725191 593.25229,68.0049618 587.292366,67.0832061 C586.639695,71.3026718 585.987023,75.5221374 585.328626,79.7416031 C591.912595,80.760687 598.485115,81.8312977 605.057634,82.9477099 C603.935496,89.5660305 602.807634,96.1843511 601.679771,102.802672 C587.670229,100.415267 573.632061,98.2568702 559.565267,96.3217557" id="Fill-16" fill="#7E694F"></path>
                <path d="M623.78645,104.652481 C625.400954,96.0303435 627.009733,87.4024809 628.624237,78.7746183 C632.042176,85.5990458 636.318893,89.5150763 641.540267,90.5513359 C643.515458,90.9406489 645.221565,90.7631679 646.670038,90.0017176 C648.118511,89.2459924 648.994466,88.1009542 649.309351,86.5780534 C649.755916,84.3795802 648.83416,81.9578244 646.526908,79.3185115 C645.462023,78.1276718 644.397137,76.9368321 643.326527,75.7459924 C641.173855,73.4387405 639.376145,71.2173664 637.939122,69.0818702 C636.502099,66.946374 635.402863,64.8166031 634.641412,62.7040076 C633.885687,60.5914122 633.433397,58.4730916 633.290267,56.3490458 C633.147137,54.2192748 633.278817,52.0379771 633.696756,49.7994275 C634.412405,45.9578244 636.107061,42.1104962 638.797901,38.2746183 C640.12042,36.4998092 641.557443,34.9196565 643.12042,33.5456107 C644.689122,32.1658397 646.412405,31.0208015 648.301718,30.0933206 C653.494466,27.4196565 659.32271,26.7326336 665.706298,28.0551527 C671.408588,29.234542 676.853244,31.8566794 681.994466,35.9101145 C680.156679,44.2517176 678.324618,52.5875954 676.492557,60.9291985 C675.198664,57.7230916 673.498282,55.0437023 671.402863,52.9082061 C669.301718,50.7727099 667.063168,49.455916 664.687214,48.9635496 C662.878053,48.585687 661.28645,48.7746183 659.912405,49.5246183 C658.509733,50.234542 657.673855,51.2593511 657.399046,52.6104962 C656.946756,54.8089695 658.097519,57.3108779 660.828435,60.1333969 C661.88187,61.2555344 662.92958,62.3833969 663.983015,63.5112595 C668.196756,67.9139313 670.950573,72.1276718 672.284542,76.123855 C673.652863,80.1257634 673.801718,84.494084 672.754008,89.2288168 C670.967748,97.2841603 666.960115,103.358588 660.816985,107.515076 C654.66813,111.66584 647.809351,112.954008 640.149046,111.419656 C634.864695,110.360496 629.425763,108.104771 623.78645,104.652481" id="Fill-18" fill="#7E694F"></path>
                <g id="Group-22" transform="translate(687.022901, 41.930153)">
                    <mask id="mask-4" fill="white">
                        <use xlink:href="#path-3"></use>
                    </mask>
                    <g id="Clip-21"></g>
                    <path d="M1.13015267,76.4038168 C3.16259542,67.8675573 5.19503817,59.3312977 7.22748092,50.7950382 C10.319084,57.779771 14.4125954,61.9019084 19.5938931,63.1958015 C21.5461832,63.6881679 23.2637405,63.5908397 24.7522901,62.9038168 C26.2408397,62.2167939 27.179771,61.1175573 27.5633588,59.6118321 C28.1187023,57.4362595 27.3114504,54.9744275 25.1301527,52.2206107 C24.1225191,50.9782443 23.1091603,49.7358779 22.0958015,48.4935115 C20.0519084,46.0832061 18.3572519,43.7759542 17.0232824,41.5717557 C15.689313,39.3675573 14.6931298,37.1862595 14.0347328,35.039313 C13.3763359,32.8923664 13.0270992,30.751145 12.9870229,28.621374 C12.9412214,26.4916031 13.1816794,24.3160305 13.7141221,22.1003817 C14.6129771,18.298855 16.5022901,14.5374046 19.3763359,10.8389313 C20.7847328,9.13282443 22.3019084,7.62709924 23.939313,6.32748092 C25.5767176,5.03358779 27.3572519,3.96870229 29.2866412,3.13854962 C34.6225191,0.728244275 40.4851145,0.327480916 46.8171756,1.9648855 C52.4736641,3.42480916 57.7980916,6.31603053 62.7503817,10.621374 L56.0290076,35.3427481 C54.8896947,32.0736641 53.3152672,29.3141221 51.3229008,27.0755725 C49.319084,24.8370229 47.1435115,23.4171756 44.7847328,22.798855 C42.9927481,22.3351145 41.3896947,22.4438931 39.9755725,23.1251908 C38.5385496,23.760687 37.651145,24.751145 37.3076336,26.0793893 C36.7522901,28.2549618 37.7828244,30.8141221 40.3820611,33.7683206 C41.3782443,34.9419847 42.3801527,36.121374 43.3706107,37.2950382 C47.3839695,41.909542 49.9374046,46.2492366 51.0824427,50.3083969 C52.2561069,54.3732824 52.1931298,58.7530534 50.9164122,63.4248092 C48.7351145,71.3885496 44.4240458,77.251145 38.0748092,81.0927481 C31.7141221,84.9400763 24.7866412,85.8847328 17.189313,83.9725191 C11.9450382,82.65 6.60916031,80.1251908 1.13015267,76.4038168" id="Fill-20" fill="#7E694F" mask="url(#mask-4)"></path>
                </g>
                <mask id="mask-6" fill="white">
                    <use xlink:href="#path-5"></use>
                </mask>
                <g id="Clip-24"></g>
                <polygon id="Fill-23" fill="#7E694F" mask="url(#mask-6)" points="130.391221 175.579008 143.667939 175.579008 143.667939 126.411069 130.391221 126.411069"></polygon>
                <path d="M158.701718,175.580153 L158.701718,126.412214 L171.371565,126.412214 L178.029962,143.673664 C178.390649,144.692748 178.797137,145.860687 179.255153,147.177481 C179.713168,148.494275 180.216985,150.01145 180.766603,151.729008 L182.134924,156.057252 C181.648282,151.791985 181.276145,148.145038 181.024237,145.104962 C180.766603,142.070611 180.640649,139.522901 180.640649,137.461832 L180.640649,126.412214 L193.316221,126.412214 L193.316221,175.580153 L180.640649,175.580153 L173.953626,157.494275 C173.255153,155.55916 172.619656,153.75 172.058588,152.066794 C171.497519,150.377863 170.999427,148.769084 170.575763,147.240458 C170.856298,150.698473 171.056679,153.715649 171.182634,156.280534 C171.308588,158.851145 171.371565,161.101145 171.371565,163.03626 L171.371565,175.580153 L158.701718,175.580153 Z" id="Fill-25" fill="#7E694F" mask="url(#mask-6)"></path>
                <path d="M207.29313,174.369847 L207.29313,158.923282 C209.909542,162.490076 212.732061,164.276336 215.766412,164.276336 C216.91145,164.276336 217.844656,163.972901 218.566031,163.371756 C219.287405,162.764885 219.648092,162.003435 219.648092,161.09313 C219.648092,159.776336 218.86374,158.493893 217.295038,157.240076 L215.130916,155.551145 C213.682443,154.469084 212.451527,153.387023 211.432443,152.316412 C210.413359,151.245802 209.588931,150.14084 208.953435,149.007252 C208.312214,147.873664 207.848473,146.7 207.550763,145.48626 C207.253053,144.278244 207.104198,143.001527 207.104198,141.667557 C207.104198,139.371756 207.636641,136.972901 208.695802,134.470992 C209.228244,133.303053 209.84084,132.238168 210.539313,131.270611 C211.243511,130.303053 212.050763,129.45 212.961069,128.705725 C215.468702,126.581679 218.491603,125.522519 222.041221,125.522519 C225.201527,125.522519 228.384733,126.358397 231.59084,128.035878 L231.59084,143.070229 C230.508779,141.392748 229.277863,140.070229 227.898092,139.102672 C226.518321,138.135115 225.16145,137.654198 223.821756,137.654198 C222.802672,137.654198 221.966794,137.951908 221.308397,138.547328 C220.627099,139.119847 220.289313,139.80687 220.289313,140.614122 C220.289313,141.930916 221.188168,143.23626 222.991603,144.535878 L225.092748,146.09313 C227.898092,148.108397 229.901908,150.180916 231.115649,152.304962 C232.346565,154.429008 232.95916,156.908015 232.95916,159.753435 C232.95916,164.591221 231.487786,168.587405 228.533588,171.730534 C225.585115,174.867939 221.846565,176.442366 217.323664,176.442366 C214.203435,176.442366 210.859924,175.749618 207.29313,174.369847" id="Fill-26" fill="#7E694F" mask="url(#mask-6)"></path>
                <path d="M259.583015,148.416412 L260.18416,148.450763 C261.798664,148.450763 263.086832,147.952672 264.042939,146.967939 C264.993321,145.983206 265.474237,144.626336 265.474237,142.908779 C265.474237,141.208397 265.004771,139.828626 264.071565,138.769466 C263.138359,137.687405 261.953244,137.143511 260.504771,137.143511 L259.583015,137.143511 L259.583015,148.416412 Z M259.583015,175.582443 L246.306298,175.582443 L246.306298,126.414504 L259.170802,126.414504 C265.57729,126.414504 270.334924,127.719847 273.432252,130.330534 C277.084924,133.404962 278.91126,137.687405 278.91126,143.166412 C278.91126,149.132061 276.97042,153.574809 273.083015,156.506107 C270.432252,158.481298 266.619275,159.466031 261.649809,159.466031 L259.583015,159.466031 L259.583015,175.582443 Z" id="Fill-27" fill="#7E694F" mask="url(#mask-6)"></path>
                <polygon id="Fill-28" fill="#7E694F" mask="url(#mask-6)" points="291.715649 175.579008 304.992366 175.579008 304.992366 126.411069 291.715649 126.411069"></polygon>
                <path d="M333.3,149.182443 L334.19313,149.182443 C335.721756,149.182443 336.998473,148.598473 338.011832,147.430534 C339.030916,146.262595 339.540458,144.774046 339.540458,142.970611 C339.540458,139.300763 337.622519,137.462977 333.775191,137.462977 L333.3,137.462977 L333.3,149.182443 Z M354.987023,175.581298 L340.622519,175.581298 L334.067176,158.067939 C334.004198,157.770229 333.889695,157.375191 333.729389,156.88855 C333.569084,156.401908 333.374427,155.817939 333.139695,155.136641 L333.237023,158.382824 L333.237023,175.581298 L320.023282,175.581298 L320.023282,126.413359 L333.620611,126.413359 C339.60916,126.413359 344.08626,127.592748 347.057634,129.945802 C350.83626,132.962977 352.725573,137.251145 352.725573,142.816031 C352.725573,148.758779 350.189313,152.86374 345.116794,155.136641 L354.987023,175.581298 Z" id="Fill-29" fill="#7E694F" mask="url(#mask-6)"></path>
                <polygon id="Fill-30" fill="#7E694F" mask="url(#mask-6)" points="367.533779 175.580153 367.533779 126.412214 392.215076 126.412214 392.215076 137.971374 380.810496 137.971374 380.810496 145.139313 391.035687 145.139313 391.035687 156.251908 380.810496 156.251908 380.810496 163.769084 392.215076 163.769084 392.215076 175.580153"></polygon>
                <path d="M419.312405,163.702099 C424.070038,163.467366 426.445992,159.373855 426.445992,151.410115 C426.445992,147.482634 425.839122,144.37958 424.631107,142.112405 C423.417366,139.822328 421.785687,138.671565 419.724618,138.671565 L419.312405,138.671565 L419.312405,163.702099 Z M406.035687,175.58187 L406.035687,126.413931 L417.497519,126.413931 C424.058588,126.413931 429.165458,128.171565 432.812405,131.698282 C437.610115,136.307061 440.008969,142.747901 440.008969,151.026527 C440.008969,159.179198 437.982252,165.476908 433.928817,169.908206 C430.470802,173.692557 425.306679,175.58187 418.453626,175.58187 L406.035687,175.58187 Z" id="Fill-31" fill="#7E694F" mask="url(#mask-6)"></path>
                <path d="M500.737214,158.798473 L499.878435,153.067557 C499.855534,153.044656 499.815458,152.758397 499.752481,152.208779 C499.706679,151.739313 499.483397,149.890076 499.082634,146.666794 C499.042557,146.306107 498.985305,145.808015 498.922328,145.183969 C498.859351,144.559924 498.773473,143.769847 498.67042,142.81374 L498.252481,138.164885 C498.212405,138.61145 498.155153,139.109542 498.080725,139.65916 C498.006298,140.208779 497.926145,140.815649 497.840267,141.474046 C497.691412,142.79084 497.588359,143.701145 497.519656,144.216412 C497.456679,144.725954 497.416603,145.029389 497.393702,145.138168 L496.471947,151.092366 L495.132252,158.798473 L500.737214,158.798473 Z M517.008206,175.579008 L503.284924,175.579008 L502.294466,169.33855 L493.351718,169.33855 L492.269656,175.579008 L478.546374,175.579008 L490.357443,126.411069 L506.594084,126.411069 L517.008206,175.579008 Z" id="Fill-32" fill="#7E694F" mask="url(#mask-6)"></path>
                <polygon id="Fill-33" fill="#7E694F" mask="url(#mask-6)" points="552.261069 175.580153 529.016794 175.580153 529.016794 126.412214 542.293511 126.412214 542.293511 163.769084 552.261069 163.769084"></polygon>
                <polygon id="Fill-34" fill="#7E694F" mask="url(#mask-6)" points="564.362405 175.580153 564.362405 126.412214 589.043702 126.412214 589.043702 137.971374 577.639122 137.971374 577.639122 145.139313 587.864313 145.139313 587.864313 156.251908 577.639122 156.251908 577.639122 163.769084 589.043702 163.769084 589.043702 175.580153"></polygon>
                <path d="M601.810878,174.369847 L601.810878,158.923282 C604.421565,162.490076 607.244084,164.276336 610.278435,164.276336 C611.429198,164.276336 612.362405,163.972901 613.083779,163.371756 C613.805153,162.764885 614.16584,162.003435 614.16584,161.09313 C614.16584,159.776336 613.381489,158.493893 611.812786,157.240076 L609.642939,155.551145 C608.200191,154.469084 606.969275,153.387023 605.950191,152.316412 C604.931107,151.245802 604.100954,150.14084 603.465458,149.007252 C602.829962,147.873664 602.360496,146.7 602.062786,145.48626 C601.770802,144.278244 601.621947,143.001527 601.621947,141.667557 C601.621947,139.371756 602.148664,136.972901 603.21355,134.470992 C603.740267,133.303053 604.358588,132.238168 605.057061,131.270611 C605.755534,130.303053 606.568511,129.45 607.478817,128.705725 C609.98645,126.581679 613.009351,125.522519 616.553244,125.522519 C619.719275,125.522519 622.902481,126.358397 626.108588,128.035878 L626.108588,143.070229 C625.026527,141.392748 623.795611,140.070229 622.41584,139.102672 C621.030344,138.135115 619.673473,137.654198 618.339504,137.654198 C617.314695,137.654198 616.478817,137.951908 615.82042,138.547328 C615.144847,139.119847 614.807061,139.80687 614.807061,140.614122 C614.807061,141.930916 615.705916,143.23626 617.509351,144.535878 L619.610496,146.09313 C622.41584,148.108397 624.419656,150.180916 625.633397,152.304962 C626.858588,154.429008 627.476908,156.908015 627.476908,159.753435 C627.476908,164.591221 625.999809,168.587405 623.051336,171.730534 C620.097137,174.867939 616.364313,176.442366 611.841412,176.442366 C608.721183,176.442366 605.377672,175.749618 601.810878,174.369847" id="Fill-35" fill="#7E694F" mask="url(#mask-6)"></path>
                <path d="M189.460305,229.449618 L188.601527,223.718702 C188.578626,223.695802 188.53855,223.409542 188.475573,222.859924 C188.429771,222.390458 188.206489,220.541221 187.805725,217.317939 C187.765649,216.957252 187.708397,216.45916 187.64542,215.835115 C187.582443,215.211069 187.496565,214.420992 187.393511,213.464885 L186.975573,208.816031 C186.935496,209.262595 186.878244,209.760687 186.803817,210.310305 C186.729389,210.865649 186.649237,211.466794 186.563359,212.125191 C186.414504,213.441985 186.31145,214.358015 186.242748,214.867557 C186.179771,215.377099 186.139695,215.680534 186.116794,215.789313 L185.195038,221.743511 L183.855344,229.449618 L189.460305,229.449618 Z M205.731298,246.230153 L192.008015,246.230153 L191.023282,239.989695 L182.074809,239.989695 L180.992748,246.230153 L167.269466,246.230153 L179.080534,197.062214 L195.317176,197.062214 L205.731298,246.230153 Z" id="Fill-36" fill="#7E694F" mask="url(#mask-6)"></path>
                <path d="M217.739885,246.230725 L217.739885,197.062786 L230.409733,197.062786 L237.06813,214.324237 C237.428817,215.343321 237.841031,216.51126 238.293321,217.828053 C238.751336,219.144847 239.255153,220.662023 239.804771,222.37958 L241.178817,226.71355 C240.68645,222.442557 240.314313,218.795611 240.062405,215.755534 C239.804771,212.721183 239.678817,210.173473 239.678817,208.112405 L239.678817,197.062786 L252.354389,197.062786 L252.354389,246.230725 L239.678817,246.230725 L232.991794,228.144847 C232.293321,226.209733 231.66355,224.400573 231.096756,222.717366 C230.535687,221.028435 230.043321,219.419656 229.619656,217.891031 C229.894466,221.349046 230.094847,224.366221 230.220802,226.931107 C230.352481,229.501718 230.409733,231.751718 230.409733,233.686832 L230.409733,246.230725 L217.739885,246.230725 Z" id="Fill-37" fill="#7E694F" mask="url(#mask-6)"></path>
                <path d="M280.66374,234.352672 C285.421374,234.117939 287.797328,230.024427 287.797328,222.060687 C287.797328,218.133206 287.190458,215.035878 285.982443,212.762977 C284.768702,210.472901 283.137023,209.322137 281.075954,209.322137 L280.66374,209.322137 L280.66374,234.352672 Z M267.387023,246.232443 L267.387023,197.064504 L278.848855,197.064504 C285.409924,197.064504 290.511069,198.827863 294.16374,202.348855 C298.96145,206.957634 301.360305,213.398473 301.360305,221.682824 C301.360305,229.829771 299.333588,236.127481 295.280153,240.564504 C291.822137,244.34313 286.658015,246.232443 279.804962,246.232443 L267.387023,246.232443 Z" id="Fill-38" fill="#7E694F" mask="url(#mask-6)"></path>
                <polygon id="Fill-39" fill="#7E694F" mask="url(#mask-6)" points="366.197519 246.230725 342.947519 246.230725 342.947519 197.062786 356.229962 197.062786 356.229962 234.419656 366.197519 234.419656"></polygon>
                <path d="M399.187214,229.449618 L398.328435,223.718702 C398.305534,223.695802 398.259733,223.409542 398.202481,222.859924 C398.156679,222.390458 397.933397,220.541221 397.526908,217.317939 C397.486832,216.957252 397.435305,216.45916 397.372328,215.835115 C397.309351,215.211069 397.223473,214.420992 397.114695,213.464885 L396.702481,208.816031 C396.662405,209.262595 396.599427,209.760687 396.530725,210.310305 C396.450573,210.865649 396.376145,211.466794 396.290267,212.125191 C396.141412,213.441985 396.032634,214.358015 395.969656,214.867557 C395.906679,215.377099 395.860878,215.680534 395.843702,215.789313 L394.916221,221.743511 L393.582252,229.449618 L399.187214,229.449618 Z M415.458206,246.230153 L401.734924,246.230153 L400.744466,239.989695 L391.795992,239.989695 L390.719656,246.230153 L376.990649,246.230153 L388.807443,197.062214 L405.044084,197.062214 L415.458206,246.230153 Z" id="Fill-40" fill="#7E694F" mask="url(#mask-6)"></path>
                <path d="M444.563931,217.794847 L463.096374,217.794847 L463.096374,219.833015 C463.096374,229.302481 461.687977,236.115458 458.865458,240.277672 C455.785305,244.817748 451.233779,247.090649 445.199427,247.090649 C439.27958,247.090649 434.630725,244.86355 431.252863,240.403626 C427.897901,235.903626 426.22042,229.726145 426.22042,221.871183 C426.22042,213.907443 427.909351,207.638359 431.287214,203.052481 C434.665076,198.466603 439.27958,196.170802 445.13645,196.170802 C452.91126,196.170802 458.544847,200.229962 462.048664,208.336832 L449.18416,213.048664 C448.989504,211.497137 448.548664,210.277672 447.861641,209.373092 C447.168893,208.468511 446.304389,208.016221 445.26813,208.016221 C441.615458,208.016221 439.789122,213.037214 439.789122,223.079198 C439.789122,227.344466 440.189885,230.447519 440.997137,232.376908 C441.804389,234.312023 443.086832,235.27958 444.850191,235.27958 C445.548664,235.27958 446.189885,235.107824 446.762405,234.764313 C447.334924,234.426527 447.81584,233.951336 448.210878,233.333015 C448.605916,232.72042 448.909351,231.97042 449.132634,231.08874 C449.355916,230.207061 449.464695,229.228053 449.464695,228.145992 L444.563931,228.145992 L444.563931,217.794847 Z" id="Fill-41" fill="#7E694F" mask="url(#mask-6)"></path>
                <polygon id="Fill-42" fill="#7E694F" mask="url(#mask-6)" points="476.919275 246.230725 476.919275 197.062786 501.600573 197.062786 501.600573 208.621947 490.195992 208.621947 490.195992 215.789885 500.415458 215.789885 500.415458 226.902481 490.195992 226.902481 490.195992 234.419656 501.600573 234.419656 501.600573 246.230725"></polygon>
                <path d="M528.697328,219.833015 L529.590458,219.833015 C531.119084,219.833015 532.390076,219.249046 533.40916,218.081107 C534.428244,216.913168 534.937786,215.424618 534.937786,213.626908 C534.937786,209.951336 533.014122,208.11355 529.172519,208.11355 L528.697328,208.11355 L528.697328,219.833015 Z M550.384351,246.23187 L536.019847,246.23187 L529.458779,228.718511 C529.395802,228.420802 529.287023,228.025763 529.126718,227.539122 C528.966412,227.052481 528.771756,226.468511 528.537023,225.787214 L528.634351,229.033397 L528.634351,246.23187 L515.420611,246.23187 L515.420611,197.063931 L529.017939,197.063931 C535.000763,197.063931 539.483588,198.243321 542.454962,200.602099 C546.233588,203.61355 548.122901,207.901718 548.122901,213.466603 C548.122901,219.409351 545.586641,223.520038 540.508397,225.787214 L550.384351,246.23187 Z" id="Fill-43" fill="#7E694F" mask="url(#mask-6)"></path>
                <path d="M561.877672,245.02042 L561.877672,229.57958 C564.488359,233.146374 567.310878,234.926908 570.345229,234.926908 C571.495992,234.926908 572.429198,234.623473 573.150573,234.022328 C573.871947,233.415458 574.232634,232.654008 574.232634,231.743702 C574.232634,230.426908 573.448282,229.144466 571.87958,227.890649 L569.715458,226.201718 C568.266985,225.119656 567.036069,224.043321 566.016985,222.966985 C564.997901,221.896374 564.173473,220.797137 563.537977,219.657824 C562.896756,218.524237 562.433015,217.350573 562.135305,216.142557 C561.837595,214.928817 561.68874,213.652099 561.68874,212.31813 C561.68874,210.028053 562.221183,207.623473 563.280344,205.121565 C563.807061,203.953626 564.425382,202.88874 565.123855,201.921183 C565.828053,200.953626 566.635305,200.100573 567.545611,199.356298 C570.053244,197.232252 573.076145,196.173092 576.625763,196.173092 C579.786069,196.173092 582.969275,197.008969 586.175382,198.68645 L586.175382,213.720802 C585.093321,212.043321 583.862405,210.720802 582.482634,209.753244 C581.102863,208.785687 579.745992,208.304771 578.406298,208.304771 C577.387214,208.304771 576.551336,208.602481 575.892939,209.197901 C575.211641,209.77042 574.873855,210.457443 574.873855,211.264695 C574.873855,212.581489 575.77271,213.892557 577.576145,215.18645 L579.67729,216.743702 C582.482634,218.764695 584.48645,220.831489 585.700191,222.955534 C586.925382,225.07958 587.543702,227.558588 587.543702,230.404008 C587.543702,235.241794 586.072328,239.237977 583.11813,242.381107 C580.169656,245.518511 576.431107,247.092939 571.908206,247.092939 C568.787977,247.092939 565.444466,246.400191 561.877672,245.02042" id="Fill-44" fill="#7E694F" mask="url(#mask-6)"></path>
                <polygon id="Fill-45" fill="#7E694F" mask="url(#mask-6)" points="694.051718 249.697328 715.337977 254.798473 693.759733 226.80229 708.484924 231.033206 690.98874 210.187786 703.526908 212.958779 673.784542 168.485496 643.750191 213.245038 656.580344 210.187786 639.376145 231.033206 653.666221 227.24313 632.523092 254.947328 652.498282 250.573282 647.397137 258.58855 664.017366 251.449237 661.103244 260.191603 670.28645 256.395802 670.28645 267.204962 677.717748 267.204962 677.717748 256.487405 686.471565 259.905344 683.557443 251.151527 700.469656 258.737405"></polygon>
                <path d="M99.5627863,193.166794 C95.9158397,193.166794 92.9616412,196.120992 92.9616412,199.762214 L92.9616412,222.788931 L86.6295802,222.788931 L86.6295802,154.550382 C86.6295802,150.90916 83.6753817,147.954962 80.0284351,147.954962 C76.3872137,147.954962 73.4330153,150.90916 73.4330153,154.550382 L73.4330153,210.823282 L67.8223282,210.823282 L67.8223282,187.796565 C67.8223282,184.155344 64.8624046,181.201145 61.2211832,181.201145 C57.5799618,181.201145 54.6200382,184.155344 54.6200382,187.796565 L54.6200382,210.823282 L54.6200382,215.191603 L54.6200382,215.24313 C54.6200382,219.353817 57.9520992,222.680153 62.0627863,222.680153 L73.4330153,222.680153 L73.4330153,267.204962 L86.6295802,267.204962 L86.6295802,234.651527 L98.7269084,234.651527 C102.83187,234.651527 106.158206,231.319466 106.158206,227.208779 L106.158206,227.157252 L106.158206,222.788931 L106.158206,199.762214 C106.158206,196.120992 103.204008,193.166794 99.5627863,193.166794" id="Fill-46" fill="#7E694F" mask="url(#mask-6)"></path>
                <path d="M714.439122,278.40458 L49.0746183,278.40458 C45.7769084,278.40458 43.0975191,275.730916 43.0975191,272.433206 C43.0975191,269.129771 45.7769084,266.456107 49.0746183,266.456107 L714.439122,266.456107 C717.736832,266.456107 720.410496,269.129771 720.410496,272.433206 C720.410496,275.730916 717.736832,278.40458 714.439122,278.40458" id="Fill-47" fill="#7E694F" mask="url(#mask-6)"></path>
                <path d="M600.393893,305.288931 L163.115267,305.288931 C160.109542,305.288931 157.670611,302.85 157.670611,299.844275 L157.670611,298.785115 C157.670611,295.779389 160.109542,293.340458 163.115267,293.340458 L600.393893,293.340458 C603.399618,293.340458 605.83855,295.779389 605.83855,298.785115 L605.83855,299.844275 C605.83855,302.85 603.399618,305.288931 600.393893,305.288931" id="Fill-48" fill="#7E694F" mask="url(#mask-6)"></path>
            </g>
        </g>
    </g>
</svg>